<svg width="100" height="100" viewBox="0 0 100 100" fill="none" xmlns="http://www.w3.org/2000/svg">
<path fill-rule="evenodd" clip-rule="evenodd" d="M14.9348 58.0878C14.6372 57.79 14.2242 57.6186 13.8031 57.6186C13.382 57.6186 12.969 57.79 12.6712 58.0878C12.3734 58.3854 12.2021 58.797 12.2021 59.2195C12.2021 59.6408 12.3733 60.0537 12.6712 60.3516C12.969 60.6492 13.382 60.8205 13.8031 60.8205C14.2242 60.8205 14.6372 60.6494 14.9348 60.3516C15.2326 60.0522 15.4041 59.6408 15.4041 59.2195C15.4041 58.7985 15.2328 58.3854 14.9348 58.0878Z" fill="white"/>
<path fill-rule="evenodd" clip-rule="evenodd" d="M18.1371 20.8309L14.9351 17.6289C14.3098 17.0039 13.2964 17.0039 12.6709 17.6289L9.46889 20.8309C8.8437 21.4561 8.8437 22.4698 9.46889 23.0952C10.0942 23.7202 11.1077 23.7202 11.7332 23.0952L12.2021 22.6264V52.7641C12.2021 53.6482 12.919 54.3651 13.8031 54.3651C14.6871 54.3651 15.4041 53.6482 15.4041 52.7641V22.6264L15.873 23.0953C16.1857 23.4077 16.5954 23.5641 17.005 23.5641C17.4147 23.5641 17.8244 23.4077 18.1371 23.0952C18.7623 22.47 18.7623 21.4562 18.1371 20.8309Z" fill="white"/>
<path fill-rule="evenodd" clip-rule="evenodd" d="M90.5019 75.905L87.2999 72.703C86.6746 72.078 85.6611 72.078 85.0355 72.703C84.4105 73.3281 84.4105 74.3418 85.0355 74.9673L85.5046 75.4361H79.7588V52.9688C79.7588 52.0849 79.042 51.3678 78.1578 51.3678C77.2739 51.3678 76.5568 52.0849 76.5568 52.9688V75.4359H59.2079V65.1896C59.2079 64.3057 58.491 63.5886 57.6069 63.5886C56.7229 63.5886 56.0059 64.3057 56.0059 65.1896V75.4359H42.6969V49.7443C42.6969 48.8602 41.98 48.1433 41.096 48.1433C40.2119 48.1433 39.495 48.8602 39.495 49.7443V75.4359H26.6407V65.4298C26.6407 64.5459 25.9237 63.8288 25.0397 63.8288C24.1556 63.8288 23.4387 64.5459 23.4387 65.4298V75.4359H15.4041V66.2216C15.4041 65.3375 14.6872 64.6206 13.8032 64.6206C12.9191 64.6206 12.2022 65.3375 12.2022 66.2216V77.0369C12.2022 77.9211 12.9191 78.6379 13.8032 78.6379H85.5044L85.0353 79.107C84.4103 79.732 84.4103 80.7457 85.0353 81.3713C85.3481 81.6838 85.7578 81.84 86.1675 81.84C86.5771 81.84 86.9869 81.6838 87.2996 81.3713L90.5016 78.1693C91.1271 77.5438 91.1271 76.53 90.5019 75.905Z" fill="white"/>
<path fill-rule="evenodd" clip-rule="evenodd" d="M78.1579 37.9234C76.7361 37.9234 75.5793 36.7663 75.5793 35.3445C75.5793 33.9227 76.7359 32.7658 78.1579 32.7658C79.5799 32.7658 80.7366 33.9227 80.7366 35.3445C80.7366 36.7663 79.5797 37.9234 78.1579 37.9234ZM57.607 58.0473C56.185 58.0473 55.0281 56.8903 55.0281 55.4684C55.0281 54.0466 56.185 52.8897 57.607 52.8897C59.0288 52.8897 60.1856 54.0464 60.1856 55.4684C60.1856 56.8904 59.0288 58.0473 57.607 58.0473ZM41.0959 42.1031C39.6742 42.1031 38.517 40.9462 38.517 39.5244C38.517 38.1025 39.6739 36.9455 41.0959 36.9455C42.5179 36.9455 43.6746 38.1025 43.6746 39.5244C43.6746 40.9462 42.5177 42.1031 41.0959 42.1031ZM25.0398 58.0561C23.6179 58.0561 22.4611 56.8992 22.4611 55.4774C22.4611 54.0555 23.6176 52.8985 25.0396 52.8985C25.7362 52.8985 26.3681 53.1772 26.8329 53.6278C26.8406 53.6359 26.8474 53.6449 26.8554 53.6529C26.8649 53.6623 26.8753 53.6703 26.8851 53.6796C27.3381 54.1446 27.6186 54.7784 27.6186 55.4774C27.6186 56.8994 26.4616 58.0561 25.0398 58.0561ZM78.1576 29.564C74.97 29.564 72.3771 32.1571 72.3771 35.3447C72.3771 36.2588 72.5911 37.1238 72.9707 37.8931L60.4342 50.4295C59.5975 49.9581 58.6332 49.6879 57.6065 49.6879C56.6027 49.6879 55.6581 49.9455 54.8346 50.3973L46.3554 41.9182C46.6889 41.1883 46.8762 40.3782 46.8762 39.5245C46.8762 36.337 44.2831 33.7437 41.0956 33.7437C37.908 33.7437 35.3149 36.337 35.3149 39.5245C35.3149 40.5082 35.5622 41.4348 35.9974 42.2464L27.828 50.4157C27.0005 49.958 26.05 49.6965 25.0393 49.6965C21.8517 49.6965 19.2586 52.2897 19.2586 55.4772C19.2586 58.6648 21.852 61.2579 25.0396 61.2579C28.2272 61.2579 30.8204 58.6648 30.8204 55.4772C30.8204 54.4619 30.5564 53.5075 30.095 52.6774L38.2304 44.5419C39.0758 45.0265 40.0535 45.3052 41.0957 45.3052C42.2652 45.3052 43.3541 44.9551 44.2647 44.3557L52.561 52.652C52.0935 53.4859 51.8258 54.4463 51.8258 55.4686C51.8258 58.6561 54.4191 61.2494 57.6065 61.2494C60.7941 61.2494 63.3872 58.6561 63.3872 55.4686C63.3872 54.4694 63.1322 53.5287 62.6842 52.7078L75.1271 40.2648C76.0089 40.81 77.047 41.1255 78.1576 41.1255C81.3451 41.1255 83.9382 38.5322 83.9382 35.3447C83.9382 32.1571 81.3451 29.564 78.1576 29.564Z" fill="white"/>
<path fill-rule="evenodd" clip-rule="evenodd" d="M79.2898 45.1662C78.992 44.8684 78.579 44.6971 78.1579 44.6971C77.7369 44.6971 77.3238 44.8682 77.026 45.1662C76.7284 45.464 76.5569 45.877 76.5569 46.2981C76.5569 46.7191 76.7283 47.1322 77.026 47.4298C77.3238 47.7276 77.7369 47.8991 78.1579 47.8991C78.579 47.8991 78.992 47.7277 79.2898 47.4298C79.5874 47.1322 79.7589 46.7191 79.7589 46.2981C79.7589 45.877 79.5876 45.464 79.2898 45.1662Z" fill="white"/>
</svg>
