<svg width="100" height="100" viewBox="0 0 100 100" fill="none" xmlns="http://www.w3.org/2000/svg">
<path fill-rule="evenodd" clip-rule="evenodd" d="M50 47C54.9707 47 59 42.9705 59 38C59 33.0295 54.9707 29 50 29C45.0293 29 41 33.0295 41 38C41 42.9705 45.0293 47 50 47ZM50 31.4106C53.6338 31.4106 56.5889 34.3665 56.5889 38C56.5889 41.6335 53.6338 44.5894 50 44.5894C46.3662 44.5894 43.4111 41.6335 43.4111 38C43.4111 34.3665 46.3662 31.4106 50 31.4106Z" fill="white"/>
<path d="M74.1426 41C74.1426 38.1643 71.8359 35.8569 69 35.8569C66.1641 35.8569 63.8574 38.1643 63.8574 41C63.8574 42.8643 64.8545 44.5 66.3428 45.4021C65.2725 45.6807 64.2578 46.0977 63.3193 46.6326C61.8857 45.1868 61 43.1968 61 41C61 36.5818 64.582 33 69 33C73.418 33 77 36.5818 77 41C77 43.0222 76.249 44.8694 75.0117 46.2778C74.0439 45.8015 73.0059 45.447 71.917 45.2336C73.2607 44.3047 74.1426 42.7534 74.1426 41Z" fill="white"/>
<path d="M58.8037 51.0286C58.3428 51.7888 57.96 52.6023 57.668 53.4573C55.7051 52.3191 53.4277 51.6667 51 51.6667C43.6484 51.6667 37.667 57.6479 37.667 65H35C35 56.1633 42.1631 49 51 49C53.834 49 56.4951 49.7366 58.8037 51.0286Z" fill="white"/>
<path d="M21.5625 63.2927C21.5625 63.8755 21.6162 64.4453 21.7148 65H19.1211C19.043 64.4417 19 63.8723 19 63.2927C19 56.5037 24.5059 51 31.2979 51C33.3564 51 35.2949 51.5081 37 52.4019C36.7432 52.6611 36.4941 52.9285 36.2539 53.2031C35.9131 53.593 35.5889 53.9978 35.2812 54.4163C34.0645 53.8684 32.7168 53.561 31.2979 53.561C25.9297 53.561 21.5625 57.9265 21.5625 63.2927Z" fill="white"/>
<path fill-rule="evenodd" clip-rule="evenodd" d="M31 49C35.418 49 39 45.4182 39 41C39 36.5818 35.418 33 31 33C26.582 33 23 36.5818 23 41C23 45.4182 26.582 49 31 49ZM31 35.8569C33.8359 35.8569 36.1426 38.1643 36.1426 41C36.1426 43.8357 33.8359 46.1431 31 46.1431C28.1641 46.1431 25.8574 43.8357 25.8574 41C25.8574 38.1643 28.1641 35.8569 31 35.8569Z" fill="white"/>
<path d="M61.1846 58.6C61.0615 58.48 61 58.3 61 58.18C61 58.06 61.0615 57.88 61.1846 57.76L62.0462 56.92C62.2923 56.68 62.6615 56.68 62.9077 56.92L62.9692 56.98L66.3538 60.52C66.4769 60.64 66.6615 60.64 66.7846 60.52L75.0308 52.18H75.0923C75.3385 51.94 75.7077 51.94 75.9538 52.18L76.8154 53.02C77.0615 53.26 77.0615 53.62 76.8154 53.86L66.9692 63.82C66.8462 63.94 66.7231 64 66.5385 64C66.3538 64 66.2308 63.94 66.1077 63.82L61.3077 58.78L61.1846 58.6Z" fill="white" stroke="white"/>
<path d="M69.5 70C76.4036 70 82 64.4036 82 57.5C82 50.5964 76.4036 45 69.5 45C62.5964 45 57 50.5964 57 57.5C57 64.4036 62.5964 70 69.5 70Z" stroke="white" stroke-width="2.4"/>
</svg>
