<svg width="100" height="100" viewBox="0 0 100 100" fill="none" xmlns="http://www.w3.org/2000/svg">
<path fill-rule="evenodd" clip-rule="evenodd" d="M72.855 24.1559L70.667 26.3429Z" fill="white"/>
<path fill-rule="evenodd" clip-rule="evenodd" d="M27.5689 26.3429L25.3829 24.1559Z" fill="white"/>
<path fill-rule="evenodd" clip-rule="evenodd" d="M75.9468 65.6955L73.7598 63.5085Z" fill="white"/>
<path fill-rule="evenodd" clip-rule="evenodd" d="M24.4771 63.5083L22.2891 65.6953Z" fill="white"/>
<mask id="mask0_2_1196" style="mask-type:alpha" maskUnits="userSpaceOnUse" x="48" y="14" width="4" height="6">
<path d="M48.4741 14.0002H51.3091V19.9278H48.4741V14.0002Z" fill="white"/>
</mask>
<g mask="url(#mask0_2_1196)">
<path fill-rule="evenodd" clip-rule="evenodd" d="M49.8911 19.9278C50.6741 19.9278 51.3091 19.2928 51.3091 18.5108V15.4178C51.3091 14.6348 50.6741 13.9998 49.8911 13.9998C49.1091 13.9998 48.4741 14.6348 48.4741 15.4178V18.5108C48.4741 19.2928 49.1091 19.9278 49.8911 19.9278Z" fill="white"/>
</g>
<path fill-rule="evenodd" clip-rule="evenodd" d="M82.3658 42.6085H79.2728C78.4898 42.6085 77.8558 43.2425 77.8558 44.0255C77.8558 44.8085 78.4898 45.4435 79.2728 45.4435H82.3658C83.1488 45.4435 83.7828 44.8085 83.7828 44.0255C83.7828 43.2425 83.1488 42.6085 82.3658 42.6085Z" fill="white"/>
<mask id="mask1_2_1196" style="mask-type:alpha" maskUnits="userSpaceOnUse" x="16" y="42" width="6" height="4">
<path d="M16 42.6089H21.9283V45.4429H16V42.6089Z" fill="white"/>
</mask>
<g mask="url(#mask1_2_1196)">
<path fill-rule="evenodd" clip-rule="evenodd" d="M21.9283 44.0259C21.9283 43.2429 21.2933 42.6089 20.5103 42.6089H17.4173C16.6343 42.6089 15.9993 43.2429 15.9993 44.0259C15.9993 44.8089 16.6343 45.4429 17.4173 45.4429H20.5103C21.2933 45.4429 21.9283 44.8089 21.9283 44.0259Z" fill="white"/>
</g>
<path fill-rule="evenodd" clip-rule="evenodd" d="M70.6675 27.7604C71.0305 27.7604 71.3935 27.6224 71.6705 27.3454L73.8565 25.1584C74.4105 24.6044 74.4105 23.7064 73.8565 23.1534C73.3035 22.5994 72.4055 22.5994 71.8525 23.1534L69.6645 25.3404C69.1115 25.8934 69.1115 26.7914 69.6645 27.3454C69.9415 27.6224 70.3055 27.7604 70.6675 27.7604Z" fill="white"/>
<path fill-rule="evenodd" clip-rule="evenodd" d="M28.5718 25.3404L26.3848 23.1524C25.8318 22.6004 24.9338 22.6004 24.3808 23.1524C23.8268 23.7064 23.8268 24.6044 24.3808 25.1584L26.5668 27.3454C26.8438 27.6224 27.2068 27.7604 27.5688 27.7604C27.9318 27.7604 28.2958 27.6224 28.5718 27.3454C29.1258 26.7914 29.1258 25.8934 28.5718 25.3404Z" fill="white"/>
<path fill-rule="evenodd" clip-rule="evenodd" d="M74.7622 62.5065C74.2092 61.9535 73.3112 61.9535 72.7572 62.5065C72.2032 63.0605 72.2032 63.9575 72.7572 64.5115L74.9452 66.6985C75.2212 66.9745 75.5842 67.1135 75.9472 67.1135C76.3102 67.1135 76.6732 66.9745 76.9502 66.6985C77.5032 66.1445 77.5032 65.2475 76.9502 64.6935L74.7622 62.5065Z" fill="white"/>
<path fill-rule="evenodd" clip-rule="evenodd" d="M23.4742 62.5065L21.2872 64.6935C20.7342 65.2465 20.7342 66.1445 21.2872 66.6985C21.5652 66.9745 21.9272 67.1135 22.2892 67.1135C22.6532 67.1135 23.0152 66.9745 23.2922 66.6985L25.4792 64.5115C26.0332 63.9575 26.0332 63.0605 25.4792 62.5065C24.9252 61.9535 24.0282 61.9535 23.4742 62.5065Z" fill="white"/>
<path fill-rule="evenodd" clip-rule="evenodd" d="M58.5835 74.085H49.6435C48.8595 74.085 48.2255 74.72 48.2255 75.502C48.2255 76.285 48.8595 76.92 49.6435 76.92H58.3805C57.5775 80.403 54.4525 83.009 50.7295 83.009H48.8115C44.4805 83.009 40.9565 79.485 40.9565 75.155V68.206C43.6915 69.413 46.7155 70.085 49.8925 70.085C52.9745 70.085 55.9125 69.453 58.5835 68.312V74.085ZM49.8925 25.699C45.4635 25.699 41.1865 27 37.5245 29.461C36.8755 29.898 36.7025 30.778 37.1395 31.428C37.5755 32.078 38.4565 32.251 39.1065 31.814C42.2995 29.668 46.0275 28.534 49.8925 28.534C60.5655 28.534 69.2495 37.218 69.2495 47.892C69.2495 58.041 61.3995 66.39 51.4525 67.187V58.332C51.4545 58.266 51.4565 58.15 51.4525 57.991V54.759C55.1295 54.725 48.9675 50.305 48.7745 51.447C48.5565 51.204 48.6245 55.772 48.6175 59.749V67.207C38.5355 66.548 30.5335 58.138 30.5335 47.892C30.5335 44.835 31.2255 41.911 32.5895 39.201C32.9415 38.501 32.6605 37.649 31.9605 37.297C31.2615 36.944 30.4085 37.226 30.0575 37.926C28.4925 41.035 27.6985 44.388 27.6985 47.892C27.6985 55.809 31.8655 62.77 38.1215 66.699V75.155C38.1215 81.049 42.9175 85.844 48.8125 85.844H50.7295C56.6235 85.844 61.4195 81.049 61.4195 75.155V66.851C67.8105 62.951 72.0855 55.912 72.0855 47.892C72.0855 35.654 62.1295 25.699 49.8925 25.699Z" fill="white"/>
<path fill-rule="evenodd" clip-rule="evenodd" d="M44.7935 74.3903L44.7545 74.3643C44.0985 73.9373 43.2195 74.1233 42.7925 74.7793C42.3655 75.4353 42.5515 76.3143 43.2075 76.7413L43.2465 76.7663C43.4855 76.9223 43.7545 76.9953 44.0195 76.9953C44.4815 76.9953 44.9375 76.7693 45.2085 76.3513C45.6355 75.6953 45.4495 74.8173 44.7935 74.3903Z" fill="white"/>
<path fill-rule="evenodd" clip-rule="evenodd" d="M33.5855 35.3687L33.6255 35.3947C33.8635 35.5487 34.1305 35.6227 34.3955 35.6227C34.8585 35.6227 35.3145 35.3937 35.5855 34.9747C36.0115 34.3187 35.8235 33.4407 35.1665 33.0147L35.1275 32.9897C34.4705 32.5637 33.5925 32.7507 33.1665 33.4087C32.7405 34.0657 32.9295 34.9427 33.5855 35.3687Z" fill="white"/>
<path fill-rule="evenodd" clip-rule="evenodd" d="M51.565 52.3375C53.136 52.3875 55.79 52.0905 58.346 50.0495C60.804 48.0875 61.408 45.4295 61.523 43.7585C54.038 45.0615 52.078 49.8955 51.565 52.3375ZM51.864 55.5625C50.421 55.5625 49.469 55.3315 49.376 55.3085L48.154 54.9995L48.157 53.7395C48.157 53.6135 48.185 50.6115 50.058 47.4655C51.771 44.5875 55.398 41.0105 62.942 40.3195L64.452 40.1815L64.683 41.6805C64.725 41.9515 65.645 48.3515 60.36 52.5715C57.256 55.0485 54.015 55.5625 51.864 55.5625Z" fill="white"/>
<path fill-rule="evenodd" clip-rule="evenodd" d="M41.2193 49.4229C41.3753 50.6679 41.9053 52.3859 43.5153 53.6939C45.1613 55.0299 46.8893 55.3629 48.0663 55.4039C47.9023 54.7829 47.6253 54.0279 47.1623 53.2679C45.9553 51.2869 43.9613 49.9979 41.2193 49.4229ZM48.3033 58.6349C46.5703 58.6349 43.9653 58.2159 41.4813 56.1989C37.2363 52.7529 37.9743 47.5319 38.0083 47.3119L38.2373 45.8059L39.7523 45.9469C45.7543 46.5059 48.6473 49.4129 50.0173 51.7529C51.4873 54.2629 51.5333 56.6009 51.5343 56.8589L51.5373 58.1139L50.3223 58.4249C50.2453 58.4449 49.4723 58.6349 48.3033 58.6349Z" fill="white"/>
</svg>
