<svg width="100" height="100" viewBox="0 0 100 100" fill="none" xmlns="http://www.w3.org/2000/svg">
<path fill-rule="evenodd" clip-rule="evenodd" d="M49.9315 42.7695C46.4584 42.7695 43.6325 45.5952 43.6325 49.0683C43.6325 52.5415 46.4584 55.3675 49.9315 55.3675C53.4046 55.3675 56.2305 52.5415 56.2305 49.0683C56.2305 45.5952 53.4046 42.7695 49.9315 42.7695ZM49.9315 58.5617C44.6971 58.5617 40.4384 54.3032 40.4384 49.0683C40.4384 43.8341 44.6971 39.5753 49.9315 39.5753C55.1659 39.5753 59.4247 43.8341 59.4247 49.0683C59.4247 54.3032 55.1659 58.5617 49.9315 58.5617Z" fill="white"/>
<path fill-rule="evenodd" clip-rule="evenodd" d="M50.9466 37.1519C50.6342 37.4474 50.2029 37.6298 49.7269 37.6301C48.7735 37.6301 48.001 36.8993 48.0007 35.9977L48 30.6331C48 29.7311 48.7728 29.0009 49.7255 29C50.6789 29 51.4514 29.7308 51.4517 30.6324L51.4521 35.9971C51.4521 36.448 51.2589 36.8564 50.9466 37.1519Z" fill="white"/>
<path fill-rule="evenodd" clip-rule="evenodd" d="M46.6688 21.3455C45.0655 22.9815 45.0655 25.6442 46.6688 27.2805C48.272 28.9165 50.8815 28.9165 52.485 27.2805C54.0886 25.6439 54.0883 22.9815 52.485 21.3455C50.8815 19.7095 48.2723 19.7092 46.6688 21.3455ZM54.6464 29.4862C51.8512 32.3385 47.3026 32.3385 44.5071 29.4862C41.7117 26.6337 41.7117 21.9922 44.5071 19.1397C47.3029 16.2869 51.8521 16.2866 54.6473 19.1391C57.4424 21.9913 57.4422 26.6334 54.6464 29.4862Z" fill="white"/>
<path fill-rule="evenodd" clip-rule="evenodd" d="M37.3711 48.711C37.6666 49.0234 37.849 49.4547 37.8493 49.9307C37.8493 50.884 37.1185 51.6565 36.2172 51.6572L30.8526 51.6575C29.9506 51.6575 29.2201 50.8847 29.2192 49.932C29.2192 48.9786 29.95 48.2061 30.8516 48.2058L36.2162 48.2055C36.6672 48.2055 37.0756 48.3986 37.3711 48.711Z" fill="white"/>
<path fill-rule="evenodd" clip-rule="evenodd" d="M21.3456 52.2393C22.9816 53.8426 25.6443 53.8426 27.2806 52.2393C28.9166 50.6357 28.9166 48.0266 27.2806 46.423C25.644 44.8195 22.9816 44.8197 21.3456 46.423C19.7096 48.0266 19.7093 50.6354 21.3456 52.2393ZM29.486 44.2617C32.3385 47.0568 32.3385 51.6055 29.486 54.4009C26.6338 57.1964 21.9923 57.1964 19.1398 54.4009C16.287 51.6052 16.2867 47.0559 19.1389 44.2608C21.9914 41.4653 26.6335 41.4656 29.486 44.2617Z" fill="white"/>
<path fill-rule="evenodd" clip-rule="evenodd" d="M48.711 61.6289C49.0234 61.3334 49.4547 61.151 49.9307 61.1507C50.884 61.1507 51.6565 61.8812 51.6572 62.7828L51.6575 68.1474C51.6575 69.0494 50.8847 69.7799 49.932 69.7808C48.9786 69.7808 48.2061 69.05 48.2058 68.1484L48.2055 62.7838C48.2055 62.3325 48.3986 61.9241 48.711 61.6289Z" fill="white"/>
<path fill-rule="evenodd" clip-rule="evenodd" d="M53.0749 77.2798C54.6782 75.6438 54.6782 72.9811 53.0746 71.3452C51.4714 69.7092 48.8619 69.7092 47.2587 71.3452C45.6548 72.9814 45.6554 75.6438 47.2587 77.2798C48.8619 78.9158 51.4711 78.9164 53.0749 77.2798ZM45.097 69.1394C47.8925 66.2869 52.4411 66.2869 55.2363 69.1394C58.032 71.9916 58.032 76.6334 55.2363 79.4856C52.4408 82.3387 47.8916 82.3387 45.0964 79.4865C42.301 76.634 42.3012 71.9922 45.097 69.1394Z" fill="white"/>
<path fill-rule="evenodd" clip-rule="evenodd" d="M61.6289 50.289C61.3337 49.9769 61.1513 49.5456 61.1507 49.0692C61.1507 48.1157 61.8815 47.3431 62.7831 47.3428L68.1477 47.3425C69.0497 47.3425 69.7802 48.1154 69.7808 49.0678C69.7808 50.0213 69.0503 50.7939 68.1487 50.7942L62.7841 50.7945C62.3328 50.7945 61.9244 50.6014 61.6289 50.289Z" fill="white"/>
<path fill-rule="evenodd" clip-rule="evenodd" d="M77.312 46.3587C75.6709 44.7176 72.9999 44.7176 71.3588 46.3587C69.7174 47.9998 69.7174 50.6711 71.3588 52.3122C73.0002 53.9539 75.6709 53.9533 77.312 52.3122C78.9532 50.6711 78.9538 48.0001 77.312 46.3587ZM69.1461 54.5249C66.2846 51.6635 66.2846 47.0075 69.1461 44.1461C72.0072 41.2846 76.6633 41.2846 79.5247 44.1461C82.3865 47.0078 82.3868 51.6644 79.5253 54.5255C76.6642 57.3869 72.0078 57.3863 69.1461 54.5249Z" fill="white"/>
<path fill-rule="evenodd" clip-rule="evenodd" d="M39.9627 39.9626C39.3284 40.5969 38.3008 40.5969 37.6665 39.9626L34.8732 37.1692C34.2387 36.535 34.2387 35.5073 34.8729 34.873C35.5075 34.2387 36.5348 34.2387 37.1694 34.873L39.9627 37.6664C40.5969 38.3007 40.5969 39.3284 39.9627 39.9626Z" fill="white"/>
<path fill-rule="evenodd" clip-rule="evenodd" d="M30.6861 30.6863C30.1559 31.2162 29.8647 31.9212 29.8647 32.6709C29.8644 34.2191 31.1232 35.4779 32.6711 35.4785C34.1702 35.4776 35.4775 34.17 35.4784 32.6713C35.4778 31.1234 34.219 29.8646 32.6711 29.8643C31.921 29.8646 31.2163 30.1561 30.6861 30.6863ZM36.9428 36.9429C35.8019 38.084 34.2848 38.7123 32.6711 38.7123C29.34 38.7123 26.6301 36.0025 26.6301 32.6713C26.6295 31.0576 27.2579 29.5405 28.3991 28.3993C29.5402 27.2582 31.0574 26.6295 32.6717 26.6302C36.0025 26.6305 38.7123 29.3403 38.7123 32.6713C38.7123 34.2849 38.084 35.802 36.9428 36.9429Z" fill="white"/>
<path fill-rule="evenodd" clip-rule="evenodd" d="M39.9626 59.0374C40.5969 59.6717 40.5969 60.6993 39.9626 61.3333L37.1692 64.127C36.5349 64.7613 35.5073 64.7613 34.873 64.127C34.2387 63.4927 34.2387 62.4651 34.873 61.8308L37.6664 59.0374C38.3007 58.4031 39.3283 58.4031 39.9626 59.0374Z" fill="white"/>
<path fill-rule="evenodd" clip-rule="evenodd" d="M30.6863 68.3139C31.2162 68.8442 31.9212 69.1354 32.6709 69.1354C34.2191 69.1354 35.4779 67.8768 35.4785 66.3286C35.4776 64.8298 34.17 63.5225 32.6712 63.5216C31.1234 63.5219 29.8646 64.7808 29.8643 66.3286C29.8646 67.079 30.1561 67.784 30.6863 68.3139ZM36.9428 62.0572C38.084 63.1981 38.7123 64.7149 38.7123 66.3286C38.7123 69.66 36.0025 72.3699 32.6712 72.3699C31.0576 72.3705 29.5405 71.7422 28.3993 70.601C27.2582 69.4598 26.6295 67.9426 26.6301 66.3283C26.6304 62.9976 29.3403 60.2877 32.6712 60.2877C34.2849 60.2877 35.802 60.916 36.9428 62.0572Z" fill="white"/>
<path fill-rule="evenodd" clip-rule="evenodd" d="M59.0374 59.0374C59.6717 58.4031 60.6993 58.4031 61.3336 59.0374L64.127 61.8308C64.7613 62.4651 64.7613 63.4927 64.127 64.127C63.4927 64.7613 62.4654 64.7613 61.8311 64.127L59.0374 61.3336C58.4031 60.6993 58.4031 59.6717 59.0374 59.0374Z" fill="white"/>
<path fill-rule="evenodd" clip-rule="evenodd" d="M68.3141 68.3137C68.8441 67.7838 69.1356 67.0788 69.1356 66.3291C69.1356 64.781 67.877 63.5221 66.3288 63.5215C64.8299 63.5224 63.5223 64.8297 63.5213 66.3285C63.522 67.8766 64.7808 69.1351 66.3288 69.1358C67.0788 69.1351 67.7839 68.8439 68.3141 68.3137ZM62.0573 62.0572C63.1982 60.916 64.715 60.2877 66.3288 60.2877C69.6602 60.2877 72.3699 62.9978 72.3699 66.3288C72.3708 67.9424 71.7421 69.4595 70.6009 70.6007C69.4597 71.7419 67.9428 72.3702 66.3285 72.3699C62.9976 72.3696 60.2877 69.6601 60.2877 66.3288C60.2877 64.7151 60.9157 63.198 62.0573 62.0572Z" fill="white"/>
<path fill-rule="evenodd" clip-rule="evenodd" d="M59.0374 39.9627C58.4031 39.3284 58.4031 38.3007 59.0374 37.6664L61.8311 34.873C62.4654 34.2387 63.493 34.2387 64.1273 34.8727C64.7613 35.5073 64.7613 36.5347 64.127 37.1693L61.3336 39.9627C60.6993 40.5969 59.6717 40.5969 59.0374 39.9627Z" fill="white"/>
<path fill-rule="evenodd" clip-rule="evenodd" d="M68.3137 30.6861C67.7835 30.1559 67.0788 29.8647 66.3288 29.8647C64.7806 29.8644 63.5218 31.1232 63.5215 32.6714C63.5221 34.1702 64.8297 35.4775 66.3285 35.4784C67.8766 35.4778 69.1351 34.219 69.1354 32.6714C69.1351 31.9211 68.8436 31.2164 68.3137 30.6861ZM62.0572 36.9428C60.916 35.8019 60.2877 34.2848 60.2877 32.6714C60.2877 29.34 62.9975 26.6302 66.3285 26.6302C67.9424 26.6295 69.4595 27.2582 70.6004 28.3991C71.7419 29.5403 72.3702 31.0574 72.3699 32.6717C72.3692 36.0025 69.6598 38.7123 66.3285 38.7123C64.7148 38.7123 63.198 38.084 62.0572 36.9428Z" fill="white"/>
</svg>
