<?xml version="1.0" encoding="UTF-8"?>
<svg width="79px" height="61px" viewBox="0 0 79 61" version="1.1" xmlns="http://www.w3.org/2000/svg" xmlns:xlink="http://www.w3.org/1999/xlink">
    <!-- Generator: Sketch 52.4 (67378) - http://www.bohemiancoding.com/sketch -->
    <title>build-04</title>
    <desc>Created with Sketch.</desc>
    <defs>
        <polygon id="path-1" points="0 0 78.7096774 0 78.7096774 60.999939 0 60.999939"></polygon>
    </defs>
    <g id="Home" stroke="none" stroke-width="1" fill="none" fill-rule="evenodd">
        <g id="Home-" transform="translate(-1124.000000, -4102.000000)">
            <g id="build-04" transform="translate(1124.000000, 4102.000000)">
                <g id="Group-22">
                    <g id="Group-3">
                        <mask id="mask-2" fill="white">
                            <use xlink:href="#path-1"></use>
                        </mask>
                        <g id="Clip-2"></g>
                        <path d="M75.6350806,56.348689 C75.6350806,57.2315115 74.9108594,57.949939 74.0209173,57.949939 L4.68876008,57.949939 C3.79881804,57.949939 3.07459677,57.2315115 3.07459677,56.348689 L3.07459677,4.651189 C3.07459677,3.7683665 3.79881804,3.049939 4.68876008,3.049939 L74.0209173,3.049939 C74.9108594,3.049939 75.6350806,3.7683665 75.6350806,4.651189 L75.6350806,56.348689 Z M74.0209173,-6.1e-05 L4.68876008,-6.1e-05 C2.10363911,-6.1e-05 0,2.086749 0,4.651189 L0,56.348689 C0,58.913129 2.10363911,60.999939 4.68876008,60.999939 L74.0209173,60.999939 C76.6060383,60.999939 78.7096774,58.913129 78.7096774,56.348689 L78.7096774,4.651189 C78.7096774,2.086749 76.6060383,-6.1e-05 74.0209173,-6.1e-05 Z" id="Fill-1" fill="#333C4E" mask="url(#mask-2)"></path>
                    </g>
                    <path d="M71.2760557,15.7419355 L8.41749268,15.7419355 C7.57210198,15.7419355 6.88709677,16.4195955 6.88709677,17.2555831 L6.88709677,53.5831266 C6.88709677,54.4191141 7.57210198,55.0967742 8.41749268,55.0967742 L26.6345603,55.0967742 C27.479798,55.0967742 28.1649562,54.4191141 28.1649562,53.5831266 C28.1649562,52.7469876 27.479798,52.0694789 26.6345603,52.0694789 L9.94788858,52.0694789 L9.94788858,18.7692308 L69.7456598,18.7692308 L69.7456598,52.0694789 L38.9285367,52.0694789 C38.083146,52.0694789 37.3981408,52.7469876 37.3981408,53.5831266 C37.3981408,54.4191141 38.083146,55.0967742 38.9285367,55.0967742 L71.2760557,55.0967742 C72.1212934,55.0967742 72.8064516,54.4191141 72.8064516,53.5831266 L72.8064516,17.2555831 C72.8064516,16.4200496 72.1212934,15.7419355 71.2760557,15.7419355" id="Fill-4" fill="#333C4E"></path>
                    <path d="M30.0540729,10.8225806 L69.3168949,10.8225806 C70.1573932,10.8225806 70.8387097,10.1618621 70.8387097,9.34677419 C70.8387097,8.53168629 70.1573932,7.87096774 69.3168949,7.87096774 L30.0540729,7.87096774 C29.2135746,7.87096774 28.5322581,8.53168629 28.5322581,9.34677419 C28.5322581,10.1618621 29.2135746,10.8225806 30.0540729,10.8225806" id="Fill-6" fill="#333C4E"></path>
                    <path d="M9.34677419,10.8225806 C9.44299677,10.8225806 9.5404,10.8138706 9.63617984,10.7949741 C9.73077903,10.77593 9.82242661,10.7475853 9.91230323,10.7106781 C10.0011468,10.673771 10.0864484,10.6283014 10.1659944,10.5745646 C10.2473113,10.5203849 10.322725,10.4580856 10.3901694,10.3900288 C10.6662927,10.1155872 10.8225806,9.7361816 10.8225806,9.3462944 C10.8225806,9.25063105 10.8138734,9.15304853 10.7949831,9.05856621 C10.7759452,8.96393626 10.7476097,8.87107786 10.7107145,8.78294357 C10.6738194,8.69407114 10.6283645,8.60697025 10.5746452,8.52739842 C10.5204831,8.44723608 10.459975,8.37061682 10.3901694,8.30315054 C10.322725,8.23509374 10.2473113,8.17279446 10.1659944,8.11964816 C10.0864484,8.06664948 10.0011468,8.02103224 9.91230323,7.98412508 C9.82242661,7.94721793 9.73077903,7.91902086 9.63617984,7.89997677 C9.44594839,7.86129807 9.24996129,7.86129807 9.05913952,7.89997677 C8.96454032,7.91902086 8.8717121,7.94721793 8.78360645,7.98412508 C8.6947629,8.02103224 8.60769032,8.06664948 8.52814435,8.11964816 C8.44682742,8.17279446 8.37141371,8.23509374 8.30396935,8.30315054 C8.23593468,8.37061682 8.17365565,8.44723608 8.12052661,8.52739842 C8.06754516,8.60697025 8.02194274,8.69407114 7.98504758,8.78294357 C7.94815242,8.87107786 7.91996452,8.96393626 7.90092661,9.05856621 C7.88129839,9.15304853 7.87096774,9.25063105 7.87096774,9.3462944 C7.87096774,9.7361816 8.02887903,10.1155872 8.30396935,10.3900288 C8.57832177,10.6662419 8.95878468,10.8225806 9.34677419,10.8225806" id="Fill-8" fill="#333C4E"></path>
                    <path d="M13.8882734,9.91181631 C13.9251685,10.0007074 13.970771,10.0860546 14.0237524,10.1656431 C14.0767339,10.2470036 14.1390129,10.3224576 14.2070476,10.3899381 C14.4815476,10.6662091 14.8620105,10.8225806 15.25,10.8225806 C15.3474032,10.8225806 15.4436258,10.8138687 15.5394056,10.7948206 C15.6338573,10.7759202 15.7255048,10.7475696 15.815529,10.7106547 C15.904225,10.6737398 15.9895266,10.6282606 16.0690726,10.5745125 C16.1503895,10.5203215 16.2259508,10.459781 16.2933952,10.3899381 C16.3632008,10.3224576 16.4237089,10.2470036 16.477871,10.1656431 C16.5314427,10.0860546 16.5770452,10.0007074 16.6139403,9.91181631 C16.6508355,9.82189163 16.6790234,9.73019502 16.6980613,9.63554523 C16.7170992,9.53971416 16.7258065,9.44344011 16.7258065,9.34598478 C16.7258065,9.25030137 16.7170992,9.15447029 16.6980613,9.05819624 C16.6790234,8.96354645 16.6508355,8.87066857 16.6139403,8.7825158 C16.5770452,8.69362472 16.5314427,8.60768685 16.477871,8.52691705 C16.4237089,8.4467379 16.3632008,8.37010257 16.2933952,8.30262214 C16.2259508,8.23455107 16.1503895,8.17223872 16.0690726,8.11908127 C15.9895266,8.06607148 15.904225,8.02044467 15.815529,7.98352977 C15.7255048,7.94661488 15.6338573,7.91841189 15.5394056,7.89936381 C15.059621,7.80190848 14.5489919,7.95990424 14.2070476,8.30262214 C14.1390129,8.37010257 14.0767339,8.4467379 14.0237524,8.52691705 C13.970771,8.60768685 13.9251685,8.69362472 13.8882734,8.7825158 C13.8513782,8.87066857 13.8231903,8.96354645 13.8041524,9.05819624 C13.7845242,9.15447029 13.7741935,9.25030137 13.7741935,9.34598478 C13.7741935,9.44344011 13.7845242,9.53971416 13.8041524,9.63554523 C13.8231903,9.73019502 13.8513782,9.82189163 13.8882734,9.91181631" id="Fill-10" fill="#333C4E"></path>
                    <path d="M19.7914992,9.91200729 C19.8283944,10.0008797 19.8739968,10.0862091 19.9269782,10.1657809 C19.9799597,10.2471243 20.0422387,10.3225625 20.1102734,10.3900288 C20.1777177,10.4598571 20.253279,10.5203849 20.334596,10.5745646 C20.4141419,10.6283014 20.5012145,10.673771 20.5899105,10.7106781 C20.6781637,10.7475853 20.7709919,10.77593 20.8654435,10.7948265 C20.9600427,10.8138706 21.057446,10.8225806 21.1532258,10.8225806 C21.250629,10.8225806 21.3468516,10.8138706 21.4426315,10.7948265 C21.5370831,10.77593 21.6287306,10.7475853 21.7187548,10.7106781 C21.8074508,10.673771 21.8927524,10.6283014 21.9722984,10.5745646 C22.0536153,10.5203849 22.1291766,10.4598571 22.196621,10.3900288 C22.2646556,10.3225625 22.3269347,10.2471243 22.3810968,10.1657809 C22.4346685,10.0862091 22.480271,10.0008797 22.5171661,9.91200729 C22.5540613,9.82210146 22.5822492,9.73042408 22.6012871,9.63579413 C22.620325,9.53998316 22.6290323,9.44372929 22.6290323,9.3462944 C22.6290323,9.25063105 22.620325,9.15304853 22.6012871,9.05856621 C22.5822492,8.96393626 22.5540613,8.87107786 22.5171661,8.78294357 C22.480271,8.69407114 22.4346685,8.60697025 22.3810968,8.52739842 C22.3269347,8.44605505 22.2646556,8.37061682 22.196621,8.30315054 C22.1291766,8.23509374 22.0536153,8.17279446 21.9722984,8.11964816 C21.8927524,8.06664948 21.8074508,8.02103224 21.7187548,7.98412508 C21.6287306,7.94721793 21.5370831,7.91902086 21.4426315,7.89997677 C21.2522524,7.86129807 21.0562653,7.86129807 20.8654435,7.89997677 C20.7709919,7.91902086 20.6781637,7.94721793 20.5899105,7.98412508 C20.5012145,8.02103224 20.4141419,8.06664948 20.334596,8.11964816 C20.253279,8.17279446 20.1777177,8.23509374 20.1102734,8.30315054 C20.0422387,8.37061682 19.9799597,8.44605505 19.9269782,8.52739842 C19.8739968,8.60697025 19.8283944,8.69407114 19.7914992,8.78294357 C19.754604,8.87107786 19.7264161,8.96393626 19.7073782,9.05856621 C19.68775,9.15304853 19.6774194,9.25063105 19.6774194,9.3462944 C19.6774194,9.44372929 19.68775,9.53998316 19.7073782,9.63579413 C19.7264161,9.73042408 19.754604,9.82210146 19.7914992,9.91200729" id="Fill-12" fill="#333C4E"></path>
                    <path d="M33.3379758,53.0564645 C33.3010806,52.966555 33.2554782,52.8806317 33.2019065,52.8010567 C33.148925,52.7197101 33.0872363,52.6447117 33.0192016,52.5766522 C32.9511669,52.5085926 32.876196,52.4468814 32.794879,52.3938806 C32.7153331,52.3401416 32.6294411,52.2946701 32.5395645,52.2577615 C32.450721,52.2208529 32.3578927,52.1914736 32.2634411,52.1736098 C31.7854274,52.0760233 31.2747984,52.23414 30.9322637,52.5766522 C30.864229,52.6447117 30.8025403,52.7197101 30.7495589,52.8010567 C30.6959871,52.8806317 30.6503847,52.966555 30.6134895,53.0564645 C30.5765944,53.1453405 30.5472258,53.238055 30.5293685,53.3326888 C30.5103306,53.4273225 30.5,53.5247613 30.5,53.6204285 C30.5,54.0085598 30.6579113,54.3897523 30.9322637,54.6643526 C31.2067637,54.9388052 31.5878169,55.0967742 31.9758065,55.0967742 C32.0714387,55.0967742 32.1688419,55.0882114 32.2634411,55.068576 C32.3578927,55.0495311 32.450721,55.0201519 32.5395645,54.9832432 C32.6294411,54.9463346 32.7153331,54.9007155 32.794879,54.8471241 C32.876196,54.7941233 32.9511669,54.7324121 33.0192016,54.6643526 C33.0872363,54.596293 33.148925,54.5212947 33.2019065,54.439948 C33.2554782,54.360373 33.3010806,54.2744497 33.3379758,54.1845402 C33.374871,54.0956642 33.4042395,54.0028021 33.4220968,53.9083159 C33.4411347,53.8136822 33.4516129,53.7162434 33.4516129,53.6204285 C33.4516129,53.5247613 33.4411347,53.4273225 33.4220968,53.3326888 C33.4042395,53.238055 33.374871,53.1453405 33.3379758,53.0564645" id="Fill-20" fill="#333C4E"></path>
                </g>
                <path d="M32.1611067,40.4775903 L31.4913111,38.7169847 L25.78848,38.7169847 L25.1186844,40.5158643 C24.8571439,41.2175584 24.6338809,41.6911949 24.4488888,41.9367878 C24.2638967,42.1823808 23.960897,42.3051754 23.5398805,42.3051754 C23.1826544,42.3051754 22.8668968,42.1744071 22.5925982,41.9128666 C22.3182995,41.651326 22.1811523,41.3547052 22.1811523,41.0229953 C22.1811523,40.8316241 22.213047,40.6338769 22.2768374,40.4297477 C22.3406278,40.2256185 22.4458803,39.9417556 22.5925982,39.5781505 L26.1807889,30.4689303 C26.2828535,30.2073898 26.4056481,29.8932269 26.5491765,29.5264322 C26.6927048,29.1596375 26.8457994,28.8550431 27.0084649,28.6126396 C27.1711303,28.3702362 27.3848249,28.1740837 27.6495549,28.0241764 C27.914285,27.874269 28.2412058,27.7993164 28.6303271,27.7993164 C29.0258274,27.7993164 29.3559376,27.874269 29.6206677,28.0241764 C29.8853978,28.1740837 30.0990923,28.3670467 30.2617578,28.6030711 C30.4244232,28.8390955 30.5615705,29.0926585 30.6732037,29.3637676 C30.7848368,29.6348767 30.9267683,29.9968816 31.0990023,30.4497933 L34.7637411,39.5016024 C35.0507978,40.1905385 35.194324,40.6912854 35.194324,41.0038582 C35.194324,41.3291892 35.0587714,41.6274047 34.7876623,41.8985138 C34.5165532,42.1696229 34.1896325,42.3051754 33.8068902,42.3051754 C33.5836239,42.3051754 33.3922556,42.265307 33.2327797,42.185569 C33.0733038,42.1058311 32.939346,41.9973891 32.8309023,41.8602398 C32.7224587,41.7230904 32.606043,41.5125854 32.4816518,41.2287182 C32.3572605,40.944851 32.2504133,40.6944775 32.1611067,40.4775903 Z M26.5348237,36.5832073 L30.7258304,36.5832073 L28.6111901,30.7942596 L26.5348237,36.5832073 Z M42.8553823,36.6023443 L40.2527479,36.6023443 L40.2527479,40.5732754 C40.2527479,41.1410097 40.1187902,41.5715883 39.8508706,41.865024 C39.582951,42.1584597 39.2448671,42.3051754 38.8366087,42.3051754 C38.4092131,42.3051754 38.0647503,42.1600545 37.8032097,41.8698083 C37.5416692,41.5795621 37.4109009,41.1537677 37.4109009,40.5924124 L37.4109009,29.7799977 C37.4109009,29.154852 37.5544271,28.7083261 37.8414838,28.4404065 C38.1285405,28.1724869 38.5846348,28.0385291 39.2097805,28.0385291 L42.8553823,28.0385291 C43.9334396,28.0385291 44.7627021,28.1214554 45.3431945,28.2873103 C45.9173079,28.4467863 46.4132706,28.7115124 46.8310976,29.0814966 C47.2489245,29.4514807 47.5662769,29.9043856 47.7831642,30.4402248 C48.0000515,30.9760639 48.1084935,31.5788739 48.1084935,32.2486729 C48.1084935,33.6775773 47.6683465,34.7604027 46.7880393,35.4971816 C45.9077321,36.2339604 44.5968595,36.6023443 42.8553823,36.6023443 Z M42.1664496,30.1723065 L40.2527479,30.1723065 L40.2527479,34.4589984 L42.1664496,34.4589984 C42.8362486,34.4589984 43.3960008,34.38883 43.8457229,34.2484912 C44.2954451,34.1081524 44.6383132,33.8785104 44.8743376,33.5595586 C45.110362,33.2406067 45.2283724,32.822786 45.2283724,32.3060839 C45.2283724,31.6873173 45.0465725,31.1833809 44.6829674,30.7942596 C44.274709,30.3796221 43.4358781,30.1723065 42.1664496,30.1723065 Z M50.7269478,40.5732754 L50.7269478,29.5216479 C50.7269478,28.9475346 50.8577161,28.516956 51.1192566,28.2298993 C51.3807972,27.9428426 51.7188811,27.7993164 52.1335185,27.7993164 C52.560914,27.7993164 52.9069716,27.9412479 53.1717017,28.225115 C53.4364318,28.5089822 53.5687948,28.9411555 53.5687948,29.5216479 L53.5687948,40.5732754 C53.5687948,41.1537678 53.4364318,41.5875358 53.1717017,41.8745925 C52.9069716,42.1616492 52.560914,42.3051754 52.1335185,42.3051754 C51.7252601,42.3051754 51.3887709,42.1600545 51.1240409,41.8698083 C50.8593108,41.5795621 50.7269478,41.1473887 50.7269478,40.5732754 Z" id="API" fill="#00D2FF"></path>
            </g>
        </g>
    </g>
</svg>