<?xml version="1.0" encoding="UTF-8"?>
<svg width="66px" height="66px" viewBox="0 0 66 66" version="1.1" xmlns="http://www.w3.org/2000/svg" xmlns:xlink="http://www.w3.org/1999/xlink">
    <!-- Generator: Sketch 52.4 (67378) - http://www.bohemiancoding.com/sketch -->
    <title>impact</title>
    <desc>Created with Sketch.</desc>
    <defs>
        <polygon id="path-1" points="21.6 15.7333333 20.2666667 17.0666667 21.6 18.4 21.6 19.7333333 20.2666667 19.7333333 18.9333333 18.4 17.6 19.7333333 16.2666667 19.7333333 16.2666667 18.4 17.6 17.0666667 16.2666667 15.7333333 16.2666667 14.4 17.6 14.4 18.9333333 15.7333333 20.2666667 14.4 21.6 14.4"></polygon>
        <polygon id="path-3" points="21.6 15.7333333 20.2666667 17.0666667 21.6 18.4 21.6 19.7333333 20.2666667 19.7333333 18.9333333 18.4 17.6 19.7333333 16.2666667 19.7333333 16.2666667 18.4 17.6 17.0666667 16.2666667 15.7333333 16.2666667 14.4 17.6 14.4 18.9333333 15.7333333 20.2666667 14.4 21.6 14.4"></polygon>
        <polygon id="path-5" points="51.7333333 31.6 50.4 32.9333333 51.7333333 34.2666667 51.7333333 35.6 50.4 35.6 49.0666667 34.2666667 47.7333333 35.6 46.4 35.6 46.4 34.2666667 47.7333333 32.9333333 46.4 31.6 46.4 30.2666667 47.7333333 30.2666667 49.0666667 31.6 50.4 30.2666667 51.7333333 30.2666667"></polygon>
        <polygon id="path-7" points="20.9333333 47.3333333 19.6 48.6666667 20.9333333 50 20.9333333 51.3333333 19.6 51.3333333 18.2666667 50 16.9333333 51.3333333 15.6 51.3333333 15.6 50 16.9333333 48.6666667 15.6 47.3333333 15.6 46 16.9333333 46 18.2666667 47.3333333 19.6 46 20.9333333 46"></polygon>
    </defs>
    <g id="Home" stroke="none" stroke-width="1" fill="none" fill-rule="evenodd">
        <g id="Home-" transform="translate(-1129.000000, -4323.000000)">
            <g id="impact" transform="translate(1129.000000, 4323.000000)">
                <path d="M54.6959047,54.693015 C51.0241365,58.3315857 46.4247777,61.0638409 41.322364,62.4985078 C43.8908717,58.8625988 45.9882645,54.7289482 47.4921057,50.2253186 L58.3650112,50.2253186 C57.2644123,51.8290047 56.032061,53.3288837 54.6959047,54.693015 Z M58.3650112,15.7414099 L47.4921057,15.7414099 C45.9882645,11.2377803 43.8908717,7.10279884 41.322364,3.46822068 C46.4247777,4.9015567 51.0241365,7.63647362 54.6959047,11.306985 C56.032061,12.6724472 57.2644123,14.1390547 58.3650112,15.7414099 Z M34.1505051,50.2253186 L45.123223,50.2253186 C43.3878168,55.129537 40.9191217,59.5306904 37.9526949,63.2650831 C36.7203436,63.4660429 35.4533906,63.597798 34.1505051,63.6297387 L34.1505051,50.2253186 Z M34.1505051,15.7414099 L34.1505051,2.33432812 C35.4533906,2.40087111 36.7203436,2.53528795 37.9526949,2.73358606 C40.9191217,6.43470721 43.354546,10.8385223 45.0899522,15.7414099 L34.1505051,15.7414099 Z M22.2116024,13.8409421 C21.3438993,12.9732215 20.1780896,12.4395467 18.8778658,12.4395467 C17.577642,12.4395467 16.4091706,12.9732215 15.5414675,13.8409421 C14.7096969,14.6727295 14.1747021,15.8758267 14.1747021,17.1760768 C14.1747021,18.4763268 14.7096969,19.6434909 15.5414675,20.5112115 C16.4091706,21.3443297 17.577642,21.8780045 18.8778658,21.8780045 C20.1780896,21.8780045 21.3798318,21.3443297 22.2116024,20.5112115 C23.0793055,19.6434909 23.5810296,18.4763268 23.5810296,17.1760768 C23.5810296,15.8758267 23.0793055,14.6727295 22.2116024,13.8409421 Z M15.8755066,23.0451686 C15.2753009,22.7124536 14.7096969,22.3118648 14.2079729,21.8434022 C13.2071865,20.8106549 12.5058375,19.4758025 12.3408142,17.9772544 L6.23761418,17.9772544 C3.90333313,22.1135667 2.53523683,26.8115019 2.33561188,31.8168656 L15.0078035,31.8168656 C15.075676,28.8157767 15.3751134,25.8799 15.8755066,23.0451686 Z M25.4149174,17.9772544 C25.2472325,19.4758025 24.5458835,20.8106549 23.5464279,21.8434022 C22.3460166,23.0105662 20.7117537,23.7784723 18.8778658,23.7784723 C18.6103684,23.7784723 18.310931,23.74387 18.0421027,23.7119293 C17.577642,26.3470318 17.3101446,29.0486772 17.2436029,31.8168656 L31.8162241,31.8168656 L31.8162241,17.9772544 L25.4149174,17.9772544 Z M21.9454358,11.3402565 C22.5456415,11.6383691 23.0793055,12.0402888 23.5464279,12.5060897 C24.4128002,13.3738103 25.0476075,14.4731005 25.315105,15.7414099 L31.8162241,15.7414099 L31.8162241,2.33432812 C30.2498336,2.40087111 28.6821124,2.56722859 27.1822636,2.8680029 C25.1806908,5.40329085 23.4133446,8.2366914 21.9454358,11.3402565 Z M18.8778658,10.5710195 C19.1759724,10.5710195 19.5100115,10.6069527 19.7775089,10.6388934 C20.9446494,8.17014841 22.2462041,5.86909179 23.7473837,3.7357235 C18.9763475,5.23560252 14.7429678,7.87070495 11.306757,11.306985 C9.9386607,12.6724472 8.70497853,14.1390547 7.63765047,15.7414099 L12.4406267,15.7414099 C12.7067933,14.4731005 13.3416006,13.3738103 14.2079729,12.5060897 C15.4097151,11.306985 17.075918,10.5710195 18.8778658,10.5710195 Z M52.4640978,29.4159945 C51.593733,28.5802146 50.4265925,28.0465398 49.123707,28.0465398 C47.8261448,28.0465398 46.6244026,28.5802146 45.792632,29.4159945 C44.9249289,30.2823843 44.3899341,31.4495483 44.3899341,32.7524601 C44.3899341,34.0513793 44.9249289,35.2491531 45.792632,36.0875948 C46.6244026,36.9526537 47.8261448,37.4543878 49.123707,37.4543878 C50.4265925,37.4543878 51.593733,36.9526537 52.4640978,36.0875948 C53.2958684,35.2491531 53.8268707,34.0513793 53.8268707,32.7524601 C53.8268707,31.4495483 53.2958684,30.2823843 52.4640978,29.4159945 Z M42.5906479,31.8168656 C42.7916037,30.3808679 43.4543585,29.0819487 44.4551449,28.082473 C45.2922388,27.2480239 46.3941685,26.6118729 47.5919182,26.3470318 C47.2246083,23.4457574 46.6563426,20.6442975 45.8232412,17.9772544 L34.1505051,17.9772544 L34.1505051,31.8168656 L42.5906479,31.8168656 Z M47.6584599,39.1884981 C46.4247777,38.9196645 45.3255096,38.2861752 44.4551449,37.4224472 C43.5887726,36.5520648 42.9552961,35.4168414 42.6545279,34.1511937 L34.1505051,34.1511937 L34.1505051,47.9601952 L45.8551812,47.9601952 C46.6896135,45.1560736 47.2924808,42.2241894 47.6584599,39.1884981 Z M55.5609461,34.1511937 C55.2934487,35.4168414 54.6599722,36.5520648 53.7935999,37.4224472 L53.7603291,37.4224472 C52.7608735,38.4498709 51.3967697,39.1192934 49.8915976,39.3189224 C49.5588894,42.2867398 48.9932853,45.1866833 48.1934547,47.9601952 L59.6612425,47.9601952 L59.6612425,48.0906195 C62.0327869,43.955638 63.4328232,39.2204388 63.6351098,34.1511937 L55.5609461,34.1511937 Z M49.8569959,26.2139458 C51.3967697,26.3816341 52.7608735,27.0483949 53.7935999,28.082473 C54.7624463,29.0819487 55.4318553,30.3808679 55.6607586,31.8168656 L63.6351098,31.8168656 C63.4328232,26.8115019 62.0647269,22.1135667 59.7277842,17.9772544 L48.1934547,17.9772544 C48.9586837,20.6096951 49.4910169,23.3792144 49.8569959,26.2139458 Z M21.5781259,45.2918213 C20.7117537,44.4547104 19.5432823,43.9210357 18.2430585,43.9210357 C16.9428347,43.9210357 15.7410925,44.4547104 14.9093219,45.2918213 C14.0416188,46.1568801 13.5412256,47.3240442 13.5412256,48.6256251 C13.5412256,49.9232134 14.0416188,51.1263107 14.9093219,51.9607598 C15.7743633,52.8271495 16.9428347,53.3621552 18.2430585,53.3621552 C19.5432823,53.3621552 20.7117537,52.8271495 21.5781259,51.9607598 C22.4112274,51.1263107 22.9462222,49.9232134 22.9462222,48.6256251 C22.9462222,47.3240442 22.4112274,46.1568801 21.5781259,45.2918213 Z M11.6740669,47.9601952 C11.840421,46.424383 12.54177,45.0229876 13.5744964,43.9889095 L13.5744964,43.955638 C14.2079729,43.3540894 14.9745327,42.8244072 15.8102958,42.4916922 C15.3418426,39.7860542 15.0410743,37.0191966 15.0078035,34.1511937 L2.33561188,34.1511937 C2.53523683,39.1512341 3.90333313,43.8584852 6.20567419,47.9601952 L11.6740669,47.9601952 Z M19.6776964,55.0643249 C19.2105741,55.1641394 18.7434517,55.2280206 18.2430585,55.2280206 C16.4091706,55.2280206 14.7749077,54.4960477 13.5744964,53.2942813 C12.741395,52.4598322 12.1411893,51.3924827 11.840421,50.2253186 L7.60437965,50.2253186 C8.70497853,51.8290047 9.9386607,53.3288837 11.306757,54.693015 C14.7429678,58.129295 18.9763475,60.7284643 23.7473837,62.231005 C22.2116024,60.0297629 20.8461678,57.6302226 19.6776964,55.0643249 Z M24.6470268,50.2253186 C24.3462585,51.3924827 23.7473837,52.4598322 22.9116206,53.2942813 C22.5456415,53.6615986 22.1783316,53.962373 21.7458109,54.2245523 C23.2469905,57.4612034 25.0795475,60.4662849 27.1822636,63.0987256 C28.6821124,63.4008308 30.2498336,63.5645265 31.8162241,63.6297387 L31.8162241,50.2253186 L24.6470268,50.2253186 Z M18.2430585,42.019237 C20.0769463,42.019237 21.7125401,42.7911357 22.9116206,43.955638 C23.9470087,45.0229876 24.6470268,46.3937732 24.8133809,47.9601952 L31.8162241,47.9601952 L31.8162241,34.1511937 L17.2436029,34.1511937 C17.3101446,36.8528392 17.577642,39.4852799 18.0101627,42.0525085 C18.0753735,42.0525085 18.1765168,42.019237 18.2430585,42.019237 Z M0,32.9840297 C0,51.2261252 14.7749077,66 32.9846954,66 C51.2277539,66 66,51.2261252 66,32.9840297 C66,14.7738748 51.2277539,0 32.9846954,0 C14.7749077,0 0,14.7738748 0,32.9840297 Z" id="Fill-1" fill="#333C4E"></path>
                <circle id="Oval" stroke="#00D2FF" stroke-width="1.5" fill="#FAFAFA" fill-rule="nonzero" cx="19" cy="17" r="6.33333333"></circle>
                <circle id="Oval" stroke="#00D2FF" stroke-width="1.5" fill="#F9F9F9" fill-rule="nonzero" cx="49" cy="33" r="6.33333333"></circle>
                <circle id="Oval" stroke="#00D2FF" stroke-width="1.5" fill="#F8F8F8" fill-rule="nonzero" cx="18.3333333" cy="48.3333333" r="6.33333333"></circle>
                <mask id="mask-2" fill="white">
                    <use xlink:href="#path-1"></use>
                </mask>
                <use id="Mask" stroke="#00D2FF" stroke-width="1.3" xlink:href="#path-1"></use>
                <mask id="mask-4" fill="white">
                    <use xlink:href="#path-3"></use>
                </mask>
                <use id="Mask" stroke="#00D2FF" stroke-width="1.3" xlink:href="#path-3"></use>
                <mask id="mask-6" fill="white">
                    <use xlink:href="#path-5"></use>
                </mask>
                <use id="Mask" stroke="#00D2FF" stroke-width="1.3" xlink:href="#path-5"></use>
                <mask id="mask-8" fill="white">
                    <use xlink:href="#path-7"></use>
                </mask>
                <use id="Mask" stroke="#00D2FF" stroke-width="1.3" xlink:href="#path-7"></use>
            </g>
        </g>
    </g>
</svg>