<?xml version="1.0" encoding="UTF-8"?>
<svg width="39px" height="65px" viewBox="0 0 39 65" version="1.1" xmlns="http://www.w3.org/2000/svg" xmlns:xlink="http://www.w3.org/1999/xlink">
    <!-- Generator: Sketch 52.4 (67378) - http://www.bohemiancoding.com/sketch -->
    <title>build-03</title>
    <desc>Created with Sketch.</desc>
    <g id="Home" stroke="none" stroke-width="1" fill="none" fill-rule="evenodd">
        <g id="Home-" transform="translate(-896.000000, -4109.000000)">
            <g id="build-03" transform="translate(896.000000, 4109.000000)">
                <path d="M6.62671058,43.1491739 L18.099182,59.0702781 L18.099182,49.8747894 L6.62671058,43.1491739 Z M19.5497668,65 C19.0907343,65 18.6478761,64.782946 18.3702766,64.3977517 L0.271106266,39.2802853 C-0.127975966,38.7264265 -0.0822661068,37.9707119 0.380546218,37.4682124 C0.843446446,36.9657128 1.59695589,36.853823 2.18749211,37.2000612 L20.2865746,47.8104622 C20.7287296,48.0696167 21,48.54172 21,49.0517313 L21,63.5587093 C21,64.1848903 20.5930064,64.7395353 19.9929766,64.9309096 C19.8469688,64.9774648 19.6974448,65 19.5497668,65 Z" id="Fill-4" fill="#333C4E"></path>
                <path d="M20.9008211,49.8747277 L20.9008211,59.0702539 L32.3733048,43.1490848 L20.9008211,49.8747277 Z M19.4502347,65 C19.3024687,65 19.1531203,64.9775521 19.0070244,64.9309093 C18.406994,64.7395342 18,64.184887 18,63.5587034 L18,49.0516663 C18,48.5416529 18.2712707,48.0695477 18.7133383,47.8103921 L36.812528,37.1999479 C37.4028891,36.8539703 38.1565752,36.9655985 38.619388,37.4681001 C39.0822887,37.9706017 39.1279986,38.7263194 38.728828,39.2801805 L20.6297262,64.3977492 C20.3522143,64.7829452 19.9092677,65 19.4502347,65 Z" id="Fill-6" fill="#333C4E"></path>
                <path d="M18.0991747,6.67873989 L5.09125864,28.309186 L18.0991747,22.427962 L18.0991747,6.67873989 Z M1.45081077,33 C1.04548636,33 0.648073295,32.8299288 0.366429528,32.5126621 C-0.0552449887,32.0379058 -0.119590568,31.3438079 0.207763173,30.799545 L18.2932663,0.72580968 C18.3274608,0.666773083 18.3656111,0.610375976 18.4075412,0.556882308 C18.4891159,0.45244648 18.5834367,0.361296085 18.6871632,0.284486921 C18.8922427,0.132452286 19.1388129,0.0332954375 19.4066558,0.00707650164 C19.4989548,-0.00207373101 19.5923965,-0.00242566304 19.686014,0.0064606206 C19.9482311,0.0309198963 20.1902302,0.125325662 20.3932001,0.270761572 C20.4788184,0.332085727 20.5570528,0.402296166 20.6269363,0.479897177 C20.8571563,0.735399828 20.9979782,1.07316659 21,1.44375101 L21,1.44436689 L21,1.44559865 L21,1.44665445 L21,1.44762226 L21,1.44894201 L21,1.44973386 L21,1.45184545 L21,23.3651569 L21,23.3671806 L21,23.3678844 L21,23.3692921 L21,23.370084 L21,23.3718437 L21,23.3732514 L21,23.3736033 C20.9979782,23.7342457 20.8644523,24.063742 20.6451324,24.3165172 C20.5859731,24.384792 20.520309,24.4476999 20.4487553,24.5043609 C20.3479296,24.5840735 20.2362918,24.6507646 20.1165668,24.7017948 L2.04750175,32.8711929 C1.85560776,32.9579441 1.65219837,33 1.45081077,33 Z" id="Fill-8" fill="#333C4E"></path>
                <path d="M20.9008253,22.4279743 L33.9087414,28.3091915 L20.9008253,6.67877049 L20.9008253,22.4279743 Z M37.5491892,33 C37.3478016,33 37.1444801,32.9580322 36.9524982,32.871193 L18.8834332,24.7018044 C18.7637082,24.6507743 18.6520704,24.5840833 18.5512447,24.5043708 C18.479691,24.4477978 18.4140269,24.384802 18.3548676,24.3165273 C18.1355477,24.0637524 18.0020218,23.7342564 18,23.3736145 L18,23.3732626 L18,23.3718549 L18,23.3700952 L18,23.3693033 L18,23.3678956 L18,23.3671918 L18,23.3651681 L18,1.45188213 L18,1.44977054 L18,1.4489787 L18,1.44765895 L18,1.44669114 L18,1.44563535 L18,1.44440359 L18,1.44387569 C18.0020218,1.07320371 18.1428437,0.735437347 18.3730637,0.479934993 C18.4429472,0.402334072 18.5211816,0.332123715 18.6067999,0.270887614 C18.8103851,0.124923976 19.0530875,0.0305183198 19.3162715,0.00632302122 C19.4093616,-0.00247526918 19.5027154,-0.00203535466 19.594487,0.00729083317 C19.8577589,0.0332457898 20.1002854,0.129675053 20.3030795,0.277398348 C20.4112891,0.356055065 20.5093897,0.450284755 20.5938653,0.558679692 C20.63518,0.611557418 20.6728908,0.667426562 20.7067337,0.72584721 L38.7922368,30.7995476 C39.1195906,31.3438098 39.055245,32.0379069 38.6335705,32.5126627 C38.3519267,32.8298411 37.9544257,33 37.5491892,33 Z" id="Fill-10" fill="#333C4E"></path>
                <path d="M4.59796875,31.9173603 L18.0991793,39.9633167 L18.0991793,25.7430387 L4.59796875,31.9173603 Z M19.5000152,43.999143 C19.483486,43.9997143 19.4669485,44 19.4504103,44 C19.2020825,44 18.9536668,43.9355682 18.7305673,43.8064376 C18.6125198,43.7381018 18.5062871,43.6544149 18.4137536,43.5586671 L0.714648892,33.0110087 C0.24779257,32.7327242 -0.0269942615,32.2141556 0.00210184896,31.6664859 C0.0312858631,31.1187272 0.359606022,30.6331754 0.853272959,30.4073084 L18.5587692,22.310276 C18.5924689,22.283689 18.6274853,22.258486 18.6637605,22.234775 C18.9161487,22.069803 19.2084723,21.9907921 19.4999917,22.0008528 C19.791477,21.9907927 20.0838221,22.0697922 20.3362395,22.2348024 C20.3724586,22.2584768 20.4074229,22.2836385 20.4410745,22.3101801 L38.1466391,30.4073803 C38.640394,30.6331586 38.9687141,31.1188 38.9978982,31.6664704 C39.0269943,32.2142297 38.7522074,32.732799 38.2853511,33.0109949 L20.5861672,43.5587138 C20.4936522,43.6544146 20.3874465,43.7380559 20.2694327,43.8063488 C20.0463332,43.9354793 19.7979175,44 19.5495897,44 C19.5330616,44 19.5165343,43.9997143 19.5000152,43.999143 Z M21,25.7883721 L21,39.9042063 L34.4020313,31.9173451 L21,25.7883721 Z" id="Fill-14" fill="#00D2FF"></path>
            </g>
        </g>
    </g>
</svg>