<?xml version="1.0" encoding="UTF-8"?>
<svg width="59px" height="59px" viewBox="0 0 59 59" version="1.1" xmlns="http://www.w3.org/2000/svg" xmlns:xlink="http://www.w3.org/1999/xlink">
    <!-- Generator: Sketch 52.4 (67378) - http://www.bohemiancoding.com/sketch -->
    <title>build-05</title>
    <desc>Created with Sketch.</desc>
    <g id="Home" stroke="none" stroke-width="1" fill="none" fill-rule="evenodd">
        <g id="Home-" transform="translate(-880.000000, -4325.000000)">
            <g id="build-05" transform="translate(880.000000, 4325.000000)">
                <g id="Group-3" transform="translate(20.000000, 0.000000)">
                    <path d="M19.5395407,38.9117611 C14.5563991,38.9117611 9.5726823,37.0147965 5.77886814,33.2210973 C-1.80864513,25.633469 -1.80864513,13.2872655 5.77886814,5.69963717 C8.4317885,3.04671681 11.7645053,1.22809735 15.416815,0.440159292 C18.9713372,-0.326380531 22.6568947,-0.0884690265 26.0757796,1.12789381 C26.646054,1.33083186 27.0727531,1.81183186 27.2058593,2.40269912 C27.3389655,2.99333628 27.1600717,3.61089381 26.7321071,4.0390885 L21.3868062,9.38450442 C20.697231,10.0737345 19.5800363,10.0739646 18.890346,9.38450442 C18.2011159,8.69527434 18.2011159,7.57761947 18.890346,6.88827434 L22.0470451,3.73157522 C17.0700009,2.95065487 11.9012929,4.56967257 8.27521327,8.19586726 C2.06397434,14.4071062 2.06397434,24.5135133 8.27521327,30.7247522 C14.4865673,36.9363363 24.5932044,36.9357611 30.8042133,30.7247522 C34.4306381,27.0983274 36.0491956,21.9285841 35.2686204,16.9529204 L25.7519301,26.4694956 C25.0624699,27.1587257 23.9451602,27.1587257 23.255585,26.4694956 L12.5304699,15.7443805 C11.8412398,15.0551504 11.8412398,13.9374956 12.5304699,13.2480354 C13.2199301,12.5588053 14.3372398,12.5588053 15.026815,13.2480354 L24.503585,22.7250354 L34.9607619,12.2678584 C35.3890717,11.8396637 36.0074345,11.6606549 36.5972664,11.7941062 C37.1879035,11.9272124 37.6689035,12.3537965 37.8720717,12.9243009 C39.0886646,16.3433009 39.326346,20.0289735 38.5596912,23.5832655 C37.7717531,27.2354602 35.9531336,30.568177 33.3004434,33.2210973 C29.5066292,37.0147965 24.5229124,38.9117611 19.5395407,38.9117611" id="Fill-1" fill="#333C4E"></path>
                    <rect id="Rectangle" stroke="#00D2FF" stroke-width="2.5" fill="#FFFFFF" fill-rule="nonzero" transform="translate(28.480399, 10.659116) rotate(48.000000) translate(-28.480399, -10.659116) " x="23.7303991" y="4.90911617" width="9.5" height="11.5" rx="4.75"></rect>
                    <path d="M16.5,12 C16.4022,12 16.3032,11.9895025 16.20765,11.9701571 C16.1115,11.9508117 16.01715,11.9220185 15.927,11.8845274 C15.8355,11.8470363 15.7482,11.8008473 15.66735,11.7464102 C15.5847,11.692423 15.50865,11.6297379 15.4395,11.5606044 C15.37035,11.4914708 15.30765,11.4154388 15.252,11.3328085 C15.1992,11.2519777 15.153,11.1646984 15.1155,11.0732201 C15.078,10.9830915 15.048,10.8887639 15.02985,10.7926367 C15.0105,10.6966595 15,10.5975331 15,10.5003562 C15,10.4031792 15.0105,10.3040528 15.02985,10.206276 C15.048,10.1119484 15.078,10.0176208 15.1155,9.92629251 C15.153,9.83601395 15.1992,9.74873468 15.252,9.66790387 C15.30765,9.5852735 15.37035,9.50924156 15.4395,9.44010797 C15.50865,9.37097439 15.5847,9.30828928 15.66735,9.2526525 C15.7482,9.19866532 15.8355,9.15247629 15.927,9.11498519 C16.01715,9.0774941 16.1115,9.04870093 16.20765,9.02935553 C16.401,8.99021482 16.599,8.99021482 16.79235,9.02935553 C16.8885,9.04870093 16.98285,9.0774941 17.073,9.11498519 C17.1645,9.15247629 17.2512,9.19866532 17.33265,9.2526525 C17.4147,9.30828928 17.49135,9.37097439 17.5605,9.44010797 C17.62965,9.50924156 17.69235,9.5852735 17.74635,9.66790387 C17.8002,9.74873468 17.847,9.83601395 17.8845,9.92629251 C17.922,10.0176208 17.9502,10.1119484 17.97015,10.206276 C17.9895,10.3040528 18,10.4031792 18,10.5003562 C18,10.5975331 17.9895,10.6966595 17.97015,10.7926367 C17.9502,10.8887639 17.922,10.9830915 17.8845,11.0732201 C17.847,11.1646984 17.8002,11.2519777 17.74635,11.3328085 C17.69235,11.4154388 17.62965,11.4914708 17.5605,11.5606044 C17.49135,11.6297379 17.4147,11.692423 17.33265,11.7464102 C17.2512,11.8008473 17.1645,11.8470363 17.073,11.8845274 C16.98285,11.9220185 16.8885,11.9508117 16.79235,11.9701571 C16.69635,11.9895025 16.5972,12 16.5,12" id="Fill-1" fill="#333C4E"></path>
                </g>
                <g id="Group-6" transform="translate(0.000000, 24.000000)" fill="#333C4E">
                    <path d="M21.9926775,4.85258469 L5.18720521,21.658171 C4.09821498,22.7473893 3.49842671,24.195386 3.49842671,25.7355 C3.49842671,27.275614 4.09821498,28.7236107 5.18720521,29.812829 C6.27619544,30.9020472 7.72419218,31.5018355 9.2645342,31.5018355 C10.8046482,31.5018355 12.252645,30.9020472 13.3418632,29.812829 L30.1473355,13.0073567 C28.423785,12.1077313 26.8506091,10.9507932 25.4500391,9.55010912 C24.049355,8.14942508 22.8921889,6.57636319 21.9926775,4.85258469 M9.2645342,35.0000114 C6.78979479,35.0000114 4.46337785,34.0360863 2.71349186,32.2863143 C0.963605863,30.5366564 -0.000205211726,28.2102394 2.28013029e-05,25.7355 C-0.000205211726,23.2609886 0.963605863,20.9343436 2.71349186,19.1844577 L21.3307557,0.567193811 C21.7550879,0.142861564 22.3669609,-0.0345325733 22.9523844,0.0977149837 C23.5378078,0.229620521 24.0144691,0.652356678 24.2156906,1.21748697 C25.0040456,3.43286156 26.2517329,5.4039202 27.9239805,7.07616775 C29.596228,8.74852932 31.5674007,9.99610261 33.7825472,10.7844577 C34.3476775,10.9855651 34.7705277,11.4624544 34.9022052,12.0477638 C35.0343388,12.6330733 34.8570586,13.2450603 34.4328404,13.6693925 L15.8155765,32.2864283 C14.0656906,34.0363143 11.7391596,35.0000114 9.2645342,35.0000114" id="Fill-4"></path>
                </g>
            </g>
        </g>
    </g>
</svg>