<?xml version="1.0" encoding="UTF-8"?>
<svg width="43px" height="72px" viewBox="0 0 43 72" version="1.1" xmlns="http://www.w3.org/2000/svg" xmlns:xlink="http://www.w3.org/1999/xlink">
    <!-- Generator: Sketch 52.4 (67378) - http://www.bohemiancoding.com/sketch -->
    <title>build-02</title>
    <desc>Created with Sketch.</desc>
    <g id="Home" stroke="none" stroke-width="1" fill="none" fill-rule="evenodd">
        <g id="Home-" transform="translate(-1146.000000, -3885.000000)">
            <g id="build-02" transform="translate(1146.000000, 3885.000000)">
                <path d="M34.5,11 C34.4022,11 34.3032,10.9895025 34.20765,10.9701571 C34.1115,10.9508117 34.01715,10.9220185 33.927,10.8845274 C33.8355,10.8470363 33.7482,10.8008473 33.66735,10.7464102 C33.5847,10.692423 33.50865,10.6297379 33.4395,10.5606044 C33.37035,10.4914708 33.30765,10.4154388 33.252,10.3328085 C33.1992,10.2519777 33.153,10.1646984 33.1155,10.0732201 C33.078,9.98309152 33.048,9.88876392 33.02985,9.79263675 C33.0105,9.69665954 33,9.59753309 33,9.50035617 C33,9.40317924 33.0105,9.30405279 33.02985,9.20627601 C33.048,9.11194841 33.078,9.01762082 33.1155,8.92629251 C33.153,8.83601395 33.1992,8.74873468 33.252,8.66790387 C33.30765,8.5852735 33.37035,8.50924156 33.4395,8.44010797 C33.50865,8.37097439 33.5847,8.30828928 33.66735,8.2526525 C33.7482,8.19866532 33.8355,8.15247629 33.927,8.11498519 C34.01715,8.0774941 34.1115,8.04870093 34.20765,8.02935553 C34.401,7.99021482 34.599,7.99021482 34.79235,8.02935553 C34.8885,8.04870093 34.98285,8.0774941 35.073,8.11498519 C35.1645,8.15247629 35.2512,8.19866532 35.33265,8.2526525 C35.4147,8.30828928 35.49135,8.37097439 35.5605,8.44010797 C35.62965,8.50924156 35.69235,8.5852735 35.74635,8.66790387 C35.8002,8.74873468 35.847,8.83601395 35.8845,8.92629251 C35.922,9.01762082 35.9502,9.11194841 35.97015,9.20627601 C35.9895,9.30405279 36,9.40317924 36,9.50035617 C36,9.59753309 35.9895,9.69665954 35.97015,9.79263675 C35.9502,9.88876392 35.922,9.98309152 35.8845,10.0732201 C35.847,10.1646984 35.8002,10.2519777 35.74635,10.3328085 C35.69235,10.4154388 35.62965,10.4914708 35.5605,10.5606044 C35.49135,10.6297379 35.4147,10.692423 35.33265,10.7464102 C35.2512,10.8008473 35.1645,10.8470363 35.073,10.8845274 C34.98285,10.9220185 34.8885,10.9508117 34.79235,10.9701571 C34.69635,10.9895025 34.5972,11 34.5,11" id="Fill-1" fill="#333C4E"></path>
                <g id="Group-5" fill="#333C4E">
                    <path d="M40.0961474,66.8242828 C40.0961474,68.1273141 39.0227136,69.1874859 37.7028129,69.1874859 L5.24037583,69.1874859 C3.92118709,69.1874859 2.84775331,68.1273141 2.84775331,66.8242828 L2.84775331,11.8119234 L29.2087467,11.8119234 C29.994707,11.8119234 30.6325877,11.1824859 30.6325877,10.4056734 C30.6325877,9.62956406 29.994707,8.99942344 29.2087467,8.99942344 L2.84775331,8.99942344 L2.84775331,5.17568906 C2.84775331,3.87265781 3.92118709,2.81248594 5.24037583,2.81248594 L37.7028129,2.81248594 C39.0227136,2.81248594 40.0961474,3.87265781 40.0961474,5.17568906 L40.0961474,55.9687359 L10.793356,55.9687359 C10.0069685,55.9687359 9.3695149,56.5981734 9.3695149,57.3749859 C9.3695149,58.1516578 10.0069685,58.7812359 10.793356,58.7812359 L40.0961474,58.7812359 L40.0961474,66.8242828 Z M5.24037583,-1.40625e-05 C2.35097517,-1.40625e-05 7.1192053e-05,2.32198594 7.1192053e-05,5.17568906 L7.1192053e-05,66.8242828 C7.1192053e-05,69.6779859 2.35097517,71.9999859 5.24037583,71.9999859 L37.7028129,71.9999859 C40.5927831,71.9999859 42.9438295,69.6779859 42.9438295,66.8242828 L42.9438295,5.17568906 C42.9438295,2.32198594 40.5927831,-1.40625e-05 37.7028129,-1.40625e-05 L5.24037583,-1.40625e-05 Z" id="Fill-3"></path>
                </g>
                <path d="M21.5,62 C20.6732,62 20,62.6732 20,63.5 C20,64.3274 20.6732,65 21.5,65 C22.3274,65 23,64.3274 23,63.5 C23,62.6732 22.3274,62 21.5,62 M21.5,68 C19.01915,68 17,65.98145 17,63.5 C17,61.01915 19.01915,59 21.5,59 C23.98145,59 26,61.01915 26,63.5 C26,65.98145 23.98145,68 21.5,68" id="Fill-6" fill="#333C4E"></path>
                <path d="M8.79628095,30.2036073 L17.2037191,30.2036073 L17.2037191,21.7963927 L8.79628095,21.7963927 L8.79628095,30.2036073 Z M18.6018595,33 L7.39814047,33 C6.62594749,33 6,32.3740275 6,31.6018037 L6,20.3981963 C6,19.6258327 6.62594749,19 7.39814047,19 L18.6018595,19 C19.3740525,19 20,19.6258327 20,20.3981963 L20,31.6018037 C20,32.3740275 19.3740525,33 18.6018595,33 Z" id="Fill-8" fill="#333C4E"></path>
                <path d="M25.7963927,30.2036073 L34.2036073,30.2036073 L34.2036073,21.7963927 L25.7963927,21.7963927 L25.7963927,30.2036073 Z M35.6018037,33 L24.3981963,33 C23.6258327,33 23,32.3740275 23,31.6018037 L23,20.3981963 C23,19.6258327 23.6258327,19 24.3981963,19 L35.6018037,19 C36.3740275,19 37,19.6258327 37,20.3981963 L37,31.6018037 C37,32.3740275 36.3740275,33 35.6018037,33 Z" id="Fill-10" fill="#333C4E"></path>
                <path d="M8.79628095,46.2037191 L17.2037191,46.2037191 L17.2037191,37.7962809 L8.79628095,37.7962809 L8.79628095,46.2037191 Z M18.6018595,49 L7.39814047,49 C6.62594749,49 6,48.3740525 6,47.6018595 L6,36.3981405 C6,35.6259475 6.62594749,35 7.39814047,35 L18.6018595,35 C19.3740525,35 20,35.6259475 20,36.3981405 L20,47.6018595 C20,48.3740525 19.3740525,49 18.6018595,49 Z" id="Fill-11" fill="#333C4E"></path>
                <path d="M35.6018037,49 L24.3981963,49 C23.6259725,49 23,48.3740463 23,47.6018456 L23,36.3980146 C23,35.6258139 23.6259725,35 24.3981963,35 L35.6018037,35 C36.3740275,35 37,35.6258139 37,36.3980146 L37,42 C37,42.7722007 36.3740275,43.3981544 35.6018037,43.3981544 C34.8295798,43.3981544 34.2036073,42.7722007 34.2036073,42 L34.2036073,37.7961691 L25.7963927,37.7961691 L25.7963927,46.2036911 L35.6018037,46.2036911 C36.3740275,46.2036911 37,46.8296449 37,47.6018456 C37,48.3740463 36.3740275,49 35.6018037,49" id="Fill-12" fill="#00D2FF"></path>
            </g>
        </g>
    </g>
</svg>