<?xml version="1.0" encoding="UTF-8"?>
<svg width="79px" height="61px" viewBox="0 0 79 61" version="1.1" xmlns="http://www.w3.org/2000/svg" xmlns:xlink="http://www.w3.org/1999/xlink">
    <!-- Generator: Sketch 52.4 (67378) - http://www.bohemiancoding.com/sketch -->
    <title>build-01</title>
    <desc>Created with Sketch.</desc>
    <defs>
        <polygon id="path-1" points="0 0 78.7096774 0 78.7096774 60.999939 0 60.999939"></polygon>
    </defs>
    <g id="Home" stroke="none" stroke-width="1" fill="none" fill-rule="evenodd">
        <g id="About-ixo" transform="translate(-830.000000, -3298.000000)">
            <g id="build-01" transform="translate(830.000000, 3298.000000)">
                <g id="Group-3">
                    <mask id="mask-2" fill="white">
                        <use xlink:href="#path-1"></use>
                    </mask>
                    <g id="Clip-2"></g>
                    <path d="M75.6350806,56.348689 C75.6350806,57.2315115 74.9108594,57.949939 74.0209173,57.949939 L4.68876008,57.949939 C3.79881804,57.949939 3.07459677,57.2315115 3.07459677,56.348689 L3.07459677,4.651189 C3.07459677,3.7683665 3.79881804,3.049939 4.68876008,3.049939 L74.0209173,3.049939 C74.9108594,3.049939 75.6350806,3.7683665 75.6350806,4.651189 L75.6350806,56.348689 Z M74.0209173,-6.1e-05 L4.68876008,-6.1e-05 C2.10363911,-6.1e-05 0,2.086749 0,4.651189 L0,56.348689 C0,58.913129 2.10363911,60.999939 4.68876008,60.999939 L74.0209173,60.999939 C76.6060383,60.999939 78.7096774,58.913129 78.7096774,56.348689 L78.7096774,4.651189 C78.7096774,2.086749 76.6060383,-6.1e-05 74.0209173,-6.1e-05 Z" id="Fill-1" fill="#333C4E" mask="url(#mask-2)"></path>
                </g>
                <path d="M71.2760557,15.7419355 L8.41749268,15.7419355 C7.57210198,15.7419355 6.88709677,16.4195955 6.88709677,17.2555831 L6.88709677,53.5831266 C6.88709677,54.4191141 7.57210198,55.0967742 8.41749268,55.0967742 L26.6345603,55.0967742 C27.479798,55.0967742 28.1649562,54.4191141 28.1649562,53.5831266 C28.1649562,52.7469876 27.479798,52.0694789 26.6345603,52.0694789 L9.94788858,52.0694789 L9.94788858,18.7692308 L69.7456598,18.7692308 L69.7456598,52.0694789 L38.9285367,52.0694789 C38.083146,52.0694789 37.3981408,52.7469876 37.3981408,53.5831266 C37.3981408,54.4191141 38.083146,55.0967742 38.9285367,55.0967742 L71.2760557,55.0967742 C72.1212934,55.0967742 72.8064516,54.4191141 72.8064516,53.5831266 L72.8064516,17.2555831 C72.8064516,16.4200496 72.1212934,15.7419355 71.2760557,15.7419355" id="Fill-4" fill="#333C4E"></path>
                <path d="M30.0540729,10.8225806 L69.3168949,10.8225806 C70.1573932,10.8225806 70.8387097,10.1618621 70.8387097,9.34677419 C70.8387097,8.53168629 70.1573932,7.87096774 69.3168949,7.87096774 L30.0540729,7.87096774 C29.2135746,7.87096774 28.5322581,8.53168629 28.5322581,9.34677419 C28.5322581,10.1618621 29.2135746,10.8225806 30.0540729,10.8225806" id="Fill-6" fill="#333C4E"></path>
                <path d="M9.34677419,10.8225806 C9.44299677,10.8225806 9.5404,10.8138706 9.63617984,10.7949741 C9.73077903,10.77593 9.82242661,10.7475853 9.91230323,10.7106781 C10.0011468,10.673771 10.0864484,10.6283014 10.1659944,10.5745646 C10.2473113,10.5203849 10.322725,10.4580856 10.3901694,10.3900288 C10.6662927,10.1155872 10.8225806,9.7361816 10.8225806,9.3462944 C10.8225806,9.25063105 10.8138734,9.15304853 10.7949831,9.05856621 C10.7759452,8.96393626 10.7476097,8.87107786 10.7107145,8.78294357 C10.6738194,8.69407114 10.6283645,8.60697025 10.5746452,8.52739842 C10.5204831,8.44723608 10.459975,8.37061682 10.3901694,8.30315054 C10.322725,8.23509374 10.2473113,8.17279446 10.1659944,8.11964816 C10.0864484,8.06664948 10.0011468,8.02103224 9.91230323,7.98412508 C9.82242661,7.94721793 9.73077903,7.91902086 9.63617984,7.89997677 C9.44594839,7.86129807 9.24996129,7.86129807 9.05913952,7.89997677 C8.96454032,7.91902086 8.8717121,7.94721793 8.78360645,7.98412508 C8.6947629,8.02103224 8.60769032,8.06664948 8.52814435,8.11964816 C8.44682742,8.17279446 8.37141371,8.23509374 8.30396935,8.30315054 C8.23593468,8.37061682 8.17365565,8.44723608 8.12052661,8.52739842 C8.06754516,8.60697025 8.02194274,8.69407114 7.98504758,8.78294357 C7.94815242,8.87107786 7.91996452,8.96393626 7.90092661,9.05856621 C7.88129839,9.15304853 7.87096774,9.25063105 7.87096774,9.3462944 C7.87096774,9.7361816 8.02887903,10.1155872 8.30396935,10.3900288 C8.57832177,10.6662419 8.95878468,10.8225806 9.34677419,10.8225806" id="Fill-8" fill="#333C4E"></path>
                <path d="M13.8882734,9.91181631 C13.9251685,10.0007074 13.970771,10.0860546 14.0237524,10.1656431 C14.0767339,10.2470036 14.1390129,10.3224576 14.2070476,10.3899381 C14.4815476,10.6662091 14.8620105,10.8225806 15.25,10.8225806 C15.3474032,10.8225806 15.4436258,10.8138687 15.5394056,10.7948206 C15.6338573,10.7759202 15.7255048,10.7475696 15.815529,10.7106547 C15.904225,10.6737398 15.9895266,10.6282606 16.0690726,10.5745125 C16.1503895,10.5203215 16.2259508,10.459781 16.2933952,10.3899381 C16.3632008,10.3224576 16.4237089,10.2470036 16.477871,10.1656431 C16.5314427,10.0860546 16.5770452,10.0007074 16.6139403,9.91181631 C16.6508355,9.82189163 16.6790234,9.73019502 16.6980613,9.63554523 C16.7170992,9.53971416 16.7258065,9.44344011 16.7258065,9.34598478 C16.7258065,9.25030137 16.7170992,9.15447029 16.6980613,9.05819624 C16.6790234,8.96354645 16.6508355,8.87066857 16.6139403,8.7825158 C16.5770452,8.69362472 16.5314427,8.60768685 16.477871,8.52691705 C16.4237089,8.4467379 16.3632008,8.37010257 16.2933952,8.30262214 C16.2259508,8.23455107 16.1503895,8.17223872 16.0690726,8.11908127 C15.9895266,8.06607148 15.904225,8.02044467 15.815529,7.98352977 C15.7255048,7.94661488 15.6338573,7.91841189 15.5394056,7.89936381 C15.059621,7.80190848 14.5489919,7.95990424 14.2070476,8.30262214 C14.1390129,8.37010257 14.0767339,8.4467379 14.0237524,8.52691705 C13.970771,8.60768685 13.9251685,8.69362472 13.8882734,8.7825158 C13.8513782,8.87066857 13.8231903,8.96354645 13.8041524,9.05819624 C13.7845242,9.15447029 13.7741935,9.25030137 13.7741935,9.34598478 C13.7741935,9.44344011 13.7845242,9.53971416 13.8041524,9.63554523 C13.8231903,9.73019502 13.8513782,9.82189163 13.8882734,9.91181631" id="Fill-10" fill="#333C4E"></path>
                <path d="M19.7914992,9.91200729 C19.8283944,10.0008797 19.8739968,10.0862091 19.9269782,10.1657809 C19.9799597,10.2471243 20.0422387,10.3225625 20.1102734,10.3900288 C20.1777177,10.4598571 20.253279,10.5203849 20.334596,10.5745646 C20.4141419,10.6283014 20.5012145,10.673771 20.5899105,10.7106781 C20.6781637,10.7475853 20.7709919,10.77593 20.8654435,10.7948265 C20.9600427,10.8138706 21.057446,10.8225806 21.1532258,10.8225806 C21.250629,10.8225806 21.3468516,10.8138706 21.4426315,10.7948265 C21.5370831,10.77593 21.6287306,10.7475853 21.7187548,10.7106781 C21.8074508,10.673771 21.8927524,10.6283014 21.9722984,10.5745646 C22.0536153,10.5203849 22.1291766,10.4598571 22.196621,10.3900288 C22.2646556,10.3225625 22.3269347,10.2471243 22.3810968,10.1657809 C22.4346685,10.0862091 22.480271,10.0008797 22.5171661,9.91200729 C22.5540613,9.82210146 22.5822492,9.73042408 22.6012871,9.63579413 C22.620325,9.53998316 22.6290323,9.44372929 22.6290323,9.3462944 C22.6290323,9.25063105 22.620325,9.15304853 22.6012871,9.05856621 C22.5822492,8.96393626 22.5540613,8.87107786 22.5171661,8.78294357 C22.480271,8.69407114 22.4346685,8.60697025 22.3810968,8.52739842 C22.3269347,8.44605505 22.2646556,8.37061682 22.196621,8.30315054 C22.1291766,8.23509374 22.0536153,8.17279446 21.9722984,8.11964816 C21.8927524,8.06664948 21.8074508,8.02103224 21.7187548,7.98412508 C21.6287306,7.94721793 21.5370831,7.91902086 21.4426315,7.89997677 C21.2522524,7.86129807 21.0562653,7.86129807 20.8654435,7.89997677 C20.7709919,7.91902086 20.6781637,7.94721793 20.5899105,7.98412508 C20.5012145,8.02103224 20.4141419,8.06664948 20.334596,8.11964816 C20.253279,8.17279446 20.1777177,8.23509374 20.1102734,8.30315054 C20.0422387,8.37061682 19.9799597,8.44605505 19.9269782,8.52739842 C19.8739968,8.60697025 19.8283944,8.69407114 19.7914992,8.78294357 C19.754604,8.87107786 19.7264161,8.96393626 19.7073782,9.05856621 C19.68775,9.15304853 19.6774194,9.25063105 19.6774194,9.3462944 C19.6774194,9.44372929 19.68775,9.53998316 19.7073782,9.63579413 C19.7264161,9.73042408 19.754604,9.82210146 19.7914992,9.91200729" id="Fill-12" fill="#333C4E"></path>
                <path d="M27.0575919,26.123071 C26.4829874,25.4722847 25.4738322,25.3964242 24.8029806,25.9533546 L15.3170497,33.8347733 C14.9586014,34.13232 14.7544361,34.5680909 14.7581133,35.0255805 C14.7619504,35.4836907 14.97363,35.9158935 15.3370346,36.2078554 L24.9297645,43.9180063 C25.2277787,44.1573778 25.5892647,44.2741935 25.9485125,44.2741935 C26.4081641,44.2741935 26.8646182,44.0827584 27.1806986,43.712454 C27.7439518,43.0525147 27.6496232,42.0745511 26.9694987,41.52848 L18.8388607,34.9934678 L26.883324,28.3107682 C27.5535361,27.7532172 27.6315569,26.7738574 27.0575919,26.123071" id="Fill-14" fill="#00D2FF"></path>
                <path d="M49.6447059,43.7264717 C49.9364787,44.088504 50.3514837,44.2741935 50.76885,44.2741935 C51.1072592,44.2741935 51.4474393,44.1517506 51.7253392,43.9023471 L60.4817681,36.0275212 C60.8138312,35.7287354 61.0040664,35.2900595 60.999934,34.8294185 C60.9965396,34.3681545 60.7999583,33.9330614 60.4633202,33.639728 L51.6083054,25.9365714 C50.9793042,25.3890053 50.0487898,25.4838752 49.5306238,26.1478088 C49.0123103,26.8115867 49.1015983,27.7931554 49.7305996,28.3408772 L57.2268123,34.8616649 L49.8107374,41.5309108 C49.1904437,42.088291 49.1160615,43.0717291 49.6447059,43.7264717" id="Fill-16" fill="#00D2FF"></path>
                <path d="M43.5434064,25.7973747 C42.8359469,25.3604056 41.9232736,25.6050648 41.5048099,26.3435473 L32.675406,41.929504 C32.2567936,42.6679864 32.4910261,43.6206816 33.1984856,44.0574954 C33.4362896,44.2044463 33.6973085,44.2741935 33.9547559,44.2741935 C34.4634005,44.2741935 34.9592472,44.0011073 35.2372308,43.5108568 L44.0666347,27.9253662 C44.4850984,27.1868837 44.2508659,26.2343438 43.5434064,25.7973747" id="Fill-18" fill="#00D2FF"></path>
                <path d="M33.3379758,53.0564645 C33.3010806,52.966555 33.2554782,52.8806317 33.2019065,52.8010567 C33.148925,52.7197101 33.0872363,52.6447117 33.0192016,52.5766522 C32.9511669,52.5085926 32.876196,52.4468814 32.794879,52.3938806 C32.7153331,52.3401416 32.6294411,52.2946701 32.5395645,52.2577615 C32.450721,52.2208529 32.3578927,52.1914736 32.2634411,52.1736098 C31.7854274,52.0760233 31.2747984,52.23414 30.9322637,52.5766522 C30.864229,52.6447117 30.8025403,52.7197101 30.7495589,52.8010567 C30.6959871,52.8806317 30.6503847,52.966555 30.6134895,53.0564645 C30.5765944,53.1453405 30.5472258,53.238055 30.5293685,53.3326888 C30.5103306,53.4273225 30.5,53.5247613 30.5,53.6204285 C30.5,54.0085598 30.6579113,54.3897523 30.9322637,54.6643526 C31.2067637,54.9388052 31.5878169,55.0967742 31.9758065,55.0967742 C32.0714387,55.0967742 32.1688419,55.0882114 32.2634411,55.068576 C32.3578927,55.0495311 32.450721,55.0201519 32.5395645,54.9832432 C32.6294411,54.9463346 32.7153331,54.9007155 32.794879,54.8471241 C32.876196,54.7941233 32.9511669,54.7324121 33.0192016,54.6643526 C33.0872363,54.596293 33.148925,54.5212947 33.2019065,54.439948 C33.2554782,54.360373 33.3010806,54.2744497 33.3379758,54.1845402 C33.374871,54.0956642 33.4042395,54.0028021 33.4220968,53.9083159 C33.4411347,53.8136822 33.4516129,53.7162434 33.4516129,53.6204285 C33.4516129,53.5247613 33.4411347,53.4273225 33.4220968,53.3326888 C33.4042395,53.238055 33.374871,53.1453405 33.3379758,53.0564645" id="Fill-20" fill="#333C4E"></path>
            </g>
        </g>
    </g>
</svg>