<?xml version="1.0" encoding="UTF-8"?>
<svg width="73px" height="73px" viewBox="0 0 73 73" version="1.1" xmlns="http://www.w3.org/2000/svg" xmlns:xlink="http://www.w3.org/1999/xlink">
    <!-- Generator: Sketch 52.4 (67378) - http://www.bohemiancoding.com/sketch -->
    <title>share-03</title>
    <desc>Created with Sketch.</desc>
    <defs>
        <polygon id="path-1" points="4.25675676e-05 0.128832886 21 0.128832886 21 20.9878933 4.25675676e-05 20.9878933"></polygon>
    </defs>
    <g id="Home" stroke="none" stroke-width="1" fill="none" fill-rule="evenodd">
        <g id="Home-" transform="translate(-339.000000, -4812.000000)">
            <g id="share-03" transform="translate(339.000000, 4812.000000)">
                <path d="M48.5605,13.438 C48.2815,13.159 47.8945,13 47.5,13 C47.1055,13 46.7185,13.159 46.43935,13.438 C46.1605,13.7185 46,14.104 46,14.5 C46,14.8945 46.1605,15.2815 46.43935,15.5605 C46.7185,15.8395 47.1055,16 47.5,16 C47.8945,16 48.2815,15.8395 48.5605,15.5605 C48.83935,15.2815 49,14.8945 49,14.5 C49,14.104 48.83935,13.7185 48.5605,13.438" id="Fill-1" fill="#333C4E"></path>
                <path d="M26.5605,35.439522 C26.2815,35.160508 25.8945,35 25.5,35 C25.1055,35 24.7185,35.160508 24.4395,35.439522 C24.1605,35.7185359 24,36.1055553 24,36.499925 C24,36.8945947 24.1605,37.2814641 24.4395,37.560628 C24.7185,37.839642 25.1055,38 25.5,38 C25.8945,38 26.2815,37.839642 26.5605,37.560628 C26.8395,37.2816141 27,36.8945947 27,36.499925 C27,36.1055553 26.8395,35.7185359 26.5605,35.439522" id="Fill-3" fill="#333C4E"></path>
                <g id="Group-7" transform="translate(52.000000, 0.000000)">
                    <mask id="mask-2" fill="white">
                        <use xlink:href="#path-1"></use>
                    </mask>
                    <g id="Clip-6"></g>
                    <path d="M17.4865155,13.6772154 C16.8685764,12.8911953 15.9730966,12.3234906 14.9270696,12.1280074 C14.9729007,11.8724839 14.9982993,11.6100544 14.9982993,11.3415644 L14.9982993,10.3845846 C14.9982993,7.92067852 12.9803128,5.91623557 10.4997588,5.91623557 C8.01906284,5.91623557 6.00121824,7.92067852 6.00121824,10.3845846 L6.00121824,11.3415644 C6.00121824,11.6099134 6.02633311,11.8724839 6.07244797,12.1280074 C5.02656284,12.3233497 4.131225,12.8910544 3.51328581,13.6766517 C3.08079932,12.7243228 2.83788041,11.669249 2.83788041,10.5583631 C2.83788041,6.36174564 6.2749277,2.94762483 10.5000426,2.94762483 C14.7250155,2.94762483 18.1622047,6.36174564 18.1622047,10.5583631 C18.1622047,11.6695309 17.9192858,12.7247456 17.4865155,13.6772154 Z M8.83905608,11.3417054 L8.83905608,10.3847255 C8.83905608,9.47510134 9.58398851,8.73516846 10.4997588,8.73516846 C11.4155291,8.73516846 12.1604615,9.47510134 12.1604615,10.3847255 L12.1604615,11.3417054 C12.1604615,12.2513295 11.4155291,12.9912624 10.4997588,12.9912624 C9.58398851,12.9912624 8.83905608,12.2511886 8.83905608,11.3417054 Z M15.5481304,16.2767054 C14.1988804,17.4534101 12.4326101,18.1691013 10.5001845,18.1691013 C8.56733311,18.1691013 6.80077905,17.4531282 5.45152905,16.2762826 L5.45152905,16.2697993 C5.45152905,15.5979403 5.93410338,15.0210745 6.59900878,14.8978933 L7.56018446,14.7198866 C8.34924527,15.3982289 9.37668446,15.8101953 10.4997588,15.8101953 C11.6228331,15.8101953 12.6502723,15.3983698 13.4393331,14.7198866 L14.4006507,14.8978933 C15.0655561,15.0210745 15.5481304,15.5980812 15.5481304,16.2697993 L15.5481304,16.2767054 Z M10.5000426,0.128832886 C4.71028581,0.128832886 4.25675676e-05,4.80746376 4.25675676e-05,10.5583631 C4.25675676e-05,16.3092624 4.71028581,20.9878933 10.5000426,20.9878933 C16.2896574,20.9878933 21.0000426,16.3092624 21.0000426,10.5583631 C21.0000426,4.80746376 16.2896574,0.128832886 10.5000426,0.128832886 Z" id="Fill-5" fill="#00D2FF" mask="url(#mask-2)"></path>
                </g>
                <path d="M57.860717,64.5889579 C57.1275135,63.3071989 55.8582764,62.3586228 54.3249544,62.0721171 L53.8808572,61.9892151 C53.9989591,61.5407713 54.0625853,61.0704207 54.0625853,60.5853225 L54.0625853,59.3094339 C54.0625853,56.2706973 51.5938855,53.7989586 48.5596982,53.7989586 C45.5256538,53.7989586 43.056954,56.2708405 43.056954,59.3094339 L43.056954,60.5853225 C43.056954,61.0704207 43.1204373,61.5407713 43.2385391,61.9892151 L42.794442,62.0721171 C41.261406,62.3584797 39.9923118,63.3067694 39.2589653,64.5880988 C38.443262,63.0868429 37.9794336,61.3669492 37.9794336,59.5408149 C37.9794336,53.6984453 42.7258114,48.945399 48.5599841,48.945399 C54.3941569,48.945399 59.1405347,53.6984453 59.1405347,59.5408149 C59.1405347,61.3675219 58.6767063,63.0874156 57.860717,64.5889579 Z M45.9165623,60.5853225 L45.9165623,59.3094339 C45.9165623,57.849987 47.1022988,56.6625845 48.5596982,56.6625845 C50.0172405,56.6625845 51.2029771,57.849987 51.2029771,59.3094339 L51.2029771,60.5853225 C51.2029771,62.0447694 50.0172405,63.2321719 48.5596982,63.2321719 C47.1022988,63.2321719 45.9165623,62.0447694 45.9165623,60.5853225 Z M55.6832683,67.3685364 C53.8019321,69.0871415 51.3012046,70.1363741 48.5601271,70.1363741 C45.8186207,70.1363741 43.3177503,69.0865688 41.436271,67.3678205 L41.436271,67.1566281 C41.436271,66.0453981 42.2279536,65.0910947 43.3187511,64.8873477 L44.8060334,64.609576 C45.7900246,65.5305181 47.1100198,66.095941 48.5598412,66.095941 C50.0098055,66.095941 51.3296577,65.5305181 52.313506,64.609576 L53.8006452,64.8873477 C54.8914428,65.0910947 55.6832683,66.0453981 55.6832683,67.1566281 L55.6832683,67.3685364 Z M48.5599841,46.0819162 C45.3730937,46.0819162 42.4424242,47.199303 40.1361501,49.0622349 L30.4373598,39.4159677 C29.8770195,38.8587061 28.9718105,38.8617129 28.4153308,39.4228404 C27.858851,39.9838248 27.8619966,40.8904487 28.4221938,41.4478535 L38.1119764,51.0851003 C36.2419356,53.3977646 35.1196823,56.3404266 35.1196823,59.5409581 C35.1196823,66.9623311 41.1488804,73 48.5598412,73 C55.9708019,73 62,66.9623311 62,59.5409581 C62,52.1195851 55.9709449,46.0819162 48.5599841,46.0819162 Z" id="Fill-8" fill="#333C4E"></path>
                <g id="Group-12" transform="translate(0.000000, 11.000000)" fill="#333C4E">
                    <path d="M22.3499948,18.5231714 C21.6293935,17.2443143 20.3819719,16.2978857 18.8748641,16.0121714 L18.4385405,15.9294571 C18.5546124,15.4820286 18.6170046,15.0127429 18.6170046,14.5288857 L18.6170046,13.2557429 C18.6170046,10.2241714 16.1908771,7.75774286 13.2088412,7.75774286 C10.2268052,7.75774286 7.80067778,10.2241714 7.80067778,13.2557429 L7.80067778,14.5288857 C7.80067778,15.0127429 7.86306993,15.4820286 7.97914183,15.9294571 L7.54267778,16.0121714 C6.0359915,16.2978857 4.78871046,17.2438857 4.06796863,18.5226 C3.2661451,17.0244571 2.81042941,15.3087429 2.81042941,13.4867429 C2.81042941,7.6576 7.4752268,2.91531429 13.2091222,2.91531429 C18.9430176,2.91531429 23.607815,7.6576 23.607815,13.4867429 C23.607815,15.3090286 23.1518183,17.0250286 22.3499948,18.5231714 Z M10.6111353,14.5288857 L10.6111353,13.2557429 C10.6111353,11.7996 11.7764915,10.6148857 13.2088412,10.6148857 C14.6411908,10.6148857 15.8065471,11.7996 15.8065471,13.2557429 L15.8065471,14.5288857 C15.8065471,15.9850286 14.6411908,17.1697429 13.2088412,17.1697429 C11.7764915,17.1697429 10.6111353,15.9851714 10.6111353,14.5288857 Z M20.2098314,21.2966 C18.3606908,23.0110286 15.9030863,24.0581714 13.2091222,24.0581714 C10.5148771,24.0581714 8.05685098,23.0107429 6.20771046,21.2958857 L6.20771046,21.0850286 C6.20771046,19.9763143 6.98578562,19.0241714 8.05783464,18.8208857 L9.51955359,18.5437429 C10.486632,19.4627429 11.7837987,20.0267429 13.2088412,20.0267429 C14.6338837,20.0267429 15.9310503,19.4626 16.8979882,18.5437429 L18.3597072,18.8208857 C19.4317562,19.0241714 20.2098314,19.9763143 20.2098314,21.0850286 L20.2098314,21.2966 Z M42.9122856,5.1186 C42.7052954,4.35831429 41.9308739,3.9126 41.1830111,4.12345714 L25.4911026,8.54417143 C23.5506222,3.57831429 18.7767791,0.0581714286 13.2091222,0.0581714286 C5.92554052,0.0581714286 -2.81045752e-05,6.08217143 -2.81045752e-05,13.4867429 C-2.81045752e-05,20.8913143 5.92554052,26.9153143 13.2091222,26.9153143 C20.4927039,26.9153143 26.4182725,20.8913143 26.4182725,13.4867429 C26.4182725,12.7413143 26.3572856,12.0101714 26.2417758,11.2974571 L41.9334033,6.87674286 C42.6814065,6.66602857 43.1195569,5.87888571 42.9122856,5.1186 Z" id="Fill-10"></path>
                </g>
            </g>
        </g>
    </g>
</svg>