<?xml version="1.0" encoding="UTF-8"?>
<svg width="77px" height="44px" viewBox="0 0 77 44" version="1.1" xmlns="http://www.w3.org/2000/svg" xmlns:xlink="http://www.w3.org/1999/xlink">
    <!-- Generator: Sketch 52.4 (67378) - http://www.bohemiancoding.com/sketch -->
    <title>verify-03</title>
    <desc>Created with Sketch.</desc>
    <g id="Home" stroke="none" stroke-width="1" fill="none" fill-rule="evenodd">
        <g id="Home-" transform="translate(-596.000000, -5029.000000)">
            <g id="verify-03" transform="translate(596.000000, 5030.000000)">
                <path d="M54.1481481,43 L57.3333333,43 C57.3333333,32.4450926 48.7771296,23.8888889 38.2222222,23.8888889 C27.6673148,23.8888889 19.1111111,32.4450926 19.1111111,43 L22.2962963,43 C22.2962963,34.2184444 29.4406667,27.0740741 38.2222222,27.0740741 C47.0037778,27.0740741 54.1481481,34.2184444 54.1481481,43" id="Fill-5" fill="#00D2FF"></path>
                <path d="M37.0277778,2.87946429 C41.3677063,2.87946429 44.8983135,6.41007143 44.8983135,10.75 C44.8983135,15.0899286 41.3677063,18.6205357 37.0277778,18.6205357 C32.6878492,18.6205357 29.1572421,15.0899286 29.1572421,10.75 C29.1572421,6.41007143 32.6878492,2.87946429 37.0277778,2.87946429 Z M37.0277778,21.5 C42.9648492,21.5 47.7777778,16.6870714 47.7777778,10.75 C47.7777778,4.81292857 42.9648492,0 37.0277778,0 C31.0907063,0 26.2777778,4.81292857 26.2777778,10.75 C26.2777778,16.6870714 31.0907063,21.5 37.0277778,21.5 Z" id="Fill-6" stroke="#00D2FF" stroke-width="0.3" fill="#00D2FF"></path>
                <g id="Group-11" transform="translate(0.000000, 4.000000)" fill="#333C4E">
                    <path d="M3.24307446,39 C3.12525576,38.3373514 3.06022596,37.6567314 3.06022596,36.9608165 C3.06022596,30.5511348 8.27676363,25.3367442 14.6890846,25.3367442 C16.3840673,25.3367442 17.9937461,25.7038202 19.4473534,26.358439 C20.0727871,25.5065168 20.7582777,24.7020087 21.5,23.9521795 C19.4638022,22.8846002 17.1479762,22.2777778 14.6890846,22.2777778 C6.57642558,22.2777778 0,28.8514966 0,36.9608165 C0,37.6529077 0.0516413131,38.3331453 0.144213148,39 L3.24307446,39" id="Fill-7"></path>
                    <path d="M14.3333333,4.19030556 C17.7203796,4.19030556 20.4763611,6.94628704 20.4763611,10.3333333 C20.4763611,13.7203796 17.7203796,16.4763611 14.3333333,16.4763611 C10.946287,16.4763611 8.19030556,13.7203796 8.19030556,10.3333333 C8.19030556,6.94628704 10.946287,4.19030556 14.3333333,4.19030556 Z M14.3333333,19.8888889 C19.610787,19.8888889 23.8888889,15.610787 23.8888889,10.3333333 C23.8888889,5.05587963 19.610787,0.777777778 14.3333333,0.777777778 C9.05587963,0.777777778 4.77777778,5.05587963 4.77777778,10.3333333 C4.77777778,15.610787 9.05587963,19.8888889 14.3333333,19.8888889 Z" id="Fill-8"></path>
                </g>
                <g id="Group-11" transform="translate(64.305556, 23.500000) scale(-1, 1) translate(-64.305556, -23.500000) translate(52.305556, 4.000000)" fill="#333C4E">
                    <path d="M3.24307446,39 C3.12525576,38.3373514 3.06022596,37.6567314 3.06022596,36.9608165 C3.06022596,30.5511348 8.27676363,25.3367442 14.6890846,25.3367442 C16.3840673,25.3367442 17.9937461,25.7038202 19.4473534,26.358439 C20.0727871,25.5065168 20.7582777,24.7020087 21.5,23.9521795 C19.4638022,22.8846002 17.1479762,22.2777778 14.6890846,22.2777778 C6.57642558,22.2777778 0,28.8514966 0,36.9608165 C0,37.6529077 0.0516413131,38.3331453 0.144213148,39 L3.24307446,39" id="Fill-7"></path>
                    <path d="M14.3333333,4.19030556 C17.7203796,4.19030556 20.4763611,6.94628704 20.4763611,10.3333333 C20.4763611,13.7203796 17.7203796,16.4763611 14.3333333,16.4763611 C10.946287,16.4763611 8.19030556,13.7203796 8.19030556,10.3333333 C8.19030556,6.94628704 10.946287,4.19030556 14.3333333,4.19030556 Z M14.3333333,19.8888889 C19.610787,19.8888889 23.8888889,15.610787 23.8888889,10.3333333 C23.8888889,5.05587963 19.610787,0.777777778 14.3333333,0.777777778 C9.05587963,0.777777778 4.77777778,5.05587963 4.77777778,10.3333333 C4.77777778,15.610787 9.05587963,19.8888889 14.3333333,19.8888889 Z" id="Fill-8"></path>
                </g>
            </g>
        </g>
    </g>
</svg>