<?xml version="1.0" encoding="UTF-8"?>
<svg width="51px" height="59px" viewBox="0 0 51 59" version="1.1" xmlns="http://www.w3.org/2000/svg" xmlns:xlink="http://www.w3.org/1999/xlink">
    <!-- Generator: Sketch 52.4 (67378) - http://www.bohemiancoding.com/sketch -->
    <title>share-05</title>
    <desc>Created with Sketch.</desc>
    <defs>
        <polygon id="path-1" points="0 0 51 0 51 58 0 58"></polygon>
    </defs>
    <g id="Home" stroke="none" stroke-width="1" fill="none" fill-rule="evenodd">
        <g id="Home-" transform="translate(-355.000000, -5027.000000)">
            <g id="share-05" transform="translate(355.000000, 5027.000000)">
                <mask id="mask-2" fill="white">
                    <use xlink:href="#path-1"></use>
                </mask>
                <g id="Clip-2"></g>
                <path d="M45.9,47.8046875 C44.9627333,47.8046875 44.2,47.0423047 44.2,46.1054688 C44.2,45.1686328 44.9627333,44.40625 45.9,44.40625 C46.8372667,44.40625 47.6,45.1686328 47.6,46.1054688 C47.6,47.0423047 46.8372667,47.8046875 45.9,47.8046875 M3.4,20.390625 C3.4,17.1192891 5.74010667,14.3142188 8.96398667,13.7211914 C9.02722667,13.70975 9.08831333,13.6933242 9.14906,13.6751992 C10.40502,13.4792227 11.6791133,13.633625 12.84656,14.1270781 C13.7107267,14.4929766 14.7085133,14.0885625 15.07424,13.2238867 C15.4398533,12.3596641 15.0352533,11.3626758 14.1706333,10.9972305 C13.1037133,10.5462578 11.9779733,10.2843516 10.83614,10.2140039 C12.2448733,6.21415625 16.0468667,3.3984375 20.4,3.3984375 C23.1452733,3.3984375 25.7262133,4.48661719 27.6665933,6.46190234 C28.05714,6.85929297 28.6175733,7.04031641 29.1669,6.94651953 C29.5981333,6.87254688 30.10598,6.796875 30.6,6.796875 C33.4948733,6.796875 36.1461933,8.29875781 37.6882067,10.6803828 C37.39864,10.7732734 37.11134,10.8777187 36.8293667,10.9972305 C35.9647467,11.3626758 35.5601467,12.3596641 35.92576,13.2238867 C36.29194,14.0890156 37.2897267,14.4925234 38.15344,14.1270781 C42.6017733,12.2472891 47.6,15.5248555 47.6,20.390625 C47.6,24.1386484 44.5497467,27.1875 40.8,27.1875 L10.2,27.1875 C6.45025333,27.1875 3.4,24.1386484 3.4,20.390625 M25.5,54.6015625 C24.5627333,54.6015625 23.8,53.8391797 23.8,52.9023438 C23.8,51.9655078 24.5627333,51.203125 25.5,51.203125 C26.4372667,51.203125 27.2,51.9655078 27.2,52.9023438 C27.2,53.8391797 26.4372667,54.6015625 25.5,54.6015625 M5.1,47.8046875 C4.16273333,47.8046875 3.4,47.0423047 3.4,46.1054688 C3.4,45.1686328 4.16273333,44.40625 5.1,44.40625 C6.03726667,44.40625 6.8,45.1686328 6.8,46.1054688 C6.8,47.0423047 6.03726667,47.8046875 5.1,47.8046875 M45.9,41.0078125 C43.6837667,41.0078125 41.7942733,42.4286992 41.0921733,44.40625 L37.4,44.40625 L37.4,30.5859375 L40.8,30.5859375 C46.4241667,30.5859375 51,26.012207 51,20.390625 C51,14.8332734 46.56538,10.4501953 41.31,10.2077734 C39.355,6.08807422 35.1970267,3.3984375 30.6,3.3984375 C30.1971,3.3984375 29.8119933,3.42766406 29.4534067,3.46969141 C26.9529333,1.22581641 23.7703067,0 20.4,0 C14.02636,0 8.53502,4.50961328 7.17502,10.6671289 C2.95380667,11.9711094 0,15.8864492 0,20.390625 C0,26.012207 4.57583333,30.5859375 10.2,30.5859375 L13.6,30.5859375 L13.6,44.40625 L9.90782667,44.40625 C9.20572667,42.4286992 7.31623333,41.0078125 5.1,41.0078125 C2.28797333,41.0078125 0,43.2946211 0,46.1054687 C0,48.9163164 2.28797333,51.203125 5.1,51.203125 C7.31623333,51.203125 9.20572667,49.7822383 9.90782667,47.8046875 L15.3,47.8046875 C16.2389667,47.8046875 17,47.0440039 17,46.1054687 L17,30.5859375 L23.8,30.5859375 L23.8,48.0967266 C21.8210867,48.7985039 20.4,50.6871289 20.4,52.9023437 C20.4,55.7131914 22.6879733,58 25.5,58 C28.31214,58 30.6,55.7131914 30.6,52.9023437 C30.6,50.6871289 29.1789133,48.7985039 27.2,48.0967266 L27.2,30.5859375 L34,30.5859375 L34,46.1054687 C34,47.0440039 34.7610333,47.8046875 35.7,47.8046875 L41.0921733,47.8046875 C41.7942733,49.7822383 43.6837667,51.203125 45.9,51.203125 C48.7120267,51.203125 51,48.9163164 51,46.1054687 C51,43.2946211 48.7120267,41.0078125 45.9,41.0078125" id="Fill-1" fill="#333C4E" mask="url(#mask-2)"></path>
                <circle id="Oval" stroke="#00D2FF" stroke-width="3" fill="#FFFFFF" fill-rule="nonzero" cx="26" cy="53" r="4"></circle>
            </g>
        </g>
    </g>
</svg>