<?xml version="1.0" encoding="UTF-8"?>
<svg width="82px" height="59px" viewBox="0 0 82 59" version="1.1" xmlns="http://www.w3.org/2000/svg" xmlns:xlink="http://www.w3.org/1999/xlink">
    <!-- Generator: Sketch 52.4 (67378) - http://www.bohemiancoding.com/sketch -->
    <title>share-04</title>
    <desc>Created with Sketch.</desc>
    <g id="Home" stroke="none" stroke-width="1" fill="none" fill-rule="evenodd">
        <g id="Home-" transform="translate(-592.000000, -4825.000000)">
            <g id="share-04" transform="translate(592.000000, 4825.000000)">
                <path d="M72.4993998,24 C72.4015606,24 72.302521,23.9894971 72.2063325,23.9701418 C72.1101441,23.9507865 72.0157563,23.9219785 71.9261705,23.8844682 C71.8358343,23.8469579 71.7490996,23.8007452 71.6664166,23.7462802 C71.584934,23.6922654 71.5070528,23.6295481 71.4384754,23.5603791 C71.3692977,23.4912101 71.3059724,23.4151392 71.2519508,23.3324664 C71.1980792,23.2515942 71.1518607,23.1642702 71.1143457,23.072745 C71.0768307,22.9825702 71.0480192,22.8881943 71.0286615,22.7920178 C71.0093037,22.6959914 71,22.5974143 71,22.4995874 C71,22.4023606 71.0093037,22.3031834 71.0286615,22.2053565 C71.0480192,22.1109805 71.0768307,22.0166046 71.1143457,21.9252294 C71.1518607,21.8349046 71.1980792,21.7481807 71.2519508,21.6667083 C71.3059724,21.5846358 71.3692977,21.5079647 71.4384754,21.4387957 C71.5070528,21.3696266 71.584934,21.3069094 71.6664166,21.2528945 C71.7490996,21.1990297 71.8358343,21.1522169 71.9261705,21.1147065 C72.0157563,21.0771962 72.1101441,21.047188 72.2063325,21.029033 C72.4003601,20.9903223 72.5996399,20.9903223 72.7930672,21.029033 C72.8892557,21.047188 72.9836435,21.0771962 73.0738295,21.1147065 C73.1641657,21.1522169 73.2509004,21.1984296 73.3317827,21.2528945 C73.4144658,21.3069094 73.4911465,21.3696266 73.5603241,21.4387957 C73.6307023,21.5079647 73.6922269,21.5846358 73.7478992,21.6667083 C73.8019208,21.7481807 73.8481393,21.8349046 73.8856543,21.9252294 C73.9231693,22.0166046 73.9519808,22.1109805 73.9713385,22.2053565 C73.9906963,22.3031834 74,22.4023606 74,22.4995874 C74,22.5974143 73.9906963,22.6959914 73.9713385,22.7920178 C73.9519808,22.8881943 73.9231693,22.9825702 73.8856543,23.072745 C73.8481393,23.1642702 73.8019208,23.2515942 73.7478992,23.3324664 C73.6922269,23.4151392 73.6307023,23.4912101 73.5603241,23.5603791 C73.4911465,23.6295481 73.4144658,23.6922654 73.3317827,23.7462802 C73.2509004,23.8007452 73.1641657,23.8469579 73.0738295,23.8844682 C72.9836435,23.9219785 72.8892557,23.9507865 72.7930672,23.9701418 C72.6958283,23.9894971 72.5966387,24 72.4993998,24" id="Fill-1" fill="#00D2FF"></path>
                <path d="M32.5,52 C32.4028,52 32.3032,51.9911471 32.20585,51.9719409 C32.1115,51.9519844 32.01715,51.9237752 31.9258,51.886263 C31.8355,51.8487508 31.7482,51.8019356 31.66735,51.7479181 C31.5847,51.6928502 31.50865,51.6313302 31.4395,51.5621577 C31.36915,51.4917848 31.30765,51.4151099 31.252,51.332433 C31.198,51.2515568 31.1518,51.1642284 31.1143,51.0744992 C31.0768,50.9831195 31.048,50.8881386 31.02865,50.793758 C31.00885,50.6963763 31,50.5985445 31,50.4995123 C31,50.4022807 31.0093,50.3030985 31.02865,50.2070673 C31.048,50.110886 31.0768,50.0165054 31.1143,49.9263261 C31.1518,49.8365969 31.198,49.7480681 31.252,49.6671918 C31.30765,49.5863156 31.36915,49.50784 31.4395,49.4386676 C31.50865,49.3694951 31.5847,49.3067747 31.66735,49.2527571 C31.7482,49.1988896 31.8355,49.1525246 31.9258,49.1150124 C32.01715,49.0775002 32.1115,49.0488409 32.20585,49.0294846 C32.3992,48.9901718 32.599,48.9901718 32.79235,49.0294846 C32.8885,49.0488409 32.98285,49.0775002 33.073,49.1150124 C33.1645,49.1525246 33.2512,49.1988896 33.33265,49.2527571 C33.4147,49.3067747 33.49135,49.3700953 33.5605,49.4386676 C33.62965,49.50784 33.69235,49.584515 33.74635,49.6671918 C33.8002,49.7480681 33.847,49.8365969 33.8845,49.9263261 C33.922,50.0165054 33.9502,50.110886 33.97015,50.2070673 C33.9895,50.3030985 34,50.4022807 34,50.4995123 C34,50.5985445 33.9895,50.6963763 33.97015,50.793758 C33.9502,50.8881386 33.922,50.9831195 33.8845,51.0744992 C33.847,51.1642284 33.8002,51.2515568 33.74635,51.332433 C33.69235,51.4151099 33.62965,51.4917848 33.5605,51.5621577 C33.49135,51.6313302 33.4147,51.6928502 33.33265,51.7479181 C33.2512,51.8019356 33.1645,51.8487508 33.073,51.886263 C32.98285,51.9237752 32.8885,51.9519844 32.79235,51.9719409 C32.69635,51.9911471 32.5972,52 32.5,52" id="Fill-3" fill="#333C4E"></path>
                <path d="M42.6015625,55.7741671 L78.796875,55.7741671 L78.796875,45.0564985 L42.6015625,45.0564985 L42.6015625,55.7741671 Z M3.203125,52.027846 L25.9446719,52.027846 C26.8287344,52.027846 27.5462344,51.3059046 27.5462344,50.4149296 C27.5462344,49.5241158 26.8287344,48.8020131 25.9446719,48.8020131 L3.203125,48.8020131 L3.203125,45.0563373 L39.3984375,45.0563373 L39.3984375,55.7741671 L3.203125,55.7741671 L3.203125,52.027846 Z M3.203125,13.9435015 L19.6992187,13.9435015 L19.6992187,3.22583291 L3.203125,3.22583291 L3.203125,13.9435015 Z M22.9023437,13.9435015 L59.0976562,13.9435015 L59.0976562,3.22583291 L22.9023437,3.22583291 L22.9023437,13.9435015 Z M78.796875,27.8871642 L42.6015625,27.8871642 L42.6015625,24.3047155 L65.4113359,24.3047155 C66.2958789,24.3047155 67.0128984,23.5826128 67.0128984,22.691799 C67.0128984,21.800824 66.2958789,21.0788825 65.4113359,21.0788825 L42.6015625,21.0788825 L42.6015625,17.1693344 L78.796875,17.1693344 L78.796875,27.8871642 Z M62.3007812,41.8305044 L78.796875,41.8305044 L78.796875,31.1128358 L62.3007812,31.1128358 L62.3007812,41.8305044 Z M3.203125,41.8305044 L19.6992187,41.8305044 L19.6992187,31.1128358 L3.203125,31.1128358 L3.203125,41.8305044 Z M3.203125,27.8871642 L39.3984375,27.8871642 L39.3984375,17.1694956 L3.203125,17.1694956 L3.203125,27.8871642 Z M22.9023437,41.8305044 L59.0976562,41.8305044 L59.0976562,31.1128358 L22.9023437,31.1128358 L22.9023437,41.8305044 Z M80.3984375,13.9435015 L62.3007812,13.9435015 L62.3007812,1.61291645 C62.3007812,0.722102696 61.5837617,0 60.6992187,0 L1.6015625,0 C0.717019531,0 0,0.722102696 0,1.61291645 L0,57.3870835 C0,58.2778973 0.717019531,59 1.6015625,59 L80.3984375,59 C81.2829805,59 82,58.2778973 82,57.3870835 L82,15.5564179 C82,14.6656041 81.2829805,13.9435015 80.3984375,13.9435015 Z" id="Fill-5" fill="#333C4E"></path>
                <path d="M43,22.5 L66,22.5" id="Line-7" stroke="#00D2FF" stroke-width="3.2" stroke-linecap="round" fill-rule="nonzero"></path>
            </g>
        </g>
    </g>
</svg>