<?xml version="1.0" encoding="UTF-8"?>
<svg width="65px" height="65px" viewBox="0 0 65 65" version="1.1" xmlns="http://www.w3.org/2000/svg" xmlns:xlink="http://www.w3.org/1999/xlink">
    <!-- Generator: Sketch 52.4 (67378) - http://www.bohemiancoding.com/sketch -->
    <title>share-02</title>
    <desc>Created with Sketch.</desc>
    <g id="Home" stroke="none" stroke-width="1" fill="none" fill-rule="evenodd">
        <g id="About-ixo" transform="translate(-556.000000, -3998.000000)">
            <g id="share-02" transform="translate(556.000000, 3998.000000)">
                <path d="M32.9315068,25.7695117 C29.4584403,25.7695117 26.6324738,28.5952173 26.6324738,32.0683399 C26.6324738,35.5414625 29.4584403,38.3674746 32.9315068,38.3674746 C36.4045734,38.3674746 39.2305399,35.5414625 39.2305399,32.0683399 C39.2305399,28.5952173 36.4045734,25.7695117 32.9315068,25.7695117 M32.9315068,41.5616438 C27.6970775,41.5616438 23.4383562,37.3031602 23.4383562,32.0683399 C23.4383562,26.8341326 27.6970775,22.5753425 32.9315068,22.5753425 C38.1659362,22.5753425 42.4246575,26.8341326 42.4246575,32.0683399 C42.4246575,37.3031602 38.1659362,41.5616438 32.9315068,41.5616438" id="Fill-1" fill="#00D2FF"></path>
                <path d="M33.9465529,20.1519037 C33.6341752,20.4474305 33.2028754,20.6298236 32.7268555,20.630137 C31.7734908,20.630137 31.0009938,19.8993112 31.0006625,18.9976879 L31,13.6330759 C31,12.7311391 31.7728283,12.0009402 32.7255305,12 C33.6788952,12 34.4513923,12.7308257 34.4517235,13.6324491 L34.4520548,18.9970611 C34.4520548,19.4480295 34.2589305,19.8563768 33.9465529,20.1519037" id="Fill-3" fill="#333C4E"></path>
                <g id="Group-7" transform="translate(25.164384, 0.000000)" fill="#333C4E">
                    <path d="M4.50439126,4.34549941 C2.90111893,5.98149159 2.90111893,8.64417065 4.50439126,10.2804622 C6.10766359,11.9164544 8.71708907,11.9164544 10.3206548,10.2804622 C11.9242206,8.64387123 11.9239272,5.98149159 10.3206548,4.34549941 C8.71708907,2.70950724 6.10795701,2.70920783 4.50439126,4.34549941 M12.4820208,12.4862372 C9.68685756,15.3384446 5.13818852,15.3384446 2.34273181,12.4862372 C-0.452724904,9.63373033 -0.452724904,4.99223131 2.34273181,2.13972446 C5.13848195,-0.7130818 9.68773784,-0.713381213 12.4829011,2.13912564 C15.2780644,4.99133307 15.277771,9.63343092 12.4820208,12.4862372" id="Fill-5"></path>
                </g>
                <path d="M20.3710818,31.7109814 C20.6666086,32.023359 20.8490017,32.4546589 20.8493151,32.9306787 C20.8493151,33.8840434 20.1184893,34.6565405 19.2171793,34.657203 L13.8525674,34.6575342 C12.9506306,34.6575342 12.2201183,33.8847059 12.2191781,32.9320037 C12.2191781,31.978639 12.9500038,31.206142 13.8516272,31.2058107 L19.2162392,31.2054795 C19.6672076,31.2054795 20.0755549,31.3986037 20.3710818,31.7109814" id="Fill-8" fill="#333C4E"></path>
                <g id="Group-12" transform="translate(0.000000, 25.164384)" fill="#333C4E">
                    <path d="M4.34560423,10.0748824 C5.9815964,11.6781547 8.64427546,11.6781547 10.280567,10.0748824 C11.9165592,8.4713166 11.9165592,5.86218454 10.280567,4.25861879 C8.64397605,2.65505304 5.9815964,2.65534646 4.34560423,4.25861879 C2.70961206,5.86218454 2.70931265,8.47102317 4.34560423,10.0748824 M12.4860426,2.09725276 C15.3385494,4.89241605 15.3385494,9.44108509 12.4860426,12.2365418 C9.63383515,15.0319985 4.99233613,15.0319985 2.13982928,12.2365418 C-0.712976982,9.44079167 -0.713276395,4.89153578 2.13893104,2.09637249 C4.99143789,-0.699084223 9.63353574,-0.698790799 12.4860426,2.09725276" id="Fill-10"></path>
                </g>
                <path d="M31.7109814,44.6289182 C32.023359,44.3333914 32.4546589,44.1509983 32.9306787,44.1506849 C33.8840434,44.1506849 34.6565405,44.8811973 34.657203,45.7828207 L34.6575342,51.1474326 C34.6575342,52.0493694 33.8847059,52.7798817 32.9320037,52.7808219 C31.978639,52.7808219 31.206142,52.0499962 31.2058107,51.1483728 L31.2054795,45.7837608 C31.2054795,45.3324791 31.3986037,44.9241317 31.7109814,44.6289182" id="Fill-13" fill="#333C4E"></path>
                <path d="M36.074919,60.2798185 C37.6781913,58.6438263 37.6781913,55.9811473 36.0746256,54.3451551 C34.4713533,52.7091629 31.8619278,52.7091629 30.2586555,54.3451551 C28.6547963,55.9814467 28.6553831,58.6438263 30.2586555,60.2798185 C31.8619278,61.9158107 34.4710598,61.9164095 36.074919,60.2798185 M28.096996,52.1393801 C30.8924527,49.2868733 35.4411218,49.2868733 38.236285,52.1393801 C41.0320352,54.9915876 41.0320352,59.633386 38.236285,62.4855934 C35.4408283,65.3386991 30.8915724,65.3386991 28.0964092,62.4864917 C25.3009524,59.6339848 25.3012459,54.9921864 28.096996,52.1393801" id="Fill-15" fill="#333C4E"></path>
                <path d="M44.6289182,33.2889701 C44.3337048,32.9768938 44.1513117,32.5455525 44.1506849,32.0691557 C44.1506849,31.1156995 44.8815107,30.3431283 45.783134,30.342797 L51.147746,30.3424658 C52.0496828,30.3424658 52.7801951,31.1153682 52.7808219,32.0678306 C52.7808219,33.0212868 52.0503096,33.793858 51.1486862,33.7941893 L45.7840742,33.7945205 C45.3327924,33.7945205 44.9244451,33.6013778 44.6289182,33.2889701" id="Fill-18" fill="#333C4E"></path>
                <path d="M60.3120436,29.3587205 C58.6709229,27.7176208 55.9998969,27.7176208 54.3587763,29.3587205 C52.7173552,30.9998202 52.7173552,33.6711123 54.3587763,35.312212 C56.0001973,36.9539124 58.6709229,36.9533117 60.3120436,35.312212 C61.9531643,33.6711123 61.953765,31.0001205 60.3120436,29.3587205 M52.1460867,37.5248733 C49.2846378,34.663461 49.2846378,30.0074715 52.1460867,27.1460592 C55.0072352,24.2846469 59.6632843,24.2846469 62.5247332,27.1460592 C65.3864825,30.0077718 65.3867828,34.6643621 62.5253339,37.525474 C59.6641854,40.3868863 55.0078359,40.3862856 52.1460867,37.5248733" id="Fill-20" fill="#333C4E"></path>
                <path d="M22.9626548,22.9626333 C22.3283863,23.5969305 21.3007778,23.5969305 20.6665093,22.9626333 L17.8732344,20.1692323 C17.2386542,19.5349352 17.2386542,18.5072803 17.8729227,17.8729831 C18.5075029,17.238686 19.5347997,17.238686 20.1693799,17.8729831 L22.9626548,20.6663841 C23.5969233,21.3006813 23.5969233,22.3283362 22.9626548,22.9626333" id="Fill-22" fill="#333C4E"></path>
                <path d="M13.6860955,13.6863017 C13.1558562,14.2162169 12.8646592,14.9212184 12.8646592,15.6709227 C12.8643487,17.2190698 14.1232014,18.4778901 15.6710779,18.478511 C17.1702146,18.4775797 18.4774966,17.1700209 18.4784279,15.6712331 C18.477807,14.1233964 17.2189544,12.8645761 15.6710779,12.8642656 C14.9210439,12.8645761 14.2163347,13.156076 13.6860955,13.6863017 M19.9427948,19.9428403 C18.8019111,21.0840051 17.2847686,21.7123288 15.6710779,21.7123288 C12.3400079,21.7123288 9.63013745,19.0025279 9.63013745,15.6712331 C9.62951656,14.0575838 10.2578563,12.5404803 11.3990505,11.3993155 C12.5402446,10.2581506 14.0573871,9.62951657 15.6716988,9.63013745 C19.0024583,9.63044788 21.7123288,12.3402487 21.7123288,15.6712331 C21.7123288,17.2848824 21.083989,18.8019859 19.9427948,19.9428403" id="Fill-24" fill="#333C4E"></path>
                <path d="M22.9626333,42.0373667 C23.5969305,42.6716638 23.5969305,43.6993187 22.9626333,44.3333042 L20.1692323,47.1270169 C19.5349352,47.761314 18.5072803,47.761314 17.8729831,47.1270169 C17.238686,46.4927197 17.238686,45.4650648 17.8729831,44.8307677 L20.6663841,42.0373667 C21.3006813,41.4030695 22.3283362,41.4030695 22.9626333,42.0373667" id="Fill-26" fill="#333C4E"></path>
                <path d="M13.6863017,51.3139045 C14.2162169,51.8441438 14.9212184,52.1353408 15.6709227,52.1353408 C17.2190698,52.1353408 18.4778901,50.8767986 18.478511,49.3286117 C18.4775797,47.8297854 17.1700209,46.5225034 15.6712331,46.5215721 C14.1233964,46.5218825 12.8645761,47.7807352 12.8642656,49.3286117 C12.8645761,50.0789561 13.156076,50.7839757 13.6863017,51.3139045 M19.9428403,45.0572052 C21.0840051,46.1980889 21.7123288,47.7149209 21.7123288,49.3286117 C21.7123288,52.6599921 19.0025279,55.3698626 15.6712331,55.3698626 C14.0575838,55.3704834 12.5404803,54.7421437 11.3993155,53.6009495 C10.2581506,52.4597554 9.62951657,50.9426129 9.63013745,49.3283012 C9.63044788,45.9975417 12.3402487,43.2876712 15.6712331,43.2876712 C17.2848824,43.2876712 18.8019859,43.916011 19.9428403,45.0572052" id="Fill-28" fill="#333C4E"></path>
                <path d="M42.0373667,42.0373667 C42.6716638,41.4030695 43.6993187,41.4030695 44.3336159,42.0373667 L47.1270169,44.8307677 C47.761314,45.4650648 47.761314,46.4927197 47.1270169,47.1270169 C46.4927197,47.761314 45.4653765,47.761314 44.8310794,47.1270169 L42.0373667,44.3336159 C41.4030695,43.6993187 41.4030695,42.6716638 42.0373667,42.0373667" id="Fill-30" fill="#333C4E"></path>
                <path d="M51.3141104,51.3136986 C51.8440528,50.7837833 52.1355677,50.0787818 52.1355677,49.3290775 C52.1355677,47.7809303 50.8769933,46.52211 49.3287666,46.5214891 C47.8299019,46.5224204 46.5222759,47.8296688 46.5213446,49.3284566 C46.5219655,50.8766039 47.7808504,52.1351137 49.3287666,52.1357346 C50.0788199,52.1351137 50.7838575,51.8439242 51.3141104,51.3136986 M45.0572505,45.0571597 C46.1981635,43.9159949 47.7150345,43.2876712 49.3287666,43.2876712 C52.6602325,43.2876712 55.369862,45.9977826 55.369862,49.3287671 C55.3707933,50.9424164 54.742127,52.45952 53.6009036,53.6006848 C52.4596802,54.7418497 50.9428092,55.3701733 49.3284562,55.3698629 C45.9976112,55.3695525 43.2876712,52.660062 43.2876712,49.3287671 C43.2876712,47.7151177 43.9157167,46.1980142 45.0572505,45.0571597" id="Fill-32" fill="#333C4E"></path>
                <path d="M42.0373636,22.9626364 C41.4030706,22.3283433 41.4030706,21.3006951 42.0373636,20.666402 L44.8310583,17.873019 C45.4653513,17.238726 46.4929996,17.238726 47.1272927,17.8727073 C47.761274,18.5073121 47.761274,19.5346487 47.126981,20.1692534 L44.333598,22.9626364 C43.6993049,23.5969294 42.6716567,23.5969294 42.0373636,22.9626364" id="Fill-34" fill="#333C4E"></path>
                <path d="M51.3136986,13.6860955 C50.7834729,13.1558562 50.0787818,12.8646592 49.3287671,12.8646592 C47.7806198,12.8643487 46.5217995,14.1232014 46.5214891,15.6713883 C46.52211,17.1702146 47.8296688,18.4774966 49.3284566,18.4784279 C50.8766039,18.477807 52.1351137,17.2189544 52.1354242,15.6713883 C52.1351137,14.9210439 51.8436138,14.2163347 51.3136986,13.6860955 M45.0571597,19.9427948 C43.9159949,18.8019111 43.2876712,17.2847686 43.2876712,15.6713883 C43.2876712,12.3400079 45.9974721,9.63013745 49.3284566,9.63013745 C50.9424164,9.62951656 52.45952,10.2581668 53.6003744,11.3990505 C54.7418497,12.5402446 55.3701733,14.0573871 55.3698629,15.6716988 C55.369242,19.0024583 52.6597516,21.7123288 49.3284566,21.7123288 C47.7148073,21.7123288 46.1980142,21.083989 45.0571597,19.9427948" id="Fill-36" fill="#333C4E"></path>
            </g>
        </g>
    </g>
</svg>