<svg width="100" height="100" viewBox="0 0 100 100" fill="none" xmlns="http://www.w3.org/2000/svg">
<mask id="mask0_2_1019" style="mask-type:alpha" maskUnits="userSpaceOnUse" x="22" y="22" width="55" height="55">
<path d="M22 22H77V77H22V22Z" fill="white"/>
</mask>
<g mask="url(#mask0_2_1019)">
<path fill-rule="evenodd" clip-rule="evenodd" d="M60.8213 49.5C55.7431 50.8935 50.5784 52.2035 49.5 52.2035C48.0095 52.2035 46.7968 50.9908 46.7968 49.5C46.7968 48.0091 48.0095 46.7964 49.5 46.7964C50.5784 46.7964 55.7431 48.1068 60.8213 49.5ZM33.519 67.7596L38.4351 62.8433C39.0646 62.2143 39.0646 61.1943 38.4351 60.5648C35.4798 57.6091 33.8525 53.6794 33.8525 49.5C33.8525 45.3202 35.4798 41.3909 38.4355 38.4351C41.3909 35.4797 45.3206 33.8521 49.5 33.8521C53.6795 33.8521 57.6092 35.4797 60.5649 38.4355L60.5657 38.4364C62.9999 40.871 64.532 43.9665 64.9969 47.3184C60.4735 46.0339 51.5419 43.5737 49.5 43.5737C46.2324 43.5737 43.5742 46.2324 43.5742 49.5C43.5742 52.7675 46.2324 55.4261 49.5 55.4261C51.5419 55.4261 60.473 52.966 64.9969 51.6815C64.532 55.0338 62.9995 58.1297 60.5649 60.5648C59.9355 61.1938 59.9355 62.2143 60.5649 62.8433L65.4812 67.7596C61.2078 71.5042 55.6147 73.7773 49.5 73.7773C43.3854 73.7773 37.7923 71.5042 33.519 67.7596ZM31.2404 33.5193L35.0648 37.3437C32.1938 40.7414 30.6298 45.0004 30.6298 49.5C30.6298 53.9995 32.1938 58.2586 35.0648 61.6563L31.2404 65.4806C27.4958 61.2077 25.2227 55.6146 25.2227 49.5C25.2227 43.3853 27.4958 37.7923 31.2404 33.5193ZM65.4812 31.2404L61.6563 35.0648C58.2587 32.1938 53.9996 30.6294 49.5 30.6294C45.0005 30.6294 40.7414 32.1938 37.3437 35.0648L33.5194 31.2404C37.7923 27.4957 43.3854 25.2227 49.5 25.2227C55.6147 25.2227 61.2078 27.4957 65.4812 31.2404ZM67.7597 65.4806L63.9352 61.6563C66.8063 58.2586 68.3706 53.9995 68.3706 49.5C68.3706 45.0004 66.8063 40.7414 63.9352 37.3437L67.7597 33.5193C71.5043 37.7923 73.7773 43.3853 73.7773 49.5C73.7773 55.6146 71.5043 61.2077 67.7597 65.4806ZM68.9472 68.9437C74.1403 63.7502 77 56.8445 77 49.5C77 42.1555 74.1399 35.2503 68.9468 30.0562C68.9464 30.0558 68.9459 30.0549 68.9455 30.0545L68.9442 30.0533C63.7503 24.8601 56.845 22 49.5 22C42.1546 22 35.2486 24.8605 30.0546 30.0545C24.8605 35.2486 22 42.1546 22 49.5C22 56.8445 24.8601 63.7497 30.0529 68.9437C30.0537 68.9445 30.0537 68.945 30.0546 68.9454L30.0559 68.9467C35.2498 74.1399 42.155 77 49.5 77C56.845 77 63.7503 74.1399 68.9442 68.9467L68.9455 68.9454C68.9464 68.945 68.9464 68.9445 68.9472 68.9437Z" fill="white"/>
</g>
<path fill-rule="evenodd" clip-rule="evenodd" d="M54.2911 60H46.7089C45.765 60 45 60.6715 45 61.5C45 62.3285 45.765 63 46.7089 63H54.2911C55.2345 63 56 62.3285 56 61.5C56 60.6715 55.2345 60 54.2911 60Z" fill="white"/>
</svg>
