<svg width="100" height="100" viewBox="0 0 100 100" fill="none" xmlns="http://www.w3.org/2000/svg">
<path fill-rule="evenodd" clip-rule="evenodd" d="M42 26.9464C46.4409 26.9464 50.0536 30.5591 50.0536 35C50.0536 39.4409 46.4409 43.0536 42 43.0536C37.5591 43.0536 33.9464 39.4409 33.9464 35C33.9464 30.5591 37.5591 26.9464 42 26.9464ZM42 46C48.0751 46 53 41.0751 53 35C53 28.9249 48.0751 24 42 24C35.9249 24 31 28.9249 31 35C31 41.0751 35.9249 46 42 46Z" fill="white"/>
<path fill-rule="evenodd" clip-rule="evenodd" d="M52.8969 50.4711C52.2236 51.3463 51.6515 52.3034 51.198 53.3249C48.9055 52.0548 46.2833 51.3333 43.5 51.3333C34.5398 51.3333 27.25 58.81 27.25 68H24C24 56.9542 32.7303 48 43.5 48C46.907 48 50.11 48.8961 52.8969 50.4711Z" fill="white"/>
<path d="M62 75C69.732 75 76 68.732 76 61C76 53.268 69.732 47 62 47C54.268 47 48 53.268 48 61C48 68.732 54.268 75 62 75Z" stroke="white" stroke-width="3"/>
<path fill-rule="evenodd" clip-rule="evenodd" d="M62.0274 58.0261L59.0136 55H56V58.0261L59.0136 61.0001L56 64.0261V67H59.0136L62.0274 64.0261L64.9863 67H68V64.0261L64.9863 61.0001L68 58.0261V55H64.9863L62.0274 58.0261Z" fill="white"/>
</svg>
