<svg width="100" height="100" viewBox="0 0 100 100" fill="none" xmlns="http://www.w3.org/2000/svg">
<path d="M47.9998 27.6H29.8767C27.1153 27.6 24.8767 29.8386 24.8767 32.6V36.9999M47.9998 72.6H29.8767C27.1153 72.6 24.8767 70.3614 24.8767 67.6V64.9999" stroke="white" stroke-width="4" stroke-dasharray="5 4"/>
<path d="M83.4769 24H50.2769C49.1723 24 48.2769 24.8954 48.2769 26V74.2C48.2769 75.3046 49.1723 76.2 50.2769 76.2H83.4769C84.5814 76.2 85.4769 75.3046 85.4769 74.2V26C85.4769 24.8954 84.5814 24 83.4769 24Z" stroke="white" stroke-width="2.8"/>
<path d="M54.0036 36.5C53.919 36.42 53.8767 36.3 53.8767 36.22C53.8767 36.14 53.919 36.02 54.0036 35.94L54.5959 35.38C54.7652 35.22 55.019 35.22 55.1882 35.38L55.2306 35.42L57.5575 37.78C57.6421 37.86 57.769 37.86 57.8536 37.78L63.5229 32.22H63.5652C63.7344 32.06 63.9882 32.06 64.1575 32.22L64.7498 32.78C64.919 32.94 64.919 33.18 64.7498 33.34L57.9806 39.98C57.8959 40.06 57.8113 40.1 57.6844 40.1C57.5575 40.1 57.4729 40.06 57.3882 39.98L54.0882 36.62L54.0036 36.5Z" fill="white" stroke="white"/>
<path d="M54.0036 51C53.919 50.92 53.8767 50.8 53.8767 50.72C53.8767 50.64 53.919 50.52 54.0036 50.44L54.5959 49.88C54.7652 49.72 55.019 49.72 55.1882 49.88L55.2306 49.92L57.5575 52.28C57.6421 52.36 57.769 52.36 57.8536 52.28L63.5229 46.72H63.5652C63.7344 46.56 63.9882 46.56 64.1575 46.72L64.7498 47.28C64.919 47.44 64.919 47.68 64.7498 47.84L57.9806 54.48C57.8959 54.56 57.8113 54.6 57.6844 54.6C57.5575 54.6 57.4729 54.56 57.3882 54.48L54.0882 51.12L54.0036 51Z" fill="white" stroke="white"/>
<path d="M54.0036 66C53.919 65.92 53.8767 65.8 53.8767 65.72C53.8767 65.64 53.919 65.52 54.0036 65.44L54.5959 64.88C54.7652 64.72 55.019 64.72 55.1882 64.88L55.2306 64.92L57.5575 67.28C57.6421 67.36 57.769 67.36 57.8536 67.28L63.5229 61.72H63.5652C63.7344 61.56 63.9882 61.56 64.1575 61.72L64.7498 62.28C64.919 62.44 64.919 62.68 64.7498 62.84L57.9806 69.48C57.8959 69.56 57.8113 69.6 57.6844 69.6C57.5575 69.6 57.4729 69.56 57.3882 69.48L54.0882 66.12L54.0036 66Z" fill="white" stroke="white"/>
<path d="M35.4769 37H17.2769C16.1723 37 15.2769 37.8954 15.2769 39V63.2C15.2769 64.3046 16.1723 65.2 17.2769 65.2H35.4769C36.5814 65.2 37.4769 64.3046 37.4769 63.2V39C37.4769 37.8954 36.5814 37 35.4769 37Z" stroke="white" stroke-width="2.8"/>
<path d="M17.7412 39.1894V44.1762H16.7568V40.3241L15.5742 40.7001V39.9242L17.6353 39.1894H17.7412ZM22.7109 41.2504V42.1117C22.7109 42.4854 22.6711 42.8079 22.5913 43.079C22.5116 43.3479 22.3965 43.5689 22.2461 43.7421C22.098 43.913 21.9214 44.0395 21.7163 44.1215C21.5112 44.2035 21.2834 44.2445 21.0327 44.2445C20.8322 44.2445 20.6453 44.2195 20.4722 44.1693C20.299 44.1169 20.1429 44.036 20.0039 43.9267C19.8672 43.8173 19.7487 43.6794 19.6484 43.5131C19.5505 43.3445 19.4753 43.144 19.4229 42.9115C19.3704 42.6791 19.3442 42.4125 19.3442 42.1117V41.2504C19.3442 40.8767 19.3841 40.5565 19.4639 40.2899C19.5459 40.0211 19.661 39.8012 19.8091 39.6303C19.9595 39.4594 20.1372 39.3341 20.3423 39.2543C20.5474 39.1723 20.7752 39.1313 21.0259 39.1313C21.2264 39.1313 21.4121 39.1575 21.583 39.2099C21.7562 39.26 21.9123 39.3386 22.0513 39.4457C22.1903 39.5528 22.3088 39.6907 22.4067 39.8593C22.5047 40.0256 22.5799 40.225 22.6323 40.4574C22.6847 40.6876 22.7109 40.9519 22.7109 41.2504ZM21.7231 42.2416V41.1171C21.7231 40.9371 21.7129 40.7799 21.6924 40.6454C21.6742 40.511 21.6457 40.397 21.6069 40.3036C21.5682 40.2079 21.5203 40.1304 21.4634 40.0712C21.4064 40.012 21.3415 39.9687 21.2686 39.9413C21.1956 39.914 21.1147 39.9003 21.0259 39.9003C20.9142 39.9003 20.8151 39.9219 20.7285 39.9652C20.6442 40.0085 20.5724 40.078 20.5132 40.1737C20.4539 40.2672 20.4084 40.3925 20.3765 40.5497C20.3468 40.7047 20.332 40.8938 20.332 41.1171V42.2416C20.332 42.4216 20.3411 42.58 20.3594 42.7167C20.3799 42.8534 20.4095 42.9708 20.4482 43.0688C20.4893 43.1645 20.5371 43.2431 20.5918 43.3046C20.6488 43.3638 20.7137 43.4071 20.7866 43.4345C20.8618 43.4618 20.9438 43.4755 21.0327 43.4755C21.1421 43.4755 21.2389 43.4538 21.3232 43.4106C21.4098 43.365 21.4827 43.2943 21.542 43.1986C21.6035 43.1007 21.6491 42.9731 21.6787 42.8158C21.7083 42.6586 21.7231 42.4672 21.7231 42.2416ZM25.7803 39.1894V44.1762H24.7959V40.3241L23.6133 40.7001V39.9242L25.6743 39.1894H25.7803ZM30.75 41.2504V42.1117C30.75 42.4854 30.7101 42.8079 30.6304 43.079C30.5506 43.3479 30.4355 43.5689 30.2852 43.7421C30.137 43.913 29.9604 44.0395 29.7554 44.1215C29.5503 44.2035 29.3224 44.2445 29.0718 44.2445C28.8713 44.2445 28.6844 44.2195 28.5112 44.1693C28.3381 44.1169 28.182 44.036 28.043 43.9267C27.9062 43.8173 27.7878 43.6794 27.6875 43.5131C27.5895 43.3445 27.5143 43.144 27.4619 42.9115C27.4095 42.6791 27.3833 42.4125 27.3833 42.1117V41.2504C27.3833 40.8767 27.4232 40.5565 27.5029 40.2899C27.585 40.0211 27.7 39.8012 27.8481 39.6303C27.9985 39.4594 28.1763 39.3341 28.3813 39.2543C28.5864 39.1723 28.8143 39.1313 29.0649 39.1313C29.2655 39.1313 29.4512 39.1575 29.6221 39.2099C29.7952 39.26 29.9513 39.3386 30.0903 39.4457C30.2293 39.5528 30.3478 39.6907 30.4458 39.8593C30.5438 40.0256 30.619 40.225 30.6714 40.4574C30.7238 40.6876 30.75 40.9519 30.75 41.2504ZM29.7622 42.2416V41.1171C29.7622 40.9371 29.752 40.7799 29.7314 40.6454C29.7132 40.511 29.6847 40.397 29.646 40.3036C29.6073 40.2079 29.5594 40.1304 29.5024 40.0712C29.4455 40.012 29.3805 39.9687 29.3076 39.9413C29.2347 39.914 29.1538 39.9003 29.0649 39.9003C28.9533 39.9003 28.8542 39.9219 28.7676 39.9652C28.6833 40.0085 28.6115 40.078 28.5522 40.1737C28.493 40.2672 28.4474 40.3925 28.4155 40.5497C28.3859 40.7047 28.3711 40.8938 28.3711 41.1171V42.2416C28.3711 42.4216 28.3802 42.58 28.3984 42.7167C28.4189 42.8534 28.4486 42.9708 28.4873 43.0688C28.5283 43.1645 28.5762 43.2431 28.6309 43.3046C28.6878 43.3638 28.7528 43.4071 28.8257 43.4345C28.9009 43.4618 28.9829 43.4755 29.0718 43.4755C29.1812 43.4755 29.278 43.4538 29.3623 43.4106C29.4489 43.365 29.5218 43.2943 29.5811 43.1986C29.6426 43.1007 29.6882 42.9731 29.7178 42.8158C29.7474 42.6586 29.7622 42.4672 29.7622 42.2416ZM33.8193 39.1894V44.1762H32.835V40.3241L31.6523 40.7001V39.9242L33.7134 39.1894H33.8193ZM38.7891 41.2504V42.1117C38.7891 42.4854 38.7492 42.8079 38.6694 43.079C38.5897 43.3479 38.4746 43.5689 38.3242 43.7421C38.1761 43.913 37.9995 44.0395 37.7944 44.1215C37.5894 44.2035 37.3615 44.2445 37.1108 44.2445C36.9103 44.2445 36.7235 44.2195 36.5503 44.1693C36.3771 44.1169 36.221 44.036 36.082 43.9267C35.9453 43.8173 35.8268 43.6794 35.7266 43.5131C35.6286 43.3445 35.5534 43.144 35.501 42.9115C35.4486 42.6791 35.4224 42.4125 35.4224 42.1117V41.2504C35.4224 40.8767 35.4622 40.5565 35.542 40.2899C35.624 40.0211 35.7391 39.8012 35.8872 39.6303C36.0376 39.4594 36.2153 39.3341 36.4204 39.2543C36.6255 39.1723 36.8534 39.1313 37.104 39.1313C37.3045 39.1313 37.4902 39.1575 37.6611 39.2099C37.8343 39.26 37.9904 39.3386 38.1294 39.4457C38.2684 39.5528 38.3869 39.6907 38.4849 39.8593C38.5828 40.0256 38.658 40.225 38.7104 40.4574C38.7629 40.6876 38.7891 40.9519 38.7891 41.2504ZM37.8013 42.2416V41.1171C37.8013 40.9371 37.791 40.7799 37.7705 40.6454C37.7523 40.511 37.7238 40.397 37.6851 40.3036C37.6463 40.2079 37.5985 40.1304 37.5415 40.0712C37.4845 40.012 37.4196 39.9687 37.3467 39.9413C37.2738 39.914 37.1929 39.9003 37.104 39.9003C36.9924 39.9003 36.8932 39.9219 36.8066 39.9652C36.7223 40.0085 36.6506 40.078 36.5913 40.1737C36.5321 40.2672 36.4865 40.3925 36.4546 40.5497C36.425 40.7047 36.4102 40.8938 36.4102 41.1171V42.2416C36.4102 42.4216 36.4193 42.58 36.4375 42.7167C36.458 42.8534 36.4876 42.9708 36.5264 43.0688C36.5674 43.1645 36.6152 43.2431 36.6699 43.3046C36.7269 43.3638 36.7918 43.4071 36.8647 43.4345C36.9399 43.4618 37.022 43.4755 37.1108 43.4755C37.2202 43.4755 37.3171 43.4538 37.4014 43.4106C37.488 43.365 37.5609 43.2943 37.6201 43.1986C37.6816 43.1007 37.7272 42.9731 37.7568 42.8158C37.7865 42.6586 37.8013 42.4672 37.8013 42.2416ZM41.8584 39.1894V44.1762H40.874V40.3241L39.6914 40.7001V39.9242L41.7524 39.1894H41.8584ZM46.8281 41.2504V42.1117C46.8281 42.4854 46.7882 42.8079 46.7085 43.079C46.6287 43.3479 46.5137 43.5689 46.3633 43.7421C46.2152 43.913 46.0386 44.0395 45.8335 44.1215C45.6284 44.2035 45.4006 44.2445 45.1499 44.2445C44.9494 44.2445 44.7625 44.2195 44.5894 44.1693C44.4162 44.1169 44.2601 44.036 44.1211 43.9267C43.9844 43.8173 43.8659 43.6794 43.7656 43.5131C43.6676 43.3445 43.5924 43.144 43.54 42.9115C43.4876 42.6791 43.4614 42.4125 43.4614 42.1117V41.2504C43.4614 40.8767 43.5013 40.5565 43.5811 40.2899C43.6631 40.0211 43.7782 39.8012 43.9263 39.6303C44.0767 39.4594 44.2544 39.3341 44.4595 39.2543C44.6646 39.1723 44.8924 39.1313 45.1431 39.1313C45.3436 39.1313 45.5293 39.1575 45.7002 39.2099C45.8734 39.26 46.0295 39.3386 46.1685 39.4457C46.3075 39.5528 46.4259 39.6907 46.5239 39.8593C46.6219 40.0256 46.6971 40.225 46.7495 40.4574C46.8019 40.6876 46.8281 40.9519 46.8281 41.2504ZM45.8403 42.2416V41.1171C45.8403 40.9371 45.8301 40.7799 45.8096 40.6454C45.7913 40.511 45.7629 40.397 45.7241 40.3036C45.6854 40.2079 45.6375 40.1304 45.5806 40.0712C45.5236 40.012 45.4587 39.9687 45.3857 39.9413C45.3128 39.914 45.2319 39.9003 45.1431 39.9003C45.0314 39.9003 44.9323 39.9219 44.8457 39.9652C44.7614 40.0085 44.6896 40.078 44.6304 40.1737C44.5711 40.2672 44.5256 40.3925 44.4937 40.5497C44.464 40.7047 44.4492 40.8938 44.4492 41.1171V42.2416C44.4492 42.4216 44.4583 42.58 44.4766 42.7167C44.4971 42.8534 44.5267 42.9708 44.5654 43.0688C44.6064 43.1645 44.6543 43.2431 44.709 43.3046C44.766 43.3638 44.8309 43.4071 44.9038 43.4345C44.979 43.4618 45.061 43.4755 45.1499 43.4755C45.2593 43.4755 45.3561 43.4538 45.4404 43.4106C45.527 43.365 45.5999 43.2943 45.6592 43.1986C45.7207 43.1007 45.7663 42.9731 45.7959 42.8158C45.8255 42.6586 45.8403 42.4672 45.8403 42.2416ZM49.8975 39.1894V44.1762H48.9131V40.3241L47.7305 40.7001V39.9242L49.7915 39.1894H49.8975Z" fill="white"/>
<path d="M68.8767 33.1H78.8767" stroke="white" stroke-width="2.8" stroke-linecap="square"/>
<path d="M68.8767 39.1H78.8767" stroke="white" stroke-width="2.8" stroke-linecap="square"/>
<path d="M68.8767 47.1H78.8767" stroke="white" stroke-width="2.8" stroke-linecap="square"/>
<path d="M68.8767 53.1H78.8767" stroke="white" stroke-width="2.8" stroke-linecap="square"/>
<path d="M68.8767 62.1H78.8767" stroke="white" stroke-width="2.8" stroke-linecap="square"/>
<path d="M68.8767 68.1H78.8767" stroke="white" stroke-width="2.8" stroke-linecap="square"/>
</svg>
