<svg width="100" height="100" viewBox="0 0 100 100" fill="none" xmlns="http://www.w3.org/2000/svg">
<path fill-rule="evenodd" clip-rule="evenodd" d="M40.5709 62C44.7302 57.8407 54.2685 57.8407 58.4291 62L62 58.4291C57.8394 54.2685 57.8394 44.7315 62 40.5709L58.4291 37C54.2685 41.1606 44.7302 41.1606 40.5709 37L37 40.5709C41.1593 44.7315 41.1593 54.2685 37 58.4291L40.5709 62Z" stroke="white" stroke-width="2.3" stroke-linecap="round" stroke-linejoin="round"/>
<path fill-rule="evenodd" clip-rule="evenodd" d="M51.2677 51.2677C52.2441 50.2913 52.2441 48.7087 51.2677 47.7323C50.2913 46.7559 48.7087 46.7559 47.7323 47.7323C46.7559 48.7087 46.7559 50.2913 47.7323 51.2677C48.7087 52.2441 50.2913 52.2441 51.2677 51.2677Z" stroke="white" stroke-width="2.3" stroke-linecap="round" stroke-linejoin="round"/>
<path fill-rule="evenodd" clip-rule="evenodd" d="M68.828 35.829C70.3906 34.2664 70.3906 31.7346 68.828 30.172C67.2668 28.6093 64.7336 28.6093 63.171 30.172C61.6097 31.7346 61.6097 34.2664 63.171 35.829C64.7336 37.3903 67.2668 37.3903 68.828 35.829Z" stroke="white" stroke-width="2.3" stroke-linecap="round" stroke-linejoin="round"/>
<path d="M63 36L60 39" stroke="white" stroke-width="2.3" stroke-linecap="round" stroke-linejoin="round"/>
<path d="M63.5551 45.7691C67.6413 46.5479 72.0292 45.357 75.1923 42.1938C80.2692 37.1169 80.2692 28.8846 75.1923 23.8077C70.1141 18.7308 61.8832 18.7308 56.8063 23.8077C53.6419 26.9708 52.4523 31.3587 53.231 35.4449" stroke="white" stroke-width="2.3" stroke-linecap="round" stroke-linejoin="round"/>
<path d="M66 24C63.696 24 61.3933 24.8794 59.6357 26.6357C57.8781 28.3933 57 30.696 57 33" stroke="white" stroke-width="2.3" stroke-linecap="round" stroke-linejoin="round"/>
<path d="M66 42C68.304 42 70.6067 41.1219 72.3643 39.3643C74.1206 37.6067 75 35.304 75 33" stroke="white" stroke-width="2.3" stroke-linecap="round" stroke-linejoin="round"/>
<path fill-rule="evenodd" clip-rule="evenodd" d="M30.172 63.171C28.6093 64.7336 28.6093 67.2654 30.172 68.828C31.7332 70.3906 34.2664 70.3906 35.829 68.828C37.3903 67.2654 37.3903 64.7336 35.829 63.171C34.2664 61.6097 31.7332 61.6097 30.172 63.171Z" stroke="white" stroke-width="2.3" stroke-linecap="round" stroke-linejoin="round"/>
<path d="M36 63L39 60" stroke="white" stroke-width="2.3" stroke-linecap="round" stroke-linejoin="round"/>
<path d="M35.4449 53.2309C31.3587 52.4521 26.9708 53.643 23.8077 56.8062C18.7308 61.8831 18.7308 70.1154 23.8077 75.1923C28.8859 80.2692 37.1168 80.2692 42.1937 75.1923C45.3581 72.0292 46.5477 67.6413 45.769 63.5551" stroke="white" stroke-width="2.3" stroke-linecap="round" stroke-linejoin="round"/>
<path d="M33 75C35.304 75 37.6067 74.1206 39.3643 72.3643C41.1219 70.6067 42 68.304 42 66" stroke="white" stroke-width="2.3" stroke-linecap="round" stroke-linejoin="round"/>
<path d="M33 57C30.696 57 28.3933 57.8781 26.6357 59.6357C24.8794 61.3933 24 63.696 24 66" stroke="white" stroke-width="2.3" stroke-linecap="round" stroke-linejoin="round"/>
<path d="M63 63L60 60" stroke="white" stroke-width="2.3" stroke-linecap="round" stroke-linejoin="round"/>
<path fill-rule="evenodd" clip-rule="evenodd" d="M63.171 68.828C64.7336 70.3906 67.2654 70.3906 68.828 68.828C70.3906 67.2668 70.3906 64.7336 68.828 63.171C67.2654 61.6097 64.7336 61.6097 63.171 63.171C61.6097 64.7336 61.6097 67.2668 63.171 68.828Z" stroke="white" stroke-width="2.3" stroke-linecap="round" stroke-linejoin="round"/>
<path d="M53.2309 63.5551C52.4521 67.6413 53.643 72.0292 56.8062 75.1923C61.8831 80.2692 70.1154 80.2692 75.1923 75.1923C80.2692 70.1141 80.2692 61.8832 75.1923 56.8063C72.0292 53.6419 67.6413 52.4523 63.5551 53.231" stroke="white" stroke-width="2.3" stroke-linecap="round" stroke-linejoin="round"/>
<path d="M75 66C75 63.696 74.1206 61.3933 72.3643 59.6357C70.6067 57.8781 68.304 57 66 57" stroke="white" stroke-width="2.3" stroke-linecap="round" stroke-linejoin="round"/>
<path d="M57 66C57 68.304 57.8781 70.6067 59.6357 72.3643C61.3933 74.1206 63.696 75 66 75" stroke="white" stroke-width="2.3" stroke-linecap="round" stroke-linejoin="round"/>
<path fill-rule="evenodd" clip-rule="evenodd" d="M35.829 30.172C34.2664 28.6093 31.7346 28.6093 30.172 30.172C28.6093 31.7332 28.6093 34.2664 30.172 35.829C31.7346 37.3903 34.2664 37.3903 35.829 35.829C37.3903 34.2664 37.3903 31.7332 35.829 30.172Z" stroke="white" stroke-width="2.3" stroke-linecap="round" stroke-linejoin="round"/>
<path d="M36 36L39 39" stroke="white" stroke-width="2.3" stroke-linecap="round" stroke-linejoin="round"/>
<path d="M45.7691 35.4449C46.5479 31.3587 45.357 26.9708 42.1938 23.8077C37.1169 18.7308 28.8846 18.7308 23.8077 23.8077C18.7308 28.8859 18.7308 37.1168 23.8077 42.1937C26.9708 45.3581 31.3587 46.5477 35.4449 45.769" stroke="white" stroke-width="2.3" stroke-linecap="round" stroke-linejoin="round"/>
<path d="M24 33C24 35.304 24.8794 37.6067 26.6357 39.3643C28.3933 41.1219 30.696 42 33 42" stroke="white" stroke-width="2.3" stroke-linecap="round" stroke-linejoin="round"/>
<path d="M42 33C42 30.696 41.1219 28.3933 39.3643 26.6357C37.6067 24.8794 35.304 24 33 24" stroke="white" stroke-width="2.3" stroke-linecap="round" stroke-linejoin="round"/>
</svg>
