<svg width="100" height="100" viewBox="0 0 100 100" fill="none" xmlns="http://www.w3.org/2000/svg">
<path fill-rule="evenodd" clip-rule="evenodd" d="M71.6959 71.693C68.0241 75.3316 63.4248 78.0638 58.3224 79.4985C60.8909 75.8626 62.9883 71.7289 64.4921 67.2253H75.365C74.2644 68.829 73.0321 70.3289 71.6959 71.693ZM75.365 32.7414H64.4921C62.9883 28.2378 60.8909 24.1028 58.3224 20.4682C63.4248 21.9016 68.0241 24.6365 71.6959 28.307C73.0321 29.6724 74.2644 31.1391 75.365 32.7414ZM51.1505 67.2253H62.1232C60.3878 72.1295 57.9191 76.5307 54.9527 80.2651C53.7203 80.466 52.4534 80.5978 51.1505 80.6297V67.2253ZM51.1505 32.7414V19.3343C52.4534 19.4009 53.7203 19.5353 54.9527 19.7336C57.9191 23.4347 60.3545 27.8385 62.09 32.7414H51.1505ZM39.2116 30.8409C38.3439 29.9732 37.1781 29.4395 35.8779 29.4395C34.5776 29.4395 33.4092 29.9732 32.5415 30.8409C31.7097 31.6727 31.1747 32.8758 31.1747 34.1761C31.1747 35.4763 31.7097 36.6435 32.5415 37.5112C33.4092 38.3443 34.5776 38.878 35.8779 38.878C37.1781 38.878 38.3798 38.3443 39.2116 37.5112C40.0793 36.6435 40.581 35.4763 40.581 34.1761C40.581 32.8758 40.0793 31.6727 39.2116 30.8409ZM32.8755 40.0452C32.2753 39.7125 31.7097 39.3119 31.208 38.8434C30.2072 37.8107 29.5058 36.4758 29.3408 34.9773H23.2376C20.9033 39.1136 19.5352 43.8115 19.3356 48.8169H32.0078C32.0757 45.8158 32.3751 42.8799 32.8755 40.0452ZM42.4149 34.9773C42.2472 36.4758 41.5459 37.8107 40.5464 38.8434C39.346 40.0106 37.7118 40.7785 35.8779 40.7785C35.6104 40.7785 35.3109 40.7439 35.0421 40.7119C34.5776 43.347 34.3101 46.0487 34.2436 48.8169H48.8162V34.9773H42.4149ZM38.9454 28.3403C39.5456 28.6384 40.0793 29.0403 40.5464 29.5061C41.4128 30.3738 42.0476 31.4731 42.3151 32.7414H48.8162V19.3343C47.2498 19.4009 45.6821 19.5672 44.1823 19.868C42.1807 22.4033 40.4133 25.2367 38.9454 28.3403ZM35.8779 27.571C36.176 27.571 36.51 27.607 36.7775 27.6389C37.9447 25.1701 39.2462 22.8691 40.7474 20.7357C35.9763 22.2356 31.743 24.8707 28.3068 28.307C26.9387 29.6724 25.705 31.1391 24.6377 32.7414H29.4406C29.7068 31.4731 30.3416 30.3738 31.208 29.5061C32.4097 28.307 34.0759 27.571 35.8779 27.571ZM69.4641 46.416C68.5937 45.5802 67.4266 45.0465 66.1237 45.0465C64.8261 45.0465 63.6244 45.5802 62.7926 46.416C61.9249 47.2824 61.3899 48.4495 61.3899 49.7525C61.3899 51.0514 61.9249 52.2492 62.7926 53.0876C63.6244 53.9527 64.8261 54.4544 66.1237 54.4544C67.4266 54.4544 68.5937 53.9527 69.4641 53.0876C70.2959 52.2492 70.8269 51.0514 70.8269 49.7525C70.8269 48.4495 70.2959 47.2824 69.4641 46.416ZM59.5906 48.8169C59.7916 47.3809 60.4544 46.0819 61.4551 45.0825C62.2922 44.248 63.3942 43.6119 64.5919 43.347C64.2246 40.4458 63.6563 37.6443 62.8232 34.9773H51.1505V48.8169H59.5906ZM64.6585 56.1885C63.4248 55.9197 62.3255 55.2862 61.4551 54.4224C60.5888 53.5521 59.9553 52.4168 59.6545 51.1512H51.1505V64.9602H62.8552C63.6896 62.1561 64.2925 59.2242 64.6585 56.1885ZM72.5609 51.1512C72.2935 52.4168 71.66 53.5521 70.7936 54.4224H70.7603C69.7609 55.4499 68.3968 56.1193 66.8916 56.3189C66.5589 59.2867 65.9933 62.1867 65.1935 64.9602H76.6612V65.0906C79.0328 60.9556 80.4328 56.2204 80.6351 51.1512H72.5609ZM66.857 43.2139C68.3968 43.3816 69.7609 44.0484 70.7936 45.0825C71.7624 46.0819 72.4319 47.3809 72.6608 48.8169H80.6351C80.4328 43.8115 79.0647 39.1136 76.7278 34.9773H65.1935C65.9587 37.6097 66.491 40.3792 66.857 43.2139ZM38.5781 62.2918C37.7118 61.4547 36.5433 60.921 35.2431 60.921C33.9428 60.921 32.7411 61.4547 31.9093 62.2918C31.0416 63.1569 30.5412 64.324 30.5412 65.6256C30.5412 66.9232 31.0416 68.1263 31.9093 68.9608C32.7744 69.8271 33.9428 70.3622 35.2431 70.3622C36.5433 70.3622 37.7118 69.8271 38.5781 68.9608C39.4112 68.1263 39.9462 66.9232 39.9462 65.6256C39.9462 64.324 39.4112 63.1569 38.5781 62.2918ZM28.6741 64.9602C28.8404 63.4244 29.5418 62.023 30.5745 60.9889V60.9556C31.208 60.3541 31.9745 59.8244 32.8103 59.4917C32.3418 56.7861 32.0411 54.0192 32.0078 51.1512H19.3356C19.5352 56.1512 20.9033 60.8585 23.2057 64.9602H28.6741ZM36.6777 72.0643C36.2106 72.1641 35.7435 72.228 35.2431 72.228C33.4092 72.228 31.7749 71.496 30.5745 70.2943C29.7414 69.4598 29.1412 68.3925 28.8404 67.2253H24.6044C25.705 68.829 26.9387 70.3289 28.3068 71.693C31.743 75.1293 35.9763 77.7285 40.7474 79.231C39.2116 77.0298 37.8462 74.6302 36.6777 72.0643ZM41.647 67.2253C41.3463 68.3925 40.7474 69.4598 39.9116 70.2943C39.5456 70.6616 39.1783 70.9624 38.7458 71.2246C40.247 74.4612 42.0795 77.4663 44.1823 80.0987C45.6821 80.4008 47.2498 80.5645 48.8162 80.6297V67.2253H41.647ZM35.2431 59.0192C37.0769 59.0192 38.7125 59.7911 39.9116 60.9556C40.947 62.023 41.647 63.3938 41.8134 64.9602H48.8162V51.1512H34.2436C34.3101 53.8528 34.5776 56.4853 35.0102 59.0525C35.0754 59.0525 35.1765 59.0192 35.2431 59.0192ZM17 49.984C17 68.2261 31.7749 83 49.9847 83C68.2278 83 83 68.2261 83 49.984C83 31.7739 68.2278 17 49.9847 17C31.7749 17 17 31.7739 17 49.984Z" fill="white"/>
<path d="M36 40.3333C39.4978 40.3333 42.3334 37.4978 42.3334 34C42.3334 30.5022 39.4978 27.6667 36 27.6667C32.5022 27.6667 29.6667 30.5022 29.6667 34C29.6667 37.4978 32.5022 40.3333 36 40.3333Z" fill="white" stroke="white" stroke-width="1.5"/>
<path d="M66 56.3333C69.4978 56.3333 72.3334 53.4978 72.3334 50C72.3334 46.5022 69.4978 43.6667 66 43.6667C62.5022 43.6667 59.6667 46.5022 59.6667 50C59.6667 53.4978 62.5022 56.3333 66 56.3333Z" fill="white" stroke="white" stroke-width="1.5"/>
<path d="M35.3333 71.6667C38.8311 71.6667 41.6667 68.8311 41.6667 65.3333C41.6667 61.8355 38.8311 59 35.3333 59C31.8355 59 29 61.8355 29 65.3333C29 68.8311 31.8355 71.6667 35.3333 71.6667Z" fill="white" stroke="white" stroke-width="1.5"/>
<mask id="mask0_2_1308" style="mask-type:alpha" maskUnits="userSpaceOnUse" x="33" y="31" width="6" height="6">
<path d="M38.6 32.7333L37.2667 34.0667L38.6 35.4V36.7333H37.2667L35.9333 35.4L34.6 36.7333H33.2667V35.4L34.6 34.0667L33.2667 32.7333V31.4H34.6L35.9333 32.7333L37.2667 31.4H38.6V32.7333Z" fill="white"/>
</mask>
<g mask="url(#mask0_2_1308)">
</g>
<mask id="mask1_2_1308" style="mask-type:alpha" maskUnits="userSpaceOnUse" x="63" y="47" width="6" height="6">
<path d="M68.7334 48.6L67.4 49.9333L68.7334 51.2667V52.6H67.4L66.0667 51.2667L64.7334 52.6H63.4V51.2667L64.7334 49.9333L63.4 48.6V47.2667H64.7334L66.0667 48.6L67.4 47.2667H68.7334V48.6Z" fill="white"/>
</mask>
<g mask="url(#mask1_2_1308)">
</g>
<mask id="mask2_2_1308" style="mask-type:alpha" maskUnits="userSpaceOnUse" x="32" y="63" width="6" height="6">
<path d="M37.9333 64.3333L36.6 65.6667L37.9333 67V68.3333H36.6L35.2666 67L33.9333 68.3333H32.6V67L33.9333 65.6667L32.6 64.3333V63H33.9333L35.2666 64.3333L36.6 63H37.9333V64.3333Z" fill="white"/>
</mask>
<g mask="url(#mask2_2_1308)">
</g>
</svg>
