<svg width="100" height="100" viewBox="0 0 100 100" fill="none" xmlns="http://www.w3.org/2000/svg">
<path fill-rule="evenodd" clip-rule="evenodd" d="M81.4994 44C81.4016 44 81.3025 43.9895 81.2063 43.9701C81.1101 43.9508 81.0158 43.922 80.9262 43.8845C80.8358 43.847 80.7491 43.8007 80.6664 43.7463C80.5849 43.6923 80.5071 43.6295 80.4385 43.5604C80.3693 43.4912 80.306 43.4151 80.252 43.3325C80.1981 43.2516 80.1519 43.1643 80.1143 43.0727C80.0768 42.9826 80.048 42.8882 80.0287 42.792C80.0093 42.696 80 42.5974 80 42.4996C80 42.4024 80.0093 42.3032 80.0287 42.2054C80.048 42.111 80.0768 42.0166 80.1143 41.9252C80.1519 41.8349 80.1981 41.7482 80.252 41.6667C80.306 41.5846 80.3693 41.508 80.4385 41.4388C80.5071 41.3696 80.5849 41.3069 80.6664 41.2529C80.7491 41.199 80.8358 41.1522 80.9262 41.1147C81.0158 41.0772 81.1101 41.0472 81.2063 41.029C81.4004 40.9903 81.5996 40.9903 81.7931 41.029C81.8893 41.0472 81.9836 41.0772 82.0738 41.1147C82.1642 41.1522 82.2509 41.1984 82.3318 41.2529C82.4145 41.3069 82.4911 41.3696 82.5603 41.4388C82.6307 41.508 82.6922 41.5846 82.7479 41.6667C82.8019 41.7482 82.8481 41.8349 82.8857 41.9252C82.9232 42.0166 82.952 42.111 82.9713 42.2054C82.9907 42.3032 83 42.4024 83 42.4996C83 42.5974 82.9907 42.696 82.9713 42.792C82.952 42.8882 82.9232 42.9826 82.8857 43.0727C82.8481 43.1643 82.8019 43.2516 82.7479 43.3325C82.6922 43.4151 82.6307 43.4912 82.5603 43.5604C82.4911 43.6295 82.4145 43.6923 82.3318 43.7463C82.2509 43.8007 82.1642 43.847 82.0738 43.8845C81.9836 43.922 81.8893 43.9508 81.7931 43.9701C81.6958 43.9895 81.5966 44 81.4994 44Z" fill="white"/>
<path fill-rule="evenodd" clip-rule="evenodd" d="M41.5 72C41.4028 72 41.3032 71.9911 41.2058 71.9719C41.1115 71.952 41.0172 71.9238 40.9258 71.8863C40.8355 71.8488 40.7482 71.8019 40.6674 71.7479C40.5847 71.6928 40.5087 71.6313 40.4395 71.5622C40.3692 71.4918 40.3077 71.4151 40.252 71.3324C40.198 71.2516 40.1518 71.1642 40.1143 71.0745C40.0768 70.9831 40.048 70.8881 40.0287 70.7938C40.0089 70.6964 40 70.5985 40 70.4995C40 70.4023 40.0093 70.3031 40.0287 70.2071C40.048 70.1109 40.0768 70.0165 40.1143 69.9263C40.1518 69.8366 40.198 69.7481 40.252 69.6672C40.3077 69.5863 40.3692 69.5078 40.4395 69.4387C40.5087 69.3695 40.5847 69.3068 40.6674 69.2528C40.7482 69.1989 40.8355 69.1525 40.9258 69.115C41.0172 69.0775 41.1115 69.0488 41.2058 69.0295C41.3992 68.9902 41.599 68.9902 41.7924 69.0295C41.8885 69.0488 41.9829 69.0775 42.073 69.115C42.1645 69.1525 42.2512 69.1989 42.3326 69.2528C42.4147 69.3068 42.4914 69.3701 42.5605 69.4387C42.6297 69.5078 42.6923 69.5845 42.7463 69.6672C42.8002 69.7481 42.847 69.8366 42.8845 69.9263C42.922 70.0165 42.9502 70.1109 42.9701 70.2071C42.9895 70.3031 43 70.4023 43 70.4995C43 70.5985 42.9895 70.6964 42.9701 70.7938C42.9502 70.8881 42.922 70.9831 42.8845 71.0745C42.847 71.1642 42.8002 71.2516 42.7463 71.3324C42.6923 71.4151 42.6297 71.4918 42.5605 71.5622C42.4914 71.6313 42.4147 71.6928 42.3326 71.7479C42.2512 71.8019 42.1645 71.8488 42.073 71.8863C41.9829 71.9238 41.8885 71.952 41.7924 71.9719C41.6964 71.9911 41.5972 72 41.5 72Z" fill="white"/>
<path fill-rule="evenodd" clip-rule="evenodd" d="M51.6016 75.7742H87.7969V65.0565H51.6016V75.7742ZM12.2031 72.0278H34.9447C35.8287 72.0278 36.5462 71.3059 36.5462 70.4149C36.5462 69.5241 35.8287 68.802 34.9447 68.802H12.2031V65.0563H48.3984V75.7742H12.2031V72.0278ZM12.2031 33.9435H28.6992V23.2258H12.2031V33.9435ZM31.9023 33.9435H68.0977V23.2258H31.9023V33.9435ZM87.7969 47.8872H51.6016V44.3047H74.4113C75.2959 44.3047 76.0129 43.5826 76.0129 42.6918C76.0129 41.8008 75.2959 41.0789 74.4113 41.0789H51.6016V37.1693H87.7969V47.8872ZM71.3008 61.8305H87.7969V51.1128H71.3008V61.8305ZM12.2031 61.8305H28.6992V51.1128H12.2031V61.8305ZM12.2031 47.8872H48.3984V37.1695H12.2031V47.8872ZM31.9023 61.8305H68.0977V51.1128H31.9023V61.8305ZM89.3984 33.9435H71.3008V21.6129C71.3008 20.7221 70.5838 20 69.6992 20H10.6016C9.71702 20 9 20.7221 9 21.6129V77.3871C9 78.2779 9.71702 79 10.6016 79H89.3984C90.283 79 91 78.2779 91 77.3871V35.5564C91 34.6656 90.283 33.9435 89.3984 33.9435Z" fill="white"/>
<path d="M52 42.5H75" stroke="white" stroke-width="3.2" stroke-linecap="round"/>
</svg>
