<svg width="100" height="100" viewBox="0 0 100 100" fill="none" xmlns="http://www.w3.org/2000/svg">
<path fill-rule="evenodd" clip-rule="evenodd" d="M79.798 44.7795C77.1928 44.7795 75.0731 42.6686 75.0731 40.074C75.0731 37.4795 77.1927 35.3685 79.798 35.3685C82.4032 35.3685 84.523 37.4793 84.523 40.074C84.523 42.6686 82.4032 44.7795 79.798 44.7795ZM59.9591 64.5372C57.3539 64.5372 55.2342 62.4262 55.2342 59.8316C55.2342 57.237 57.3537 55.1261 59.9591 55.1261C62.5642 55.1261 64.6839 57.237 64.6839 59.8316C64.6838 62.4262 62.5642 64.5372 59.9591 64.5372ZM39.8927 44.7795C37.2875 44.7795 35.1678 42.6686 35.1678 40.074C35.1678 37.4795 37.2873 35.3685 39.8927 35.3685C42.498 35.3685 44.6176 37.4793 44.6176 40.074C44.6176 42.6686 42.498 44.7795 39.8927 44.7795ZM20.0537 64.5372C17.4484 64.5372 15.3288 62.4262 15.3288 59.8318C15.3288 57.2371 17.4484 55.1263 20.0537 55.1263C22.659 55.1263 24.7786 57.2371 24.7786 59.8318C24.7786 62.4262 22.6592 64.5372 20.0537 64.5372ZM79.798 32.0534C75.3571 32.0534 71.7444 35.6515 71.7444 40.0741C71.7444 41.6872 72.2266 43.1893 73.0527 44.4483L64.3513 53.1138C63.0871 52.2911 61.5789 51.8109 59.9591 51.8109C58.2807 51.8109 56.7208 52.3255 55.4294 53.2038L46.6385 44.4477C47.4644 43.1887 47.9463 41.6868 47.9463 40.074C47.9463 35.6513 44.3334 32.0532 39.8925 32.0532C35.4516 32.0532 31.8388 35.6513 31.8388 40.074C31.8388 41.6868 32.3208 43.1883 33.1465 44.4473L24.445 53.1131C23.181 52.2908 21.673 51.8109 20.0537 51.8109C15.6128 51.8109 11.9999 55.4091 11.9999 59.8318C11.9999 64.2545 15.6128 67.8526 20.0537 67.8526C24.4946 67.8526 28.1075 64.2545 28.1075 59.8318C28.1075 58.2187 27.6253 56.7166 26.7992 55.4575L35.5004 46.792C36.7647 47.6147 38.273 48.0949 39.8927 48.0949C41.5122 48.0949 43.0205 47.6147 44.2847 46.792L53.1241 55.5962C52.3528 56.8265 51.9056 58.2777 51.9056 59.8316C51.9056 64.2543 55.5183 67.8524 59.9592 67.8524C64.4001 67.8524 68.013 64.2543 68.013 59.8316C68.013 58.2189 67.5309 56.7172 66.7053 55.4584L75.4069 46.7924C76.6712 47.6148 78.1791 48.0948 79.7982 48.0948C84.2392 48.0948 87.8519 44.4967 87.8519 40.074C87.8519 35.6512 84.239 32.0534 79.798 32.0534Z" fill="white"/>
<path fill-rule="evenodd" clip-rule="evenodd" d="M38.4916 52.5084C37.8139 51.8307 36.7154 51.8307 36.0377 52.5084L32.5081 56.038C31.8306 56.7154 31.8306 57.8141 32.5083 58.4918C32.8471 58.8308 33.2911 59.0001 33.7352 59.0001C34.1792 59.0001 34.6233 58.8307 34.962 58.4918L38.4916 54.9623C39.1695 54.2848 39.1695 53.1859 38.4916 52.5084Z" fill="white"/>
<path fill-rule="evenodd" clip-rule="evenodd" d="M67.4919 41.5082C66.8142 40.8307 65.7158 40.8307 65.0378 41.5084L61.5082 45.038C60.8306 45.7156 60.8306 46.8143 61.5082 47.492C61.8472 47.8307 62.2912 48.0001 62.7352 48.0001C63.1794 48.0001 63.6232 47.8305 63.9622 47.4918L67.4917 43.9622C68.1694 43.2845 68.1694 42.1858 67.4919 41.5082Z" fill="white"/>
</svg>
