<svg width="100" height="100" viewBox="0 0 100 100" fill="none" xmlns="http://www.w3.org/2000/svg">
<path fill-rule="evenodd" clip-rule="evenodd" d="M82.6113 24.569C82.2193 24.178 81.5883 24.178 81.1973 24.569C80.8053 24.96 80.8053 25.592 81.1973 25.983C84.9323 29.719 84.9323 35.798 81.1973 39.535C80.8053 39.926 80.8053 40.558 81.1973 40.949C81.3913 41.144 81.6483 41.242 81.9043 41.242C82.1603 41.242 82.4163 41.144 82.6113 40.949C87.1273 36.434 87.1273 29.085 82.6113 24.569Z" fill="white"/>
<path fill-rule="evenodd" clip-rule="evenodd" d="M78.4004 26.8448C78.0084 26.4538 77.3774 26.4538 76.9864 26.8448C76.5944 27.2358 76.5944 27.8678 76.9864 28.2588C78.2224 29.4958 78.9044 31.1438 78.9044 32.8978C78.9044 34.6518 78.2224 36.2988 76.9864 37.5358C76.5944 37.9268 76.5944 38.5588 76.9864 38.9498C77.1804 39.1448 77.4374 39.2428 77.6934 39.2428C77.9494 39.2428 78.2054 39.1448 78.4004 38.9498C80.0144 37.3358 80.9044 35.1858 80.9044 32.8978C80.9044 30.6098 80.0154 28.4588 78.4004 26.8448Z" fill="white"/>
<path fill-rule="evenodd" clip-rule="evenodd" d="M18.8008 25.983C19.1918 25.592 19.1918 24.96 18.8008 24.569C18.4098 24.178 17.7778 24.178 17.3868 24.569C12.8708 29.085 12.8708 36.433 17.3868 40.949C17.5818 41.144 17.8378 41.242 18.0938 41.242C18.3498 41.242 18.6058 41.144 18.8008 40.949C19.1918 40.558 19.1918 39.926 18.8008 39.535C15.0638 35.799 15.0638 29.72 18.8008 25.983Z" fill="white"/>
<path fill-rule="evenodd" clip-rule="evenodd" d="M23.0122 26.569C22.6212 26.178 21.9892 26.178 21.5982 26.569C19.9832 28.183 19.0942 30.333 19.0942 32.621C19.0942 34.909 19.9832 37.059 21.5982 38.674C21.7932 38.869 22.0492 38.967 22.3052 38.967C22.5612 38.967 22.8172 38.869 23.0122 38.674C23.4032 38.283 23.4032 37.651 23.0122 37.26C21.7752 36.023 21.0942 34.375 21.0942 32.621C21.0942 30.867 21.7742 29.22 23.0122 27.983C23.4022 27.593 23.4022 26.96 23.0122 26.569Z" fill="white"/>
<path fill-rule="evenodd" clip-rule="evenodd" d="M63.8055 25C63.7077 25 63.6087 24.9895 63.5132 24.9702C63.417 24.9508 63.3227 24.922 63.2325 24.8845C63.141 24.847 63.0537 24.8008 62.9729 24.7464C62.8902 24.6924 62.8142 24.6297 62.745 24.5606C62.6759 24.4915 62.6132 24.4154 62.5575 24.3328C62.5047 24.252 62.4585 24.1647 62.421 24.0732C62.3835 23.9831 62.3535 23.8888 62.3354 23.7926C62.316 23.6967 62.3055 23.5975 62.3055 23.5004C62.3055 23.4032 62.316 23.3041 62.3354 23.2063C62.3535 23.1119 62.3835 23.0176 62.421 22.9263C62.4585 22.836 62.5047 22.7487 62.5575 22.6679C62.6132 22.5853 62.6759 22.5092 62.745 22.4401C62.8142 22.371 62.8902 22.3083 62.9729 22.2527C63.0537 22.1987 63.141 22.1525 63.2325 22.115C63.3227 22.0775 63.417 22.0487 63.5132 22.0294C63.7065 21.9902 63.9045 21.9902 64.0979 22.0294C64.194 22.0487 64.2884 22.0775 64.3785 22.115C64.47 22.1525 64.5567 22.1987 64.6382 22.2527C64.7202 22.3083 64.7969 22.371 64.866 22.4401C64.9352 22.5092 64.9979 22.5853 65.0519 22.6679C65.1057 22.7487 65.1525 22.836 65.19 22.9263C65.2275 23.0176 65.2557 23.1119 65.2757 23.2063C65.295 23.3041 65.3055 23.4032 65.3055 23.5004C65.3055 23.5975 65.295 23.6967 65.2757 23.7926C65.2557 23.8888 65.2275 23.9831 65.19 24.0732C65.1525 24.1647 65.1057 24.252 65.0519 24.3328C64.9979 24.4154 64.9352 24.4915 64.866 24.5606C64.7969 24.6297 64.7202 24.6924 64.6382 24.7464C64.5567 24.8008 64.47 24.847 64.3785 24.8845C64.2884 24.922 64.194 24.9508 64.0979 24.9702C64.0019 24.9895 63.9027 25 63.8055 25Z" fill="white"/>
<path fill-rule="evenodd" clip-rule="evenodd" d="M69.4017 80.8243C69.4017 82.1273 68.3283 83.1875 67.0084 83.1875H34.546C33.2268 83.1875 32.1533 82.1273 32.1533 80.8243V25.8119H58.5143C59.3003 25.8119 59.9382 25.1825 59.9382 24.4057C59.9382 23.6296 59.3003 22.9994 58.5143 22.9994H32.1533V19.1757C32.1533 17.8727 33.2268 16.8125 34.546 16.8125H67.0084C68.3283 16.8125 69.4017 17.8727 69.4017 19.1757V69.9688H40.0989C39.3126 69.9688 38.6751 70.5982 38.6751 71.375C38.6751 72.1517 39.3126 72.7812 40.0989 72.7812H69.4017V80.8243ZM34.546 14C31.6566 14 29.3057 16.322 29.3057 19.1757V80.8243C29.3057 83.678 31.6566 86 34.546 86H67.0084C69.8984 86 72.2494 83.678 72.2494 80.8243V19.1757C72.2494 16.322 69.8984 14 67.0084 14H34.546Z" fill="white"/>
<path fill-rule="evenodd" clip-rule="evenodd" d="M50.8057 76C49.9789 76 49.3057 76.6732 49.3057 77.5C49.3057 78.3274 49.9789 79 50.8057 79C51.6331 79 52.3057 78.3274 52.3057 77.5C52.3057 76.6732 51.6331 76 50.8057 76ZM50.8057 82C48.3248 82 46.3057 79.9815 46.3057 77.5C46.3057 75.0192 48.3248 73 50.8057 73C53.2871 73 55.3057 75.0192 55.3057 77.5C55.3057 79.9815 53.2871 82 50.8057 82Z" fill="white"/>
<path d="M62.5 32.5H38.5C37.3954 32.5 36.5 33.3954 36.5 34.5V40.5C36.5 41.6046 37.3954 42.5 38.5 42.5H62.5C63.6046 42.5 64.5 41.6046 64.5 40.5V34.5C64.5 33.3954 63.6046 32.5 62.5 32.5Z" stroke="white" stroke-width="3"/>
<path d="M62.5 48.5H38.5C37.3954 48.5 36.5 49.3954 36.5 50.5V56.5C36.5 57.6046 37.3954 58.5 38.5 58.5H62.5C63.6046 58.5 64.5 57.6046 64.5 56.5V50.5C64.5 49.3954 63.6046 48.5 62.5 48.5Z" stroke="white" stroke-width="3"/>
</svg>
