<svg width="100" height="100" viewBox="0 0 100 100" fill="none" xmlns="http://www.w3.org/2000/svg">
<path fill-rule="evenodd" clip-rule="evenodd" d="M65.1481 72H68.3333C68.3333 61.4451 59.7771 52.8889 49.2222 52.8889C38.6673 52.8889 30.1111 61.4451 30.1111 72H33.2963C33.2963 63.2184 40.4406 56.0741 49.2222 56.0741C58.0037 56.0741 65.1481 63.2184 65.1481 72Z" fill="white"/>
<path fill-rule="evenodd" clip-rule="evenodd" d="M48.0278 31.8795C52.3678 31.8795 55.8984 35.4101 55.8984 39.75C55.8984 44.0899 52.3678 47.6205 48.0278 47.6205C43.6879 47.6205 40.1573 44.0899 40.1573 39.75C40.1573 35.4101 43.6879 31.8795 48.0278 31.8795ZM48.0278 50.5C53.9649 50.5 58.7778 45.6871 58.7778 39.75C58.7778 33.8129 53.9649 29 48.0278 29C42.0908 29 37.2778 33.8129 37.2778 39.75C37.2778 45.6871 42.0908 50.5 48.0278 50.5Z" fill="white" stroke="white" stroke-width="0.3"/>
<path fill-rule="evenodd" clip-rule="evenodd" d="M14.2431 72C14.1253 71.3373 14.0602 70.6567 14.0602 69.9608C14.0602 63.5511 19.2768 58.3367 25.6891 58.3367C27.3841 58.3367 28.9937 58.7038 30.4474 59.3584C31.0728 58.5065 31.7583 57.702 32.5 56.9522C30.4638 55.8846 28.148 55.2778 25.6891 55.2778C17.5764 55.2778 11 61.8515 11 69.9608C11 70.6529 11.0516 71.3331 11.1442 72H14.2431Z" fill="white"/>
<path fill-rule="evenodd" clip-rule="evenodd" d="M25.3334 37.1903C28.7204 37.1903 31.4764 39.9463 31.4764 43.3333C31.4764 46.7204 28.7204 49.4764 25.3334 49.4764C21.9463 49.4764 19.1904 46.7204 19.1904 43.3333C19.1904 39.9463 21.9463 37.1903 25.3334 37.1903ZM25.3334 52.8889C30.6108 52.8889 34.8889 48.6108 34.8889 43.3333C34.8889 38.0559 30.6108 33.7778 25.3334 33.7778C20.0559 33.7778 15.7778 38.0559 15.7778 43.3333C15.7778 48.6108 20.0559 52.8889 25.3334 52.8889Z" fill="white"/>
<path fill-rule="evenodd" clip-rule="evenodd" d="M84.0625 72C84.1803 71.3373 84.2453 70.6567 84.2453 69.9608C84.2453 63.5511 79.0288 58.3367 72.6165 58.3367C70.9215 58.3367 69.3118 58.7038 67.8582 59.3584C67.2328 58.5065 66.5473 57.702 65.8055 56.9522C67.8417 55.8846 70.1576 55.2778 72.6165 55.2778C80.7291 55.2778 87.3055 61.8515 87.3055 69.9608C87.3055 70.6529 87.2539 71.3331 87.1613 72H84.0625Z" fill="white"/>
<path fill-rule="evenodd" clip-rule="evenodd" d="M72.9722 37.1903C69.5851 37.1903 66.8291 39.9463 66.8291 43.3333C66.8291 46.7204 69.5851 49.4764 72.9722 49.4764C76.3592 49.4764 79.1152 46.7204 79.1152 43.3333C79.1152 39.9463 76.3592 37.1903 72.9722 37.1903ZM72.9722 52.8889C67.6947 52.8889 63.4166 48.6108 63.4166 43.3333C63.4166 38.0559 67.6947 33.7778 72.9722 33.7778C78.2496 33.7778 82.5277 38.0559 82.5277 43.3333C82.5277 48.6108 78.2496 52.8889 72.9722 52.8889Z" fill="white"/>
</svg>
