<svg width="100" height="100" viewBox="0 0 100 100" fill="none" xmlns="http://www.w3.org/2000/svg">
<path d="M66.1997 23.3999H32.9997C31.8951 23.3999 30.9997 24.2953 30.9997 25.3999V73.5999C30.9997 74.7045 31.8951 75.5999 32.9997 75.5999H66.1997C67.3043 75.5999 68.1997 74.7045 68.1997 73.5999V25.3999C68.1997 24.2953 67.3043 23.3999 66.1997 23.3999Z" stroke="white" stroke-width="2.8"/>
<path d="M36.7266 35.8999C36.642 35.8199 36.5997 35.6999 36.5997 35.6199C36.5997 35.5399 36.642 35.4199 36.7266 35.3399L37.3189 34.7799C37.4881 34.6199 37.742 34.6199 37.9112 34.7799L37.9535 34.8199L40.2804 37.1799C40.3651 37.2599 40.492 37.2599 40.5766 37.1799L46.2458 31.6199H46.2881C46.4574 31.4599 46.7112 31.4599 46.8804 31.6199L47.4727 32.1799C47.642 32.3399 47.642 32.5799 47.4727 32.7399L40.7035 39.3799C40.6189 39.4599 40.5343 39.4999 40.4074 39.4999C40.2804 39.4999 40.1958 39.4599 40.1112 39.3799L36.8112 36.0199L36.7266 35.8999Z" fill="white" stroke="white"/>
<path d="M36.7266 50.3999C36.642 50.3199 36.5997 50.1999 36.5997 50.1199C36.5997 50.0399 36.642 49.9199 36.7266 49.8399L37.3189 49.2799C37.4881 49.1199 37.742 49.1199 37.9112 49.2799L37.9535 49.3199L40.2804 51.6799C40.3651 51.7599 40.492 51.7599 40.5766 51.6799L46.2458 46.1199H46.2881C46.4574 45.9599 46.7112 45.9599 46.8804 46.1199L47.4727 46.6799C47.642 46.8399 47.642 47.0799 47.4727 47.2399L40.7035 53.8799C40.6189 53.9599 40.5343 53.9999 40.4074 53.9999C40.2804 53.9999 40.1958 53.9599 40.1112 53.8799L36.8112 50.5199L36.7266 50.3999Z" fill="white" stroke="white"/>
<path d="M36.7266 65.3999C36.642 65.3199 36.5997 65.1999 36.5997 65.1199C36.5997 65.0399 36.642 64.9199 36.7266 64.8399L37.3189 64.2799C37.4881 64.1199 37.742 64.1199 37.9112 64.2799L37.9535 64.3199L40.2804 66.6799C40.3651 66.7599 40.492 66.7599 40.5766 66.6799L46.2458 61.1199H46.2881C46.4574 60.9599 46.7112 60.9599 46.8804 61.1199L47.4727 61.6799C47.642 61.8399 47.642 62.0799 47.4727 62.2399L40.7035 68.8799C40.6189 68.9599 40.5343 68.9999 40.4074 68.9999C40.2804 68.9999 40.1958 68.9599 40.1112 68.8799L36.8112 65.5199L36.7266 65.3999Z" fill="white" stroke="white"/>
<path d="M51.5997 32.4999H61.5997" stroke="white" stroke-width="2.8" stroke-linecap="square"/>
<path d="M51.5997 38.4999H61.5997" stroke="white" stroke-width="2.8" stroke-linecap="square"/>
<path d="M51.5997 46.4999H61.5997" stroke="white" stroke-width="2.8" stroke-linecap="square"/>
<path d="M51.5997 52.4999H61.5997" stroke="white" stroke-width="2.8" stroke-linecap="square"/>
<path d="M51.5997 61.4999H61.5997" stroke="white" stroke-width="2.8" stroke-linecap="square"/>
<path d="M51.5997 67.4999H61.5997" stroke="white" stroke-width="2.8" stroke-linecap="square"/>
</svg>
