<svg width="100" height="100" viewBox="0 0 100 100" fill="none" xmlns="http://www.w3.org/2000/svg">
<path fill-rule="evenodd" clip-rule="evenodd" d="M61.5605 26.4381C61.2815 26.1591 60.8945 26.0001 60.5 26.0001C60.1055 26.0001 59.7185 26.1591 59.4394 26.4381C59.1605 26.7186 59 27.1041 59 27.5001C59 27.8946 59.1605 28.2816 59.4394 28.5606C59.7185 28.8396 60.1055 29.0001 60.5 29.0001C60.8945 29.0001 61.2815 28.8396 61.5605 28.5606C61.8394 28.2816 62 27.8946 62 27.5001C62 27.1041 61.8394 26.7186 61.5605 26.4381Z" fill="white"/>
<path fill-rule="evenodd" clip-rule="evenodd" d="M39.5605 48.4396C39.2815 48.1606 38.8945 48.0001 38.5 48.0001C38.1055 48.0001 37.7185 48.1606 37.4395 48.4396C37.1605 48.7186 37 49.1056 37 49.5C37 49.8947 37.1605 50.2815 37.4395 50.5607C37.7185 50.8397 38.1055 51.0001 38.5 51.0001C38.8945 51.0001 39.2815 50.8397 39.5605 50.5607C39.8395 50.2817 40 49.8947 40 49.5C40 49.1056 39.8395 48.7186 39.5605 48.4396Z" fill="white"/>
<mask id="mask0_2_1223" style="mask-type:alpha" maskUnits="userSpaceOnUse" x="65" y="13" width="21" height="21">
<path d="M65.0001 13.1289H86V33.988H65.0001V13.1289Z" fill="white"/>
</mask>
<g mask="url(#mask0_2_1223)">
<path fill-rule="evenodd" clip-rule="evenodd" d="M82.4865 26.6773C81.8686 25.8913 80.9731 25.3236 79.9271 25.1281C79.9729 24.8726 79.9983 24.6101 79.9983 24.3416V23.3847C79.9983 20.9208 77.9803 18.9163 75.4998 18.9163C73.0191 18.9163 71.0012 20.9208 71.0012 23.3847V24.3416C71.0012 24.61 71.0264 24.8726 71.0725 25.1281C70.0266 25.3234 69.1312 25.8911 68.5133 26.6767C68.0808 25.7244 67.8379 24.6693 67.8379 23.5584C67.8379 19.3618 71.2749 15.9477 75.5001 15.9477C79.725 15.9477 83.1622 19.3618 83.1622 23.5584C83.1622 24.6696 82.9193 25.7248 82.4865 26.6773ZM73.8391 24.3418V23.3848C73.8391 22.4752 74.584 21.7352 75.4998 21.7352C76.4155 21.7352 77.1605 22.4752 77.1605 23.3848V24.3418C77.1605 25.2514 76.4155 25.9913 75.4998 25.9913C74.584 25.9913 73.8391 25.2513 73.8391 24.3418ZM80.5481 29.2768C79.1989 30.4535 77.4326 31.1692 75.5002 31.1692C73.5674 31.1692 71.8008 30.4532 70.4515 29.2764V29.2699C70.4515 28.598 70.9341 28.0211 71.599 27.898L72.5602 27.72C73.3493 28.3983 74.3767 28.8103 75.4998 28.8103C76.6229 28.8103 77.6503 28.3984 78.4394 27.72L79.4007 27.898C80.0656 28.0211 80.5481 28.5982 80.5481 29.2699V29.2768ZM75.5001 13.1289C69.7103 13.1289 65.0001 17.8075 65.0001 23.5584C65.0001 29.3093 69.7103 33.988 75.5001 33.988C81.2897 33.988 86.0001 29.3093 86.0001 23.5584C86.0001 17.8075 81.2897 13.1289 75.5001 13.1289Z" fill="white"/>
</g>
<path fill-rule="evenodd" clip-rule="evenodd" d="M70.8607 77.589C70.1275 76.3073 68.8583 75.3587 67.325 75.0722L66.8809 74.9893C66.999 74.5408 67.0626 74.0705 67.0626 73.5854V72.3095C67.0626 69.2708 64.5939 66.799 61.5597 66.799C58.5257 66.799 56.057 69.2709 56.057 72.3095V73.5854C56.057 74.0705 56.1204 74.5408 56.2385 74.9893L55.7944 75.0722C54.2614 75.3585 52.9923 76.3068 52.259 77.5882C51.4433 76.0869 50.9794 74.367 50.9794 72.5409C50.9794 66.6985 55.7258 61.9455 61.56 61.9455C67.3942 61.9455 72.1405 66.6985 72.1405 72.5409C72.1405 74.3676 71.6767 76.0875 70.8607 77.589ZM58.9166 73.5854V72.3095C58.9166 70.85 60.1023 69.6626 61.5597 69.6626C63.0172 69.6626 64.203 70.85 64.203 72.3095V73.5854C64.203 75.0448 63.0172 76.2322 61.5597 76.2322C60.1023 76.2322 58.9166 75.0448 58.9166 73.5854ZM68.6833 80.3686C66.8019 82.0872 64.3012 83.1364 61.5601 83.1364C58.8186 83.1364 56.3178 82.0866 54.4363 80.3679V80.1567C54.4363 79.0455 55.228 78.0912 56.3188 77.8874L57.806 77.6096C58.79 78.5306 60.11 79.096 61.5598 79.096C63.0098 79.096 64.3297 78.5306 65.3135 77.6096L66.8006 77.8874C67.8914 78.0912 68.6833 79.0455 68.6833 80.1567V80.3686ZM61.56 59.082C58.3731 59.082 55.4424 60.1994 53.1362 62.0623L43.4374 52.416C42.877 51.8588 41.9718 51.8618 41.4153 52.4229C40.8589 52.9839 40.862 53.8905 41.4222 54.4479L51.112 64.0852C49.2419 66.3978 48.1197 69.3405 48.1197 72.541C48.1197 79.9624 54.1489 86.0001 61.5598 86.0001C68.9708 86.0001 75 79.9624 75 72.541C75 65.1196 68.9709 59.082 61.56 59.082Z" fill="white"/>
<path fill-rule="evenodd" clip-rule="evenodd" d="M35.35 42.5233C34.6294 41.2444 33.382 40.298 31.8749 40.0123L31.4386 39.9295C31.5546 39.4821 31.617 39.0128 31.617 38.529V37.2558C31.617 34.2243 29.1909 31.7578 26.2089 31.7578C23.2268 31.7578 20.8007 34.2243 20.8007 37.2558V38.529C20.8007 39.0128 20.8631 39.4821 20.9792 39.9295L20.5427 40.0123C19.036 40.298 17.7887 41.244 17.068 42.5227C16.2662 41.0245 15.8105 39.3088 15.8105 37.4868C15.8105 31.6577 20.4753 26.9154 26.2092 26.9154C31.943 26.9154 36.6078 31.6577 36.6078 37.4868C36.6078 39.3091 36.1518 41.0251 35.35 42.5233ZM23.6112 38.529V37.2558C23.6112 35.7997 24.7765 34.615 26.2089 34.615C27.6412 34.615 28.8066 35.7997 28.8066 37.2558V38.529C28.8066 39.9851 27.6412 41.1698 26.2089 41.1698C24.7765 41.1698 23.6112 39.9853 23.6112 38.529ZM33.2099 45.2967C31.3607 47.0111 28.9031 48.0583 26.2092 48.0583C23.5149 48.0583 21.0569 47.0108 19.2077 45.296V45.0851C19.2077 43.9764 19.9858 43.0243 21.0579 42.821L22.5196 42.5438C23.4867 43.4628 24.7838 44.0268 26.2089 44.0268C27.6339 44.0268 28.9311 43.4627 29.898 42.5438L31.3597 42.821C32.4318 43.0243 33.2099 43.9764 33.2099 45.0851V45.2967ZM55.9123 29.1187C55.7053 28.3584 54.9309 27.9127 54.183 28.1235L38.4911 32.5443C36.5507 27.5784 31.7768 24.0583 26.2092 24.0583C18.9256 24.0583 13 30.0823 13 37.4868C13 44.8914 18.9256 50.9154 26.2092 50.9154C33.4927 50.9154 39.4183 44.8914 39.4183 37.4868C39.4183 36.7414 39.3573 36.0103 39.2418 35.2975L54.9334 30.8768C55.6814 30.6661 56.1196 29.879 55.9123 29.1187Z" fill="white"/>
</svg>
