<?xml version="1.0" encoding="UTF-8"?>
<svg width="65px" height="44px" viewBox="0 0 65 44" version="1.1" xmlns="http://www.w3.org/2000/svg" xmlns:xlink="http://www.w3.org/1999/xlink">
    <!-- Generator: Sketch 52.4 (67378) - http://www.bohemiancoding.com/sketch -->
    <title>project-04</title>
    <desc>Created with Sketch.</desc>
    <g id="Home" stroke="none" stroke-width="1" fill="none" fill-rule="evenodd">
        <g id="Home-" transform="translate(-1119.000000, -2368.000000)">
            <g id="project-04" transform="translate(1119.000000, 2369.000000)">
                <path d="M50,6.857 C52.8356667,6.857 55.143,9.16433333 55.143,12 C55.143,14.8356667 52.8356667,17.143 50,17.143 C47.1643333,17.143 44.857,14.8356667 44.857,12 C44.857,9.16433333 47.1643333,6.857 50,6.857 Z M50,20 C54.4183333,20 58,16.4183333 58,12 C58,7.58166667 54.4183333,4 50,4 C45.5816667,4 42,7.58166667 42,12 C42,16.4183333 45.5816667,20 50,20 Z" id="Fill-3" fill="#333C4E"></path>
                <path d="M45,23.4018247 C45.6209768,24.0295886 46.1948759,24.7031304 46.7184948,25.4163675 C47.9354684,24.8683145 49.2831065,24.5609951 50.7021617,24.5609951 C56.0706165,24.5609951 60.4379504,28.9265315 60.4379504,34.2927766 C60.4379504,34.875403 60.3835068,35.4452244 60.2848679,36 L62.8792634,36 C62.9567654,35.4417031 63,34.8722018 63,34.2927766 C63,27.5035785 57.4941553,22 50.7021617,22 C48.6435548,22 46.7047238,22.5080374 45,23.4018247" id="Fill-4" fill="#FFFFFF"></path>
                <path d="M45.3333333,36 L48,36 C48,27.1633333 40.8366667,20 32,20 C23.1633333,20 16,27.1633333 16,36 L18.6666667,36 C18.6666667,28.648 24.648,22.6666667 32,22.6666667 C39.352,22.6666667 45.3333333,28.648 45.3333333,36" id="Fill-5" fill="#333C4E"></path>
                <path d="M31,2.41071429 C34.6334286,2.41071429 37.5892857,5.36657143 37.5892857,9 C37.5892857,12.6334286 34.6334286,15.5892857 31,15.5892857 C27.3665714,15.5892857 24.4107143,12.6334286 24.4107143,9 C24.4107143,5.36657143 27.3665714,2.41071429 31,2.41071429 Z M31,18 C35.9705714,18 40,13.9705714 40,9 C40,4.02942857 35.9705714,0 31,0 C26.0294286,0 22,4.02942857 22,9 C22,13.9705714 26.0294286,18 31,18 Z" id="Fill-6" stroke="#333C4E" stroke-width="0.3" fill="#333C4E"></path>
                <path d="M2.71513211,36 C2.61649319,35.4452244 2.56204964,34.875403 2.56204964,34.2927766 C2.56204964,28.9265315 6.92938351,24.5609951 12.2978383,24.5609951 C13.7168935,24.5609951 15.0645316,24.8683145 16.2815052,25.4163675 C16.8051241,24.7031304 17.3790232,24.0295886 18,23.4018247 C16.2952762,22.5080374 14.3564452,22 12.2978383,22 C5.50584468,22 0,27.5035785 0,34.2927766 C0,34.8722018 0.0432345877,35.4417031 0.120736589,36 L2.71513211,36" id="Fill-7" fill="#333C4E"></path>
                <path d="M12,6.857 C14.8356667,6.857 17.143,9.16433333 17.143,12 C17.143,14.8356667 14.8356667,17.143 12,17.143 C9.16433333,17.143 6.857,14.8356667 6.857,12 C6.857,9.16433333 9.16433333,6.857 12,6.857 Z M12,20 C16.4183333,20 20,16.4183333 20,12 C20,7.58166667 16.4183333,4 12,4 C7.58166667,4 4,7.58166667 4,12 C4,16.4183333 7.58166667,20 12,20 Z" id="Fill-8" fill="#333C4E"></path>
                <circle id="Oval-6" stroke="#333C4E" stroke-width="2.4" fill="#FCFCFC" cx="50.5" cy="28.5" r="12.5"></circle>
                <path d="M42.1846154,29.6 C42.0615385,29.48 42,29.3 42,29.18 C42,29.06 42.0615385,28.88 42.1846154,28.76 L43.0461538,27.92 C43.2923077,27.68 43.6615385,27.68 43.9076923,27.92 L43.9692308,27.98 L47.3538462,31.52 C47.4769231,31.64 47.6615385,31.64 47.7846154,31.52 L56.0307692,23.18 L56.0923077,23.18 C56.3384615,22.94 56.7076923,22.94 56.9538462,23.18 L57.8153846,24.02 C58.0615385,24.26 58.0615385,24.62 57.8153846,24.86 L47.9692308,34.82 C47.8461538,34.94 47.7230769,35 47.5384615,35 C47.3538462,35 47.2307692,34.94 47.1076923,34.82 L42.3076923,29.78 L42.1846154,29.6 Z" id="Shape" stroke="#00D2FF" fill="#00D2FF" fill-rule="nonzero"></path>
            </g>
        </g>
    </g>
</svg>