<?xml version="1.0" encoding="UTF-8"?>
<svg width="60px" height="59px" viewBox="0 0 60 59" version="1.1" xmlns="http://www.w3.org/2000/svg" xmlns:xlink="http://www.w3.org/1999/xlink">
    <!-- Generator: Sketch 52.4 (67378) - http://www.bohemiancoding.com/sketch -->
    <title>verify-04</title>
    <desc>Created with Sketch.</desc>
    <defs>
        <polygon id="path-1" points="0.25 0 59.25 0 59.25 59 0.25 59"></polygon>
    </defs>
    <g id="Home" stroke="none" stroke-width="1" fill="none" fill-rule="evenodd">
        <g id="Home-" transform="translate(-591.000000, -4113.000000)">
            <g id="verify-04" transform="translate(591.000000, 4113.000000)">
                <mask id="mask-2" fill="white">
                    <use xlink:href="#path-1"></use>
                </mask>
                <g id="Clip-2"></g>
                <path d="M56.6846918,23.0868787 L43.8587475,23.0868787 L43.8587475,21.8043738 C43.8587475,21.0947887 43.2855293,20.5215705 42.5759442,20.5215705 L31.0325049,20.5215705 L31.0325049,16.6740558 C31.0325049,14.552462 32.7590227,12.8259442 34.880318,12.8259442 L47.7062623,12.8259442 C48.4158473,12.8259442 48.9890656,12.2530244 48.9890656,11.5434393 C48.9890656,10.8338543 48.4158473,10.2609344 47.7062623,10.2609344 L34.880318,10.2609344 C33.4310099,10.2609344 32.1073264,10.7625377 31.0325049,11.5765613 L31.0325049,2.56530821 L43.8587475,2.56530821 C50.9313235,2.56530821 56.6846918,8.31867654 56.6846918,15.3912525 L56.6846918,23.0868787 Z M43.8587475,56.4346918 L31.0325049,56.4346918 L31.0325049,47.4234387 C32.1073264,48.2374623 33.4310099,48.7390656 34.880318,48.7390656 L47.7062623,48.7390656 C48.4158473,48.7390656 48.9890656,48.1661457 48.9890656,47.4565607 C48.9890656,46.7469756 48.4158473,46.1737574 47.7062623,46.1737574 L34.880318,46.1737574 C32.7590227,46.1737574 31.0325049,44.4472396 31.0325049,42.3262426 L31.0325049,38.4781311 L42.5759442,38.4781311 C43.2855293,38.4781311 43.8587475,37.9052113 43.8587475,37.1956262 L43.8587475,35.9128229 L56.6846918,35.9128229 L56.6846918,43.6084492 C56.6846918,50.6813235 50.9313235,56.4346918 43.8587475,56.4346918 Z M13.0759442,29.5 C13.0759442,30.2074963 12.501234,30.7825049 11.7934393,30.7825049 C11.085943,30.7825049 10.5109344,30.2074963 10.5109344,29.5 C10.5109344,28.7922053 11.085943,28.2171967 11.7934393,28.2171967 C12.501234,28.2171967 13.0759442,28.7922053 13.0759442,29.5 Z M19.4890656,56.4346918 C14.5395754,56.4346918 10.5109344,52.4060509 10.5109344,47.4565607 C10.5109344,45.1911402 11.6332008,42.8815571 13.5876929,41.0434393 L19.4890656,41.0434393 C20.1986506,41.0434393 20.7715705,40.4705195 20.7715705,39.7609344 C20.7715705,39.0513494 20.1986506,38.4781311 19.4890656,38.4781311 L13.0759442,38.4781311 C13.053863,38.4781311 13.036556,38.4894702 13.0156683,38.4906638 C12.9840384,38.4927525 12.9539004,38.4832039 12.921972,38.4867846 C12.7441282,38.5103579 12.4409581,38.4939461 12.1923944,38.485591 L11.7934393,38.4781311 C6.84394914,38.4781311 2.81500981,34.4494902 2.81500981,29.5 C2.81500981,24.5505098 6.84394914,20.5215705 11.7934393,20.5215705 L12.1923944,20.5141106 C12.4409581,20.5048603 12.7453218,20.4884485 12.921972,20.512917 C12.9539004,20.5167961 12.9840384,20.5072475 13.0156683,20.5090379 C13.036556,20.5102314 13.053863,20.5215705 13.0759442,20.5215705 L19.4890656,20.5215705 C20.1986506,20.5215705 20.7715705,19.9486506 20.7715705,19.2390656 C20.7715705,18.5297789 20.1986506,17.9565607 19.4890656,17.9565607 L13.5876929,17.9565607 C11.6332008,16.1181445 10.5109344,13.8085614 10.5109344,11.5434393 C10.5109344,6.59424754 14.5395754,2.56530821 19.4890656,2.56530821 C24.4385558,2.56530821 28.4674951,6.59424754 28.4674951,11.5434393 L28.4674951,11.5765613 C27.3926736,10.7625377 26.0683933,10.2609344 24.6193836,10.2609344 L19.4890656,10.2609344 C18.7794805,10.2609344 18.2065607,10.8338543 18.2065607,11.5434393 C18.2065607,12.2530244 18.7794805,12.8259442 19.4890656,12.8259442 L24.6193836,12.8259442 C26.7406789,12.8259442 28.4674951,14.552462 28.4674951,16.6740558 L28.4674951,29.5334203 C27.3926736,28.7190983 26.0683933,28.2171967 24.6193836,28.2171967 L15.404923,28.2171967 C14.874077,26.7279035 13.4629635,25.6521869 11.7934393,25.6521869 C9.672144,25.6521869 7.94562623,27.3787047 7.94562623,29.5 C7.94562623,31.6212953 9.672144,33.3478131 11.7934393,33.3478131 C13.4629635,33.3478131 14.874077,32.2717981 15.404923,30.7825049 L24.6193836,30.7825049 C26.7406789,30.7825049 28.4674951,32.5090227 28.4674951,34.6306164 L28.4674951,42.3262426 C28.4674951,44.4472396 26.7406789,46.1737574 24.6193836,46.1737574 L19.4890656,46.1737574 C18.7794805,46.1737574 18.2065607,46.7469756 18.2065607,47.4565607 C18.2065607,48.1661457 18.7794805,48.7390656 19.4890656,48.7390656 L24.6193836,48.7390656 C26.0683933,48.7390656 27.3926736,48.2374623 28.4674951,47.4234387 L28.4674951,47.4565607 C28.4674951,52.4060509 24.4385558,56.4346918 19.4890656,56.4346918 Z M31.0325049,35.9128229 L41.2934393,35.9128229 L41.2934393,23.0868787 L31.0325049,23.0868787 L31.0325049,35.9128229 Z M43.8587475,33.3478131 L56.6846918,33.3478131 L56.6846918,25.6521869 L43.8587475,25.6521869 L43.8587475,33.3478131 Z M43.8587475,0 L29.7497016,0 C29.0401165,0 28.4674951,0.572919828 28.4674951,1.28250491 L28.4674951,4.30316502 C26.3497805,1.68295199 23.1139771,0 19.4890656,0 C13.1236876,0 7.94562623,5.17776294 7.94562623,11.5434393 C7.94562623,13.8061743 8.75994821,16.0802482 10.2364103,18.061596 C4.60568267,18.8234003 0.25,23.6630809 0.25,29.5 C0.25,35.3369191 4.60568267,40.1765997 10.2364103,40.9381056 C8.75994821,42.9197518 7.94562623,45.1938257 7.94562623,47.4565607 C7.94562623,53.8219387 13.1236876,59 19.4890656,59 C23.1139771,59 26.3497805,57.3173464 28.4674951,54.696835 L28.4674951,57.7174951 C28.4674951,58.4270802 29.0401165,59 29.7497016,59 L43.8587475,59 C52.3460177,59 59.25,52.0960177 59.25,43.6084492 L59.25,15.3912525 C59.25,6.90398232 52.3460177,0 43.8587475,0 Z" id="Fill-1" fill="#333C4E" mask="url(#mask-2)"></path>
                <rect id="Rectangle" stroke="#00D2FF" stroke-width="2.5" fill="#FFFFFF" fill-rule="nonzero" mask="url(#mask-2)" x="29.25" y="21.25" width="13.5" height="16.5" rx="2"></rect>
            </g>
        </g>
    </g>
</svg>