<?xml version="1.0" encoding="UTF-8"?>
<svg width="82px" height="65px" viewBox="0 0 82 65" version="1.1" xmlns="http://www.w3.org/2000/svg" xmlns:xlink="http://www.w3.org/1999/xlink">
    <!-- Generator: Sketch 52.4 (67378) - http://www.bohemiancoding.com/sketch -->
    <title>verify-05</title>
    <desc>Created with Sketch.</desc>
    <g id="Home" stroke="none" stroke-width="1" fill="none" fill-rule="evenodd">
        <g id="Home-" transform="translate(-327.000000, -4329.000000)">
            <g id="verify-05" transform="translate(327.000000, 4329.000000)">
                <path d="M5.93478818,41.0877328 C5.63716502,40.7899495 5.22411084,40.618484 4.80305172,40.618484 C4.38199261,40.618484 3.96893842,40.7899495 3.67115517,41.0877328 C3.37337192,41.3853559 3.2020665,41.7969692 3.2020665,42.2194692 C3.2020665,42.6406884 3.37321182,43.0535825 3.67115517,43.3515259 C3.96893842,43.649149 4.38199261,43.8204544 4.80305172,43.8204544 C5.22411084,43.8204544 5.63716502,43.6493091 5.93478818,43.3515259 C6.23257143,43.0521416 6.40403695,42.6406884 6.40403695,42.2194692 C6.40403695,41.7984101 6.23273153,41.3853559 5.93478818,41.0877328" id="Fill-1" fill="#333C4E"></path>
                <g id="Group-5" transform="translate(0.000000, 0.000160)" fill="#333C4E">
                    <path d="M9.13706281,3.83066133 L5.93509236,0.628690887 C5.30974754,0.00366625616 4.29632389,0.00366625616 3.67081897,0.628690887 L0.468848522,3.83066133 C-0.156336207,4.45584606 -0.156336207,5.4695899 0.468848522,6.09493473 C1.09419335,6.71995936 2.107617,6.71995936 2.73312192,6.09493473 L3.20205049,5.62616626 L3.20205049,35.7639126 C3.20205049,36.6479766 3.91897167,37.3648978 4.80303571,37.3648978 C5.68709975,37.3648978 6.40402094,36.6479766 6.40402094,35.7639126 L6.40402094,5.62616626 L6.87294951,6.09509483 C7.18562192,6.40744704 7.59531404,6.5638633 8.00500616,6.5638633 C8.41469828,6.5638633 8.82439039,6.40744704 9.13706281,6.09493473 C9.76224754,5.46975 9.76224754,4.45600616 9.13706281,3.83066133" id="Fill-3"></path>
                </g>
                <g id="Group-8" transform="translate(3.201970, 31.059273)" fill="#333C4E">
                    <path d="M78.2998645,27.8456638 L75.0978941,24.6436933 C74.4725493,24.0186687 73.4591256,24.0186687 72.8334606,24.6436933 C72.208436,25.268718 72.208436,26.2824618 72.8334606,26.9079667 L73.3025493,27.3767352 L67.5567734,27.3767352 L67.5567734,4.90946921 C67.5567734,4.02556527 66.8400123,3.30848399 65.9557882,3.30848399 C65.0718842,3.30848399 64.354803,4.02556527 64.354803,4.90946921 L64.354803,27.3765751 L47.0058867,27.3765751 L47.0058867,17.1302697 C47.0058867,16.2463658 46.2889655,15.5292845 45.4049015,15.5292845 C44.5208374,15.5292845 43.8039163,16.2463658 43.8039163,17.1302697 L43.8039163,27.3765751 L30.4949261,27.3765751 L30.4949261,1.68492488 C30.4949261,0.800860837 29.7780049,0.0839396552 28.8939409,0.0839396552 C28.0098768,0.0839396552 27.2929557,0.800860837 27.2929557,1.68492488 L27.2929557,27.3765751 L14.4386453,27.3765751 L14.4386453,17.3704175 C14.4386453,16.4865135 13.7217241,15.7694323 12.8376601,15.7694323 C11.9535961,15.7694323 11.2366749,16.4865135 11.2366749,17.3704175 L11.2366749,27.3765751 L3.20213054,27.3765751 L3.20213054,18.1622648 C3.20213054,17.2782007 2.48520936,16.5612796 1.60114532,16.5612796 C0.717081281,16.5612796 0.000160098522,17.2782007 0.000160098522,18.1622648 L0.000160098522,28.9775603 C0.000160098522,29.8617845 0.717081281,30.5785456 1.60114532,30.5785456 L73.3023892,30.5785456 L72.8333005,31.0476342 C72.2082759,31.6726589 72.2082759,32.6864027 72.8333005,33.3119076 C73.146133,33.62442 73.5558251,33.7806761 73.9655172,33.7806761 C74.3750493,33.7806761 74.7849015,33.62442 75.0975739,33.3119076 L78.2995443,30.1099372 C78.9250493,29.4844323 78.9250493,28.4706884 78.2998645,27.8456638" id="Fill-6"></path>
                </g>
                <path d="M69.1578387,20.9232919 C67.7360037,20.9232919 66.5792919,19.7662599 66.5792919,18.3444249 C66.5792919,16.9225899 67.7358436,15.765718 69.1578387,15.765718 C70.5798337,15.765718 71.7365456,16.9225899 71.7365456,18.3444249 C71.7365456,19.7662599 70.5796736,20.9232919 69.1578387,20.9232919 M48.606952,41.0471958 C47.1849569,41.0471958 46.028085,39.8901638 46.028085,38.4683288 C46.028085,37.0464938 47.1849569,35.8896219 48.606952,35.8896219 C50.0287869,35.8896219 51.1854988,37.0463337 51.1854988,38.4683288 C51.1854988,39.8903239 50.0287869,41.0471958 48.606952,41.0471958 M32.0958313,25.102984 C30.6741564,25.102984 29.5169643,23.9461121 29.5169643,22.5242771 C29.5169643,21.1024421 30.6738362,19.9454101 32.0958313,19.9454101 C33.5178264,19.9454101 34.6745382,21.1024421 34.6745382,22.5242771 C34.6745382,23.9461121 33.5176663,25.102984 32.0958313,25.102984 M16.0397106,41.0560012 C14.6178756,41.0560012 13.4610037,39.8991293 13.4610037,38.4772943 C13.4610037,37.0554594 14.6175554,35.8984273 16.0395505,35.8984273 C16.7361392,35.8984273 17.368048,36.1771589 17.832814,36.6276761 C17.8404988,36.6358411 17.847383,36.6448067 17.8553879,36.6528116 C17.8648337,36.6622574 17.8752401,36.6702623 17.8850062,36.679548 C18.338085,37.1444741 18.6185776,37.7783042 18.6185776,38.4772943 C18.6185776,39.8992894 17.4615456,41.0560012 16.0397106,41.0560012 M69.1575185,12.5639076 C65.9699569,12.5639076 63.3770012,15.1570234 63.3770012,18.344585 C63.3770012,19.2587475 63.591053,20.1237599 63.9706466,20.8930333 L51.4341318,33.4293879 C50.5974569,32.9580579 49.6331835,32.6878116 48.6064717,32.6878116 C47.6026539,32.6878116 46.6580727,32.9454101 45.8345259,33.3972081 L37.3553879,24.9180702 C37.6888732,24.188181 37.8761884,23.3780825 37.8761884,22.5244372 C37.8761884,19.3368756 35.2830727,16.7435998 32.0955111,16.7435998 C28.9079495,16.7435998 26.3148337,19.3368756 26.3148337,22.5244372 C26.3148337,23.5080825 26.562186,24.4347328 26.9973337,25.2462722 L18.8279865,33.4156195 C18.0004372,32.9578978 17.0499323,32.6964569 16.0392303,32.6964569 C12.8516687,32.6964569 10.258553,35.2895727 10.258553,38.4771342 C10.258553,41.6646958 12.8519889,44.2578116 16.0395505,44.2578116 C19.2271121,44.2578116 21.8203879,41.6646958 21.8203879,38.4771342 C21.8203879,37.4617894 21.5563855,36.5074421 21.0949815,35.6773313 L29.2303879,27.5417648 C30.0757081,28.026383 31.0534298,28.3051145 32.0956712,28.3051145 C33.2651909,28.3051145 34.3540209,27.9549791 35.2646613,27.3555702 L43.5609667,35.6518756 C43.0934791,36.4858288 42.8257943,37.4462599 42.8257943,38.4684889 C42.8257943,41.6560505 45.4190702,44.2493264 48.6064717,44.2493264 C51.7940333,44.2493264 54.387149,41.6560505 54.387149,38.4684889 C54.387149,37.469314 54.1321121,36.5285751 53.6841564,35.70775 L66.1270135,23.2647328 C67.0088362,23.8098682 68.046915,24.1254224 69.1575185,24.1254224 C72.34508,24.1254224 74.9381958,21.5321466 74.9381958,18.344585 C74.9381958,15.1570234 72.34508,12.5639076 69.1575185,12.5639076" id="Fill-9" fill="#333C4E"></path>
                <circle id="Oval" stroke="#00D2FF" stroke-width="3" fill="#FFFFFF" fill-rule="nonzero" cx="48.5" cy="38.5" r="4.5"></circle>
                <path d="M70.2897833,28.166101 C69.992,27.8683177 69.5789458,27.6970123 69.1578867,27.6970123 C68.7368276,27.6970123 68.3237734,27.8681576 68.0259901,28.166101 C67.728367,28.4638842 67.5569015,28.8769384 67.5569015,29.2979975 C67.5569015,29.7190567 67.7282069,30.1321108 68.0259901,30.429734 C68.3237734,30.7275172 68.7368276,30.8989828 69.1578867,30.8989828 C69.5789458,30.8989828 69.992,30.7276773 70.2897833,30.429734 C70.5874064,30.1321108 70.7588719,29.7190567 70.7588719,29.2979975 C70.7588719,28.8769384 70.5875665,28.4638842 70.2897833,28.166101" id="Fill-11" fill="#333C4E"></path>
            </g>
        </g>
    </g>
</svg>