<?xml version="1.0" encoding="UTF-8"?>
<svg width="76px" height="70px" viewBox="0 0 76 70" version="1.1" xmlns="http://www.w3.org/2000/svg" xmlns:xlink="http://www.w3.org/1999/xlink">
    <!-- Generator: Sketch 52.4 (67378) - http://www.bohemiancoding.com/sketch -->
    <title>Group 17</title>
    <desc>Created with Sketch.</desc>
    <defs>
        <polygon id="path-1" points="12.5 3.5 9.5 6.5 12.5 9.5 12.5 12.5 9.5 12.5 6.5 9.5 3.5 12.5 0.5 12.5 0.5 9.5 3.5 6.5 0.5 3.5 0.5 0.5 3.5 0.5 6.5 3.5 9.5 0.5 12.5 0.5"></polygon>
    </defs>
    <g id="Home" stroke="none" stroke-width="1" fill="none" fill-rule="evenodd">
        <g id="Home-" transform="translate(-586.000000, -4325.000000)">
            <g id="Group-17" transform="translate(588.000000, 4327.000000)">
                <path d="M24.0759442,33.1184604 L46,19" id="Line-8" stroke="#333C4E" stroke-width="3.7" stroke-linecap="round" fill-rule="nonzero"></path>
                <path d="M23,41 L43.5,52" id="Line-8" stroke="#333C4E" stroke-width="3.7" stroke-linecap="round" fill-rule="nonzero"></path>
                <g id="Group-21" transform="translate(0.000000, 24.000000)">
                    <circle id="Oval" stroke="#00D2FF" stroke-width="2.7" fill="#FAFAFA" fill-rule="nonzero" cx="12.5" cy="12.5" r="12.5"></circle>
                    <g id="verify-02" transform="translate(6.000000, 6.000000)">
                        <mask id="mask-2" fill="white">
                            <use xlink:href="#path-1"></use>
                        </mask>
                        <use id="Mask" stroke="#00D2FF" stroke-width="2.5" xlink:href="#path-1"></use>
                    </g>
                </g>
                <circle id="Oval" stroke="#333C4E" stroke-width="3.5" fill-rule="nonzero" cx="57.5" cy="60.5" r="5.5"></circle>
                <circle id="Oval" stroke="#333C4E" stroke-width="3.5" fill-rule="nonzero" cx="63.5" cy="8.5" r="8.5"></circle>
                <circle id="Oval" fill="#333C4E" fill-rule="nonzero" cx="48" cy="55" r="2"></circle>
                <circle id="Oval" fill="#333C4E" fill-rule="nonzero" cx="51" cy="16" r="2"></circle>
            </g>
        </g>
    </g>
</svg>