<?xml version="1.0" encoding="UTF-8"?>
<svg width="63px" height="63px" viewBox="0 0 63 63" version="1.1" xmlns="http://www.w3.org/2000/svg" xmlns:xlink="http://www.w3.org/1999/xlink">
    <!-- Generator: Sketch 52.4 (67378) - http://www.bohemiancoding.com/sketch -->
    <title>verify-01</title>
    <desc>Created with Sketch.</desc>
    <g id="Home" stroke="none" stroke-width="1" fill="none" fill-rule="evenodd" stroke-linecap="round" stroke-linejoin="round">
        <g id="Home-" transform="translate(-342.000000, -3893.000000)" stroke-width="2.3">
            <g id="verify-01" transform="translate(344.000000, 3895.000000)">
                <path d="M20.5708874,42 C24.7301884,37.840699 34.2685489,37.840699 38.4291126,42 L42,38.4291126 C37.8394363,34.2685489 37.8394363,24.7314511 42,20.5708874 L38.4291126,17 C34.2685489,21.1605637 24.7301884,21.1605637 20.5708874,17 L17,20.5708874 C21.159301,24.7314511 21.159301,34.2685489 17,38.4291126 L20.5708874,42 Z" id="Stroke-1" stroke="#333C4E"></path>
                <path d="M31.267721,31.267721 C32.244093,30.2913489 32.244093,28.7086511 31.267721,27.732279 C30.2913489,26.755907 28.7086511,26.755907 27.732279,27.732279 C26.755907,28.7086511 26.755907,30.2913489 27.732279,31.267721 C28.7086511,32.244093 30.2913489,32.244093 31.267721,31.267721 Z" id="Stroke-3" stroke="#333C4E"></path>
                <path d="M48.8280488,15.8290488 C50.3906504,14.2664472 50.3906504,11.7345527 48.8280488,10.1719512 C47.2667806,8.60934961 44.7335528,8.60934961 43.1709512,10.1719512 C41.6096829,11.7345527 41.6096829,14.2664472 43.1709512,15.8290488 C44.7335528,17.3903171 47.2667806,17.3903171 48.8280488,15.8290488 Z" id="Stroke-5" stroke="#333C4E"></path>
                <path d="M43,16 L40,19" id="Stroke-7" stroke="#333C4E"></path>
                <path d="M43.5551303,25.7690896 C47.6413463,26.5478535 52.0291858,25.3569558 55.1923305,22.1937962 C60.2692232,17.1168796 60.2692232,8.88460407 55.1923305,3.80768746 C50.1141376,-1.26922915 41.8832009,-1.26922915 36.8063082,3.80768746 C33.6418634,6.97084702 32.4522714,11.3587071 33.2310316,15.4449424" id="Stroke-9" stroke="#333C4E"></path>
                <path d="M46,4 C43.696,4 41.3932857,4.87942857 39.6357143,6.63571429 C37.8781429,8.39328571 37,10.696 37,13" id="Stroke-11" stroke="#333C4E"></path>
                <path d="M46,22 C48.304,22 50.6067143,21.1218571 52.3642857,19.3642857 C54.1205714,17.6067143 55,15.304 55,13" id="Stroke-13" stroke="#333C4E"></path>
                <path d="M10.1719512,43.1709512 C8.60934961,44.7335528 8.60934961,47.2654473 10.1719512,48.8280488 C11.7332194,50.3906504 14.2664472,50.3906504 15.8290488,48.8280488 C17.3903171,47.2654473 17.3903171,44.7335528 15.8290488,43.1709512 C14.2664472,41.6096829 11.7332194,41.6096829 10.1719512,43.1709512 Z" id="Stroke-15" stroke="#333C4E"></path>
                <path d="M16,43 L19,40" id="Stroke-17" stroke="#333C4E"></path>
                <path d="M15.4448697,33.2309104 C11.3586537,32.4521465 6.97081423,33.6430442 3.80766954,36.8062038 C-1.26922318,41.8831204 -1.26922318,50.1153959 3.80766954,55.1923125 C8.88586237,60.2692292 17.1167991,60.2692292 22.1936918,55.1923125 C25.3581366,52.029153 26.5477286,47.6412929 25.7689684,43.5550576" id="Stroke-19" stroke="#333C4E"></path>
                <path d="M13,55 C15.304,55 17.6067143,54.1205714 19.3642857,52.3642857 C21.1218571,50.6067143 22,48.304 22,46" id="Stroke-21" stroke="#333C4E"></path>
                <path d="M13,37 C10.696,37 8.39328571,37.8781429 6.63571429,39.6357143 C4.87942857,41.3932857 4,43.696 4,46" id="Stroke-23" stroke="#333C4E"></path>
                <path d="M43,43 L40,40" id="Stroke-27" stroke="#333C4E"></path>
                <path d="M43.1709512,48.8280488 C44.7335528,50.3906504 47.2654473,50.3906504 48.8280488,48.8280488 C50.3906504,47.2667806 50.3906504,44.7335528 48.8280488,43.1709512 C47.2654473,41.6096829 44.7335528,41.6096829 43.1709512,43.1709512 C41.6096829,44.7335528 41.6096829,47.2667806 43.1709512,48.8280488 Z" id="Stroke-25" stroke="#00D2FF"></path>
                <path d="M33.2309104,43.5551303 C32.4521465,47.6413463 33.6430442,52.0291858 36.8062038,55.1923305 C41.8831204,60.2692232 50.1153959,60.2692232 55.1923125,55.1923305 C60.2692292,50.1141376 60.2692292,41.8832009 55.1923125,36.8063082 C52.029153,33.6418634 47.6412929,32.4522714 43.5550576,33.2310316" id="Stroke-29" stroke="#333C4E"></path>
                <path d="M55,46 C55,43.696 54.1205714,41.3932857 52.3642857,39.6357143 C50.6067143,37.8781429 48.304,37 46,37" id="Stroke-31" stroke="#333C4E"></path>
                <path d="M37,46 C37,48.304 37.8781429,50.6067143 39.6357143,52.3642857 C41.3932857,54.1205714 43.696,55 46,55" id="Stroke-33" stroke="#333C4E"></path>
                <path d="M15.8290488,10.1719512 C14.2664472,8.60934961 11.7345527,8.60934961 10.1719512,10.1719512 C8.60934961,11.7332194 8.60934961,14.2664472 10.1719512,15.8290488 C11.7345527,17.3903171 14.2664472,17.3903171 15.8290488,15.8290488 C17.3903171,14.2664472 17.3903171,11.7332194 15.8290488,10.1719512 Z" id="Stroke-35" stroke="#333C4E"></path>
                <path d="M16,16 L19,19" id="Stroke-37" stroke="#333C4E"></path>
                <path d="M25.7690896,15.4448697 C26.5478535,11.3586537 25.3569558,6.97081423 22.1937962,3.80766954 C17.1168796,-1.26922318 8.88460407,-1.26922318 3.80768746,3.80766954 C-1.26922915,8.88586237 -1.26922915,17.1167991 3.80768746,22.1936918 C6.97084702,25.3581366 11.3587071,26.5477286 15.4449424,25.7689684" id="Stroke-39" stroke="#333C4E"></path>
                <path d="M4,13 C4,15.304 4.87942857,17.6067143 6.63571429,19.3642857 C8.39328571,21.1218571 10.696,22 13,22" id="Stroke-41" stroke="#333C4E"></path>
                <path d="M22,13 C22,10.696 21.1218571,8.39328571 19.3642857,6.63571429 C17.6067143,4.87942857 15.304,4 13,4" id="Stroke-43" stroke="#333C4E"></path>
            </g>
        </g>
    </g>
</svg>