<svg width="100" height="100" viewBox="0 0 100 100" fill="none" xmlns="http://www.w3.org/2000/svg">
<path fill-rule="evenodd" clip-rule="evenodd" d="M80.7646 64.8478C80.6646 65.3778 80.3436 65.8408 79.8796 66.1198L59.2616 78.6708C58.2276 79.2998 57.0396 79.6328 55.8296 79.6328H28.7956C28.9916 79.1048 29.0946 78.5458 29.0996 77.9838V58.1828C29.0916 57.9988 29.0736 57.8158 29.0446 57.6328H31.0776C33.1076 57.6358 35.0766 58.3268 36.6626 59.5918C38.6396 61.1688 41.0926 62.0308 43.6216 62.0338H49.3746C50.9196 62.0368 52.3506 62.8478 53.1486 64.1708L53.2456 64.3318C53.8466 65.3328 53.7826 66.5978 53.0826 67.5338H46.3976C44.2256 67.5308 42.1016 68.1738 40.2956 69.3808L39.4906 69.9178C39.1606 70.1348 38.9736 70.5118 38.9976 70.9048C39.0226 71.2978 39.2556 71.6488 39.6096 71.8228C39.9626 71.9958 40.3826 71.9678 40.7096 71.7478L41.5166 71.2108C42.9606 70.2448 44.6606 69.7318 46.3976 69.7328H56.1746C56.7666 69.7328 57.3536 69.6378 57.9136 69.4518L71.9486 64.7728C71.9666 64.7738 71.9816 64.7838 71.9996 64.7838C72.2456 64.7788 72.4846 64.6898 72.6726 64.5318L78.2766 62.6628C79.0596 62.4018 79.9236 62.6728 80.4166 63.3358C80.7436 63.7678 80.8696 64.3178 80.7646 64.8478ZM36.7996 52.1328C37.4506 52.1368 38.0916 52.2868 38.6766 52.5728C39.1576 52.7998 39.7306 52.6528 40.0416 52.2228C41.7346 49.8568 44.9816 49.2278 47.4356 50.7888C47.7146 50.9658 48.0576 51.0078 48.3706 50.9038C48.6846 50.7998 48.9346 50.5608 49.0516 50.2518C49.3616 49.4308 50.1346 48.8758 51.0126 48.8458C51.0416 48.8488 51.0716 48.8548 51.1006 48.8548C51.1276 48.8548 51.1536 48.8428 51.1806 48.8408C52.3416 48.8758 53.2726 49.8128 53.3016 50.9738C53.2976 51.0038 53.2856 51.1088 53.2846 51.1388C53.2646 51.4798 53.4056 51.8108 53.6626 52.0348C53.9216 52.2568 54.2696 52.3478 54.6036 52.2788C55.0796 52.1818 55.5646 52.1328 56.0496 52.1328C58.7356 52.1288 61.1956 53.6358 62.4106 56.0318C62.6376 56.4738 63.1326 56.7088 63.6186 56.6058C64.5826 56.4078 65.5846 56.6488 66.3536 57.2628C67.1216 57.8768 67.5786 58.8008 67.5996 59.7848C67.5966 59.8218 67.5946 59.8588 67.5946 59.8878C67.5946 60.4348 67.9966 60.8988 68.5386 60.9768C69.5746 61.1288 70.4336 61.8558 70.7576 62.8508L57.2186 67.3638C56.8816 67.4758 56.5296 67.5338 56.1746 67.5338H55.5426C56.0656 66.1008 55.9146 64.5078 55.1316 63.1998L55.0346 63.0378C53.8366 61.0548 51.6926 59.8388 49.3746 59.8328H43.6216C41.5916 59.8298 39.6226 59.1398 38.0366 57.8738C36.4466 56.6088 34.5396 55.8008 32.5236 55.5378C32.9856 53.5478 34.7566 52.1378 36.7996 52.1328ZM26.9006 77.9828C26.8986 79.5008 25.6676 80.7308 24.1506 80.7328H21.9506C20.4316 80.7308 19.2016 79.5008 19.2006 77.9828V58.1828C19.2016 56.6648 20.4316 55.4348 21.9506 55.4328H24.1506C25.6676 55.4348 26.8986 56.6648 26.9006 58.1828V77.9828ZM54.7906 29.3548C54.7476 30.3518 54.8286 31.3498 55.0316 32.3268C54.1226 32.3208 53.2596 31.9318 52.6526 31.2558C51.2026 29.2438 50.0716 27.0188 49.2996 24.6608C51.4786 24.5348 53.6626 24.7398 55.7796 25.2678C55.1906 26.5538 54.8556 27.9418 54.7906 29.3548ZM59.8296 23.4738C64.0406 19.9178 71.1966 19.2178 76.1846 19.2178C77.9686 19.2178 79.4756 19.3068 80.4706 19.3878C79.4536 22.7508 76.4376 32.0278 72.7496 36.8788C71.4016 38.6338 69.3456 39.7018 67.1346 39.7968C64.3796 39.9428 61.6976 38.8948 59.7706 36.9198C59.6306 36.7758 59.5056 36.6188 59.3746 36.4648C61.6796 34.3748 64.2356 32.5788 66.9836 31.1208C67.5296 30.8538 67.7556 30.1948 67.4886 29.6498C67.2216 29.1038 66.5626 28.8778 66.0166 29.1448C63.1666 30.6238 60.5136 32.4548 58.1186 34.5948C57.3016 33.0118 56.9106 31.2428 56.9886 29.4628C57.0546 27.1568 58.0856 24.9848 59.8296 23.4738ZM72.8526 62.1528C72.3606 60.6778 71.2086 59.5168 69.7386 59.0118C69.3126 56.2028 66.8186 54.1798 63.9816 54.3428C62.1466 51.3958 58.8296 49.7078 55.3676 49.9568C54.9926 48.4918 53.8906 47.3198 52.4506 46.8538C53.4786 43.5078 55.3146 40.4658 57.7966 37.9968C57.9296 38.1498 58.0536 38.3088 58.1946 38.4528C60.4086 40.7138 63.4346 41.9948 66.5986 42.0128C66.8216 42.0128 67.0456 42.0068 67.2686 41.9938C70.1196 41.8638 72.7676 40.4788 74.5006 38.2098C79.2886 31.9108 82.8126 19.2518 82.9596 18.7158C83.0446 18.4098 82.9926 18.0798 82.8166 17.8158C82.6406 17.5498 82.3586 17.3738 82.0426 17.3328C81.3946 17.2468 66.0716 15.3238 58.4106 21.7928C57.8696 22.2488 57.3786 22.7628 56.9476 23.3238C53.9306 22.4928 50.7856 22.2378 47.6736 22.5728C47.3496 22.6098 47.0586 22.7888 46.8796 23.0628C46.7006 23.3368 46.6526 23.6758 46.7476 23.9888C46.8226 24.2268 48.5696 29.8598 50.9746 32.6798C52.0396 33.8888 53.5836 34.5668 55.1956 34.5328C55.3536 34.5328 55.5126 34.5198 55.6726 34.5078C55.9006 35.0778 56.1696 35.6298 56.4786 36.1608C53.4866 39.0638 51.3226 42.7128 50.2086 46.7328C49.1676 46.9518 48.2416 47.5398 47.5966 48.3868C44.5706 47.0498 41.0276 47.8048 38.8076 50.2578C38.1606 50.0428 37.4826 49.9338 36.7996 49.9328C33.5826 49.9388 30.8376 52.2608 30.2996 55.4328H28.2616C27.3446 54.0588 25.8016 53.2338 24.1506 53.2328H21.9506C19.2176 53.2358 17.0026 55.4508 16.9996 58.1828V77.9828C17.0026 80.7158 19.2176 82.9298 21.9506 82.9328H24.1506C25.2696 82.9278 26.3546 82.5398 27.2226 81.8328H55.8296C57.4436 81.8328 59.0266 81.3888 60.4056 80.5498L81.0236 67.9988C82.8116 66.9088 83.4956 64.6508 82.6146 62.7508C81.7336 60.8508 79.5666 59.9148 77.5796 60.5768L72.8526 62.1528Z" fill="white" stroke="white" stroke-width="0.5"/>
<path fill-rule="evenodd" clip-rule="evenodd" d="M42.1357 56.5109C42.7307 56.6319 43.3117 56.2469 43.4327 55.6529C43.5917 54.8849 44.2667 54.3339 45.0497 54.3329C45.4067 54.3319 45.7537 54.4479 46.0387 54.6619C46.5257 55.0249 47.2117 54.9259 47.5757 54.4419C47.9407 53.9569 47.8437 53.2699 47.3607 52.9039C46.6957 52.4019 45.8837 52.1309 45.0497 52.1329C43.2217 52.1369 41.6467 53.4229 41.2767 55.2139C41.1567 55.8089 41.5397 56.3899 42.1357 56.5109Z" fill="white" stroke="white" stroke-width="0.5"/>
<path fill-rule="evenodd" clip-rule="evenodd" d="M53.9082 56.8742C54.2612 57.0502 54.6792 57.0232 55.0082 56.8052C55.6622 56.3752 56.5282 56.4642 57.0832 57.0172C57.3372 57.2682 57.5012 57.5962 57.5502 57.9492C57.6272 58.4902 58.0912 58.8942 58.6372 58.8942C58.6902 58.8942 58.7422 58.8912 58.7952 58.8832C59.3962 58.7972 59.8142 58.2402 59.7282 57.6392C59.5422 56.3322 58.6982 55.2122 57.4952 54.6712C56.2912 54.1302 54.8932 54.2432 53.7932 54.9722C53.4642 55.1882 53.2762 55.5632 53.3012 55.9562C53.3242 56.3492 53.5562 56.6992 53.9082 56.8742Z" fill="white" stroke="white" stroke-width="0.5"/>
<path d="M82 18.2533C76.3975 17.6916 71.0809 18.0645 66.0502 19.372C58.5042 21.3333 56.0582 27.3207 56.0582 29.4735C56.0582 31.6264 54.7957 39.5751 64.0269 41.7138C70.181 43.1397 74.7841 39.2388 77.8362 30.011L82 18.2533Z" stroke="white" stroke-width="3"/>
<path d="M57 37.0001C62.1592 32.3334 65.4925 30.0001 67 30.0001" stroke="white" stroke-width="3" stroke-linecap="round"/>
</svg>
