<?xml version="1.0" encoding="UTF-8"?>
<svg width="68px" height="72px" viewBox="0 0 68 72" version="1.1" xmlns="http://www.w3.org/2000/svg" xmlns:xlink="http://www.w3.org/1999/xlink">
    <!-- Generator: Sketch 52.4 (67378) - http://www.bohemiancoding.com/sketch -->
    <title>Group 32</title>
    <desc>Created with Sketch.</desc>
    <defs>
        <polygon id="path-1" points="0.4741 0.156 3.3091 0.156 3.3091 6.0836 0.4741 6.0836"></polygon>
        <polygon id="path-3" points="0 0.7647 5.9283 0.7647 5.9283 3.5987 0 3.5987"></polygon>
    </defs>
    <g id="Home" stroke="none" stroke-width="1" fill="none" fill-rule="evenodd">
        <g id="Home-" transform="translate(-1109.000000, -3623.000000)">
            <g id="Group-32" transform="translate(1109.000000, 3622.000000)">
                <path d="M56.855,11.1559 L54.667,13.3429" id="Fill-1" fill="#333C4E"></path>
                <path d="M11.5689,13.3429 L9.3829,11.1559" id="Fill-2" fill="#333C4E"></path>
                <path d="M59.9468,52.6955 L57.7598,50.5085" id="Fill-3" fill="#333C4E"></path>
                <path d="M8.4771,50.5084 L6.2891,52.6954" id="Fill-4" fill="#333C4E"></path>
                <g id="Group-31" transform="translate(0.000000, 0.844300)">
                    <g id="Group-7" transform="translate(32.000000, 0.000000)">
                        <mask id="mask-2" fill="white">
                            <use xlink:href="#path-1"></use>
                        </mask>
                        <g id="Clip-6"></g>
                        <path d="M1.8911,6.0836 C2.6741,6.0836 3.3091,5.4486 3.3091,4.6666 L3.3091,1.5736 C3.3091,0.7906 2.6741,0.1556 1.8911,0.1556 C1.1091,0.1556 0.4741,0.7906 0.4741,1.5736 L0.4741,4.6666 C0.4741,5.4486 1.1091,6.0836 1.8911,6.0836" id="Fill-5" fill="#333C4E" mask="url(#mask-2)"></path>
                    </g>
                    <path d="M66.3658,28.7642 L63.2728,28.7642 C62.4898,28.7642 61.8558,29.3982 61.8558,30.1812 C61.8558,30.9642 62.4898,31.5992 63.2728,31.5992 L66.3658,31.5992 C67.1488,31.5992 67.7828,30.9642 67.7828,30.1812 C67.7828,29.3982 67.1488,28.7642 66.3658,28.7642" id="Fill-8" fill="#333C4E"></path>
                    <g id="Group-12" transform="translate(0.000000, 28.000000)">
                        <mask id="mask-4" fill="white">
                            <use xlink:href="#path-3"></use>
                        </mask>
                        <g id="Clip-11"></g>
                        <path d="M5.9283,2.1817 C5.9283,1.3987 5.2933,0.7647 4.5103,0.7647 L1.4173,0.7647 C0.6343,0.7647 -0.0007,1.3987 -0.0007,2.1817 C-0.0007,2.9647 0.6343,3.5987 1.4173,3.5987 L4.5103,3.5987 C5.2933,3.5987 5.9283,2.9647 5.9283,2.1817" id="Fill-10" fill="#333C4E" mask="url(#mask-4)"></path>
                    </g>
                    <path d="M54.6675,13.9161 C55.0305,13.9161 55.3935,13.7781 55.6705,13.5011 L57.8565,11.3141 C58.4105,10.7601 58.4105,9.8621 57.8565,9.3091 C57.3035,8.7551 56.4055,8.7551 55.8525,9.3091 L53.6645,11.4961 C53.1115,12.0491 53.1115,12.9471 53.6645,13.5011 C53.9415,13.7781 54.3055,13.9161 54.6675,13.9161" id="Fill-13" fill="#333C4E"></path>
                    <path d="M12.5718,11.4962 L10.3848,9.3082 C9.8318,8.7562 8.9338,8.7562 8.3808,9.3082 C7.8268,9.8622 7.8268,10.7602 8.3808,11.3142 L10.5668,13.5012 C10.8438,13.7782 11.2068,13.9162 11.5688,13.9162 C11.9318,13.9162 12.2958,13.7782 12.5718,13.5012 C13.1258,12.9472 13.1258,12.0492 12.5718,11.4962" id="Fill-15" fill="#333C4E"></path>
                    <path d="M58.7622,48.6622 C58.2092,48.1092 57.3112,48.1092 56.7572,48.6622 C56.2032,49.2162 56.2032,50.1132 56.7572,50.6672 L58.9452,52.8542 C59.2212,53.1302 59.5842,53.2692 59.9472,53.2692 C60.3102,53.2692 60.6732,53.1302 60.9502,52.8542 C61.5032,52.3002 61.5032,51.4032 60.9502,50.8492 L58.7622,48.6622 Z" id="Fill-17" fill="#333C4E"></path>
                    <path d="M7.4742,48.6622 L5.2872,50.8492 C4.7342,51.4022 4.7342,52.3002 5.2872,52.8542 C5.5652,53.1302 5.9272,53.2692 6.2892,53.2692 C6.6532,53.2692 7.0152,53.1302 7.2922,52.8542 L9.4792,50.6672 C10.0332,50.1132 10.0332,49.2162 9.4792,48.6622 C8.9252,48.1092 8.0282,48.1092 7.4742,48.6622" id="Fill-19" fill="#333C4E"></path>
                    <path d="M42.5835,60.2408 L33.6435,60.2408 C32.8595,60.2408 32.2255,60.8758 32.2255,61.6578 C32.2255,62.4408 32.8595,63.0758 33.6435,63.0758 L42.3805,63.0758 C41.5775,66.5588 38.4525,69.1648 34.7295,69.1648 L32.8115,69.1648 C28.4805,69.1648 24.9565,65.6408 24.9565,61.3108 L24.9565,54.3618 C27.6915,55.5688 30.7155,56.2408 33.8925,56.2408 C36.9745,56.2408 39.9125,55.6088 42.5835,54.4678 L42.5835,60.2408 Z M33.8925,11.8548 C29.4635,11.8548 25.1865,13.1558 21.5245,15.6168 C20.8755,16.0538 20.7025,16.9338 21.1395,17.5838 C21.5755,18.2338 22.4565,18.4068 23.1065,17.9698 C26.2995,15.8238 30.0275,14.6898 33.8925,14.6898 C44.5655,14.6898 53.2495,23.3738 53.2495,34.0478 C53.2495,44.1968 45.3995,52.5458 35.4525,53.3428 L35.4525,44.4878 C35.4545,44.4218 35.4565,44.3058 35.4525,44.1468 L35.4525,40.9148 C39.1295,40.8808 32.9675,36.4608 32.7745,37.6028 C32.5565,37.3598 32.6245,41.9278 32.6175,45.9048 L32.6175,53.3628 C22.5355,52.7038 14.5335,44.2938 14.5335,34.0478 C14.5335,30.9908 15.2255,28.0668 16.5895,25.3568 C16.9415,24.6568 16.6605,23.8048 15.9605,23.4528 C15.2615,23.0998 14.4085,23.3818 14.0575,24.0818 C12.4925,27.1908 11.6985,30.5438 11.6985,34.0478 C11.6985,41.9648 15.8655,48.9258 22.1215,52.8548 L22.1215,61.3108 C22.1215,67.2048 26.9175,71.9998 32.8125,71.9998 L34.7295,71.9998 C40.6235,71.9998 45.4195,67.2048 45.4195,61.3108 L45.4195,53.0068 C51.8105,49.1068 56.0855,42.0678 56.0855,34.0478 C56.0855,21.8098 46.1295,11.8548 33.8925,11.8548 Z" id="Fill-21" fill="#333C4E"></path>
                    <path d="M28.7935,60.546 L28.7545,60.52 C28.0985,60.093 27.2195,60.279 26.7925,60.935 C26.3655,61.591 26.5515,62.47 27.2075,62.897 L27.2465,62.922 C27.4855,63.078 27.7545,63.151 28.0195,63.151 C28.4815,63.151 28.9375,62.925 29.2085,62.507 C29.6355,61.851 29.4495,60.973 28.7935,60.546" id="Fill-23" fill="#333C4E"></path>
                    <path d="M17.5855,21.5245 L17.6255,21.5505 C17.8635,21.7045 18.1305,21.7785 18.3955,21.7785 C18.8585,21.7785 19.3145,21.5495 19.5855,21.1305 C20.0115,20.4745 19.8235,19.5965 19.1665,19.1705 L19.1275,19.1455 C18.4705,18.7195 17.5925,18.9065 17.1665,19.5645 C16.7405,20.2215 16.9295,21.0985 17.5855,21.5245" id="Fill-25" fill="#333C4E"></path>
                    <path d="M35.565,38.4932 C37.136,38.5432 39.79,38.2462 42.346,36.2052 C44.804,34.2432 45.408,31.5852 45.523,29.9142 C38.038,31.2172 36.078,36.0512 35.565,38.4932 M35.864,41.7182 C34.421,41.7182 33.469,41.4872 33.376,41.4642 L32.154,41.1552 L32.157,39.8952 C32.157,39.7692 32.185,36.7672 34.058,33.6212 C35.771,30.7432 39.398,27.1662 46.942,26.4752 L48.452,26.3372 L48.683,27.8362 C48.725,28.1072 49.645,34.5072 44.36,38.7272 C41.256,41.2042 38.015,41.7182 35.864,41.7182" id="Fill-27" fill="#00D2FF"></path>
                    <path d="M25.2193,35.5787 C25.3753,36.8237 25.9053,38.5417 27.5153,39.8497 C29.1613,41.1857 30.8893,41.5187 32.0663,41.5597 C31.9023,40.9387 31.6253,40.1837 31.1623,39.4237 C29.9553,37.4427 27.9613,36.1537 25.2193,35.5787 M32.3033,44.7907 C30.5703,44.7907 27.9653,44.3717 25.4813,42.3547 C21.2363,38.9087 21.9743,33.6877 22.0083,33.4677 L22.2373,31.9617 L23.7523,32.1027 C29.7543,32.6617 32.6473,35.5687 34.0173,37.9087 C35.4873,40.4187 35.5333,42.7567 35.5343,43.0147 L35.5373,44.2697 L34.3223,44.5807 C34.2453,44.6007 33.4723,44.7907 32.3033,44.7907" id="Fill-29" fill="#00D2FF"></path>
                </g>
            </g>
        </g>
    </g>
</svg>