<?xml version="1.0" encoding="UTF-8"?>
<svg width="73px" height="55px" viewBox="0 0 73 55" version="1.1" xmlns="http://www.w3.org/2000/svg" xmlns:xlink="http://www.w3.org/1999/xlink">
    <!-- Generator: Sketch 52.4 (67378) - http://www.bohemiancoding.com/sketch -->
    <title>impact-04@3x</title>
    <desc>Created with Sketch.</desc>
    <defs>
        <rect id="path-1" x="22" y="5" width="37" height="45" rx="5"></rect>
        <mask id="mask-2" maskContentUnits="userSpaceOnUse" maskUnits="objectBoundingBox" x="0" y="0" width="37" height="45" fill="white">
            <use xlink:href="#path-1"></use>
        </mask>
    </defs>
    <g id="Home" stroke="none" stroke-width="1" fill="none" fill-rule="evenodd">
        <g id="Home-" transform="translate(-1106.000000, -3149.000000)">
            <g id="impact-04" transform="translate(1095.000000, 3149.000000)">
                <use id="Rectangle" stroke="#333C4E" mask="url(#mask-2)" stroke-width="4" stroke-dasharray="5,4" fill-rule="nonzero" xlink:href="#path-1"></use>
                <rect id="Rectangle-8" stroke="#333C4E" stroke-width="2.8" fill="#FCFCFC" x="45.4" y="1.4" width="37.2" height="52.2" rx="2"></rect>
                <path d="M51.1269231,13.9 C51.0423077,13.82 51,13.7 51,13.62 C51,13.54 51.0423077,13.42 51.1269231,13.34 L51.7192308,12.78 C51.8884615,12.62 52.1423077,12.62 52.3115385,12.78 L52.3538462,12.82 L54.6807692,15.18 C54.7653846,15.26 54.8923077,15.26 54.9769231,15.18 L60.6461538,9.62 L60.6884615,9.62 C60.8576923,9.46 61.1115385,9.46 61.2807692,9.62 L61.8730769,10.18 C62.0423077,10.34 62.0423077,10.58 61.8730769,10.74 L55.1038462,17.38 C55.0192308,17.46 54.9346154,17.5 54.8076923,17.5 C54.6807692,17.5 54.5961538,17.46 54.5115385,17.38 L51.2115385,14.02 L51.1269231,13.9 Z" id="Shape" stroke="#00D2FF" fill="#00D2FF" fill-rule="nonzero"></path>
                <path d="M51.1269231,28.4 C51.0423077,28.32 51,28.2 51,28.12 C51,28.04 51.0423077,27.92 51.1269231,27.84 L51.7192308,27.28 C51.8884615,27.12 52.1423077,27.12 52.3115385,27.28 L52.3538462,27.32 L54.6807692,29.68 C54.7653846,29.76 54.8923077,29.76 54.9769231,29.68 L60.6461538,24.12 L60.6884615,24.12 C60.8576923,23.96 61.1115385,23.96 61.2807692,24.12 L61.8730769,24.68 C62.0423077,24.84 62.0423077,25.08 61.8730769,25.24 L55.1038462,31.88 C55.0192308,31.96 54.9346154,32 54.8076923,32 C54.6807692,32 54.5961538,31.96 54.5115385,31.88 L51.2115385,28.52 L51.1269231,28.4 Z" id="Shape" stroke="#00D2FF" fill="#00D2FF" fill-rule="nonzero"></path>
                <path d="M51.1269231,43.4 C51.0423077,43.32 51,43.2 51,43.12 C51,43.04 51.0423077,42.92 51.1269231,42.84 L51.7192308,42.28 C51.8884615,42.12 52.1423077,42.12 52.3115385,42.28 L52.3538462,42.32 L54.6807692,44.68 C54.7653846,44.76 54.8923077,44.76 54.9769231,44.68 L60.6461538,39.12 L60.6884615,39.12 C60.8576923,38.96 61.1115385,38.96 61.2807692,39.12 L61.8730769,39.68 C62.0423077,39.84 62.0423077,40.08 61.8730769,40.24 L55.1038462,46.88 C55.0192308,46.96 54.9346154,47 54.8076923,47 C54.6807692,47 54.5961538,46.96 54.5115385,46.88 L51.2115385,43.52 L51.1269231,43.4 Z" id="Shape" stroke="#00D2FF" fill="#00D2FF" fill-rule="nonzero"></path>
                <rect id="Rectangle-8" stroke="#333C4E" stroke-width="2.8" fill="#FCFCFC" x="12.4" y="14.4" width="22.2" height="28.2" rx="2"></rect>
                <text id="101-010-101" font-family="Roboto-Bold, Roboto" font-size="7" font-weight="bold" line-spacing="8" letter-spacing="1.21000004" fill="#333C4E">
                    <tspan x="12.1232324" y="22.5761719">101</tspan>
                    <tspan x="12.1232324" y="30.5761719">010</tspan>
                    <tspan x="12.1232324" y="38.5761719">101</tspan>
                    <tspan x="23.5" y="47"></tspan>
                </text>
                <path d="M66,10.5 L76,10.5" id="Line-3" stroke="#333C4E" stroke-width="2.8" stroke-linecap="square"></path>
                <path d="M66,16.5 L76,16.5" id="Line-3" stroke="#333C4E" stroke-width="2.8" stroke-linecap="square"></path>
                <path d="M66,24.5 L76,24.5" id="Line-3" stroke="#333C4E" stroke-width="2.8" stroke-linecap="square"></path>
                <path d="M66,30.5 L76,30.5" id="Line-3" stroke="#333C4E" stroke-width="2.8" stroke-linecap="square"></path>
                <path d="M66,39.5 L76,39.5" id="Line-3" stroke="#333C4E" stroke-width="2.8" stroke-linecap="square"></path>
                <path d="M66,45.5 L76,45.5" id="Line-3" stroke="#333C4E" stroke-width="2.8" stroke-linecap="square"></path>
            </g>
        </g>
    </g>
</svg>