<?xml version="1.0" encoding="UTF-8"?>
<svg width="68px" height="68px" viewBox="0 0 68 68" version="1.1" xmlns="http://www.w3.org/2000/svg" xmlns:xlink="http://www.w3.org/1999/xlink">
    <!-- Generator: Sketch 52.4 (67378) - http://www.bohemiancoding.com/sketch -->
    <title>Group 15</title>
    <desc>Created with Sketch.</desc>
    <g id="Home" stroke="none" stroke-width="1" fill="none" fill-rule="evenodd">
        <g id="Home-" transform="translate(-859.000000, -3372.000000)">
            <g id="Group-15" transform="translate(860.000000, 3373.000000)">
                <g id="impact-05" fill="#333C4E" stroke="#333C4E" stroke-width="0.5">
                    <path d="M63.7646,47.8477 C63.6646,48.3777 63.3436,48.8407 62.8796,49.1197 L42.2616,61.6707 C41.2276,62.2997 40.0396,62.6327 38.8296,62.6327 L11.7956,62.6327 C11.9916,62.1047 12.0946,61.5457 12.0996,60.9837 L12.0996,41.1827 C12.0916,40.9987 12.0736,40.8157 12.0446,40.6327 L14.0776,40.6327 C16.1076,40.6357 18.0766,41.3267 19.6626,42.5917 C21.6396,44.1687 24.0926,45.0307 26.6216,45.0337 L32.3746,45.0337 C33.9196,45.0367 35.3506,45.8477 36.1486,47.1707 L36.2456,47.3317 C36.8466,48.3327 36.7826,49.5977 36.0826,50.5337 L29.3976,50.5337 C27.2256,50.5307 25.1016,51.1737 23.2956,52.3807 L22.4906,52.9177 C22.1606,53.1347 21.9736,53.5117 21.9976,53.9047 C22.0226,54.2977 22.2556,54.6487 22.6096,54.8227 C22.9626,54.9957 23.3826,54.9677 23.7096,54.7477 L24.5166,54.2107 C25.9606,53.2447 27.6606,52.7317 29.3976,52.7327 L39.1746,52.7327 C39.7666,52.7327 40.3536,52.6377 40.9136,52.4517 L54.9486,47.7727 C54.9666,47.7737 54.9816,47.7837 54.9996,47.7837 C55.2456,47.7787 55.4846,47.6897 55.6726,47.5317 L61.2766,45.6627 C62.0596,45.4017 62.9236,45.6727 63.4166,46.3357 C63.7436,46.7677 63.8696,47.3177 63.7646,47.8477 Z M19.7996,35.1327 C20.4506,35.1367 21.0916,35.2867 21.6766,35.5727 C22.1576,35.7997 22.7306,35.6527 23.0416,35.2227 C24.7346,32.8567 27.9816,32.2277 30.4356,33.7887 C30.7146,33.9657 31.0576,34.0077 31.3706,33.9037 C31.6846,33.7997 31.9346,33.5607 32.0516,33.2517 C32.3616,32.4307 33.1346,31.8757 34.0126,31.8457 C34.0416,31.8487 34.0716,31.8547 34.1006,31.8547 C34.1276,31.8547 34.1536,31.8427 34.1806,31.8407 C35.3416,31.8757 36.2726,32.8127 36.3016,33.9737 C36.2976,34.0037 36.2856,34.1087 36.2846,34.1387 C36.2646,34.4797 36.4056,34.8107 36.6626,35.0347 C36.9216,35.2567 37.2696,35.3477 37.6036,35.2787 C38.0796,35.1817 38.5646,35.1327 39.0496,35.1327 C41.7356,35.1287 44.1956,36.6357 45.4106,39.0317 C45.6376,39.4737 46.1326,39.7087 46.6186,39.6057 C47.5826,39.4077 48.5846,39.6487 49.3536,40.2627 C50.1216,40.8767 50.5786,41.8007 50.5996,42.7847 C50.5966,42.8217 50.5946,42.8587 50.5946,42.8877 C50.5946,43.4347 50.9966,43.8987 51.5386,43.9767 C52.5746,44.1287 53.4336,44.8557 53.7576,45.8507 L40.2186,50.3637 C39.8816,50.4757 39.5296,50.5337 39.1746,50.5337 L38.5426,50.5337 C39.0656,49.1007 38.9146,47.5077 38.1316,46.1997 L38.0346,46.0377 C36.8366,44.0547 34.6926,42.8387 32.3746,42.8327 L26.6216,42.8327 C24.5916,42.8297 22.6226,42.1397 21.0366,40.8737 C19.4466,39.6087 17.5396,38.8007 15.5236,38.5377 C15.9856,36.5477 17.7566,35.1377 19.7996,35.1327 Z M9.9006,60.9827 C9.8986,62.5007 8.6676,63.7307 7.1506,63.7327 L4.9506,63.7327 C3.4316,63.7307 2.2016,62.5007 2.2006,60.9827 L2.2006,41.1827 C2.2016,39.6647 3.4316,38.4347 4.9506,38.4327 L7.1506,38.4327 C8.6676,38.4347 9.8986,39.6647 9.9006,41.1827 L9.9006,60.9827 Z M37.7906,12.3547 C37.7476,13.3517 37.8286,14.3497 38.0316,15.3267 C37.1226,15.3207 36.2596,14.9317 35.6526,14.2557 C34.2026,12.2437 33.0716,10.0187 32.2996,7.6607 C34.4786,7.5347 36.6626,7.7397 38.7796,8.2677 C38.1906,9.5537 37.8556,10.9417 37.7906,12.3547 Z M42.8296,6.4737 C47.0406,2.9177 54.1966,2.2177 59.1846,2.2177 C60.9686,2.2177 62.4756,2.3067 63.4706,2.3877 C62.4536,5.7507 59.4376,15.0277 55.7496,19.8787 C54.4016,21.6337 52.3456,22.7017 50.1346,22.7967 C47.3796,22.9427 44.6976,21.8947 42.7706,19.9197 C42.6306,19.7757 42.5056,19.6187 42.3746,19.4647 C44.6796,17.3747 47.2356,15.5787 49.9836,14.1207 C50.5296,13.8537 50.7556,13.1947 50.4886,12.6497 C50.2216,12.1037 49.5626,11.8777 49.0166,12.1447 C46.1666,13.6237 43.5136,15.4547 41.1186,17.5947 C40.3016,16.0117 39.9106,14.2427 39.9886,12.4627 C40.0546,10.1567 41.0856,7.9847 42.8296,6.4737 Z M55.8526,45.1527 C55.3606,43.6777 54.2086,42.5167 52.7386,42.0117 C52.3126,39.2027 49.8186,37.1797 46.9816,37.3427 C45.1466,34.3957 41.8296,32.7077 38.3676,32.9567 C37.9926,31.4917 36.8906,30.3197 35.4506,29.8537 C36.4786,26.5077 38.3146,23.4657 40.7966,20.9967 C40.9296,21.1497 41.0536,21.3087 41.1946,21.4527 C43.4086,23.7137 46.4346,24.9947 49.5986,25.0127 C49.8216,25.0127 50.0456,25.0067 50.2686,24.9937 C53.1196,24.8637 55.7676,23.4787 57.5006,21.2097 C62.2886,14.9107 65.8126,2.2517 65.9596,1.7157 C66.0446,1.4097 65.9926,1.0797 65.8166,0.8157 C65.6406,0.5497 65.3586,0.3737 65.0426,0.3327 C64.3946,0.2467 49.0716,-1.6763 41.4106,4.7927 C40.8696,5.2487 40.3786,5.7627 39.9476,6.3237 C36.9306,5.4927 33.7856,5.2377 30.6736,5.5727 C30.3496,5.6097 30.0586,5.7887 29.8796,6.0627 C29.7006,6.3367 29.6526,6.6757 29.7476,6.9887 C29.8226,7.2267 31.5696,12.8597 33.9746,15.6797 C35.0396,16.8887 36.5836,17.5667 38.1956,17.5327 C38.3536,17.5327 38.5126,17.5197 38.6726,17.5077 C38.9006,18.0777 39.1696,18.6297 39.4786,19.1607 C36.4866,22.0637 34.3226,25.7127 33.2086,29.7327 C32.1676,29.9517 31.2416,30.5397 30.5966,31.3867 C27.5706,30.0497 24.0276,30.8047 21.8076,33.2577 C21.1606,33.0427 20.4826,32.9337 19.7996,32.9327 C16.5826,32.9387 13.8376,35.2607 13.2996,38.4327 L11.2616,38.4327 C10.3446,37.0587 8.8016,36.2337 7.1506,36.2327 L4.9506,36.2327 C2.2176,36.2357 0.0026,38.4507 -0.000400000001,41.1827 L-0.000400000001,60.9827 C0.0026,63.7157 2.2176,65.9297 4.9506,65.9327 L7.1506,65.9327 C8.2696,65.9277 9.3546,65.5397 10.2226,64.8327 L38.8296,64.8327 C40.4436,64.8327 42.0266,64.3887 43.4056,63.5497 L64.0236,50.9987 C65.8116,49.9087 66.4956,47.6507 65.6146,45.7507 C64.7336,43.8507 62.5666,42.9147 60.5796,43.5767 L55.8526,45.1527 Z" id="Fill-1"></path>
                    <path d="M25.1357,39.5108 C25.7307,39.6318 26.3117,39.2468 26.4327,38.6528 C26.5917,37.8848 27.2667,37.3338 28.0497,37.3328 C28.4067,37.3318 28.7537,37.4478 29.0387,37.6618 C29.5257,38.0248 30.2117,37.9258 30.5757,37.4418 C30.9407,36.9568 30.8437,36.2698 30.3607,35.9038 C29.6957,35.4018 28.8837,35.1308 28.0497,35.1328 C26.2217,35.1368 24.6467,36.4228 24.2767,38.2138 C24.1567,38.8088 24.5397,39.3898 25.1357,39.5108" id="Fill-4"></path>
                    <path d="M36.9082,39.8741 C37.2612,40.0501 37.6792,40.0231 38.0082,39.8051 C38.6622,39.3751 39.5282,39.4641 40.0832,40.0171 C40.3372,40.2681 40.5012,40.5961 40.5502,40.9491 C40.6272,41.4901 41.0912,41.8941 41.6372,41.8941 C41.6902,41.8941 41.7422,41.8911 41.7952,41.8831 C42.3962,41.7971 42.8142,41.2401 42.7282,40.6391 C42.5422,39.3321 41.6982,38.2121 40.4952,37.6711 C39.2912,37.1301 37.8932,37.2431 36.7932,37.9721 C36.4642,38.1881 36.2762,38.5631 36.3012,38.9561 C36.3242,39.3491 36.5562,39.6991 36.9082,39.8741" id="Fill-6"></path>
                </g>
                <path d="M65,1.25317413 C59.3975149,0.691491904 54.0809263,1.06440435 49.0502343,2.37191146 C41.5041963,4.33317212 39.0582458,10.3206018 39.0582458,12.4734514 C39.0582458,14.6263011 37.7956959,22.5749914 47.0268926,24.7137539 C53.1810238,26.1395956 57.7841501,22.238663 60.8362717,13.010956 L65,1.25317413 Z" id="Path-3" stroke="#00D2FF" stroke-width="3" fill="#FFFFFF" fill-rule="nonzero"></path>
                <path d="M40,20 C45.1592292,15.3333333 48.4925625,13 50,13" id="Path-4" stroke="#00D2FF" stroke-width="3" stroke-linecap="round" fill-rule="nonzero"></path>
            </g>
        </g>
    </g>
</svg>