<?xml version="1.0" encoding="UTF-8"?>
<svg width="68px" height="73px" viewBox="0 0 68 73" version="1.1" xmlns="http://www.w3.org/2000/svg" xmlns:xlink="http://www.w3.org/1999/xlink">
    <!-- Generator: Sketch 52.4 (67378) - http://www.bohemiancoding.com/sketch -->
    <title>impact-02</title>
    <desc>Created with Sketch.</desc>
    <g id="Home" stroke="none" stroke-width="1" fill="none" fill-rule="evenodd">
        <g id="Home-" transform="translate(-1110.000000, -2929.000000)" fill-rule="nonzero">
            <g id="impact-02" transform="translate(1112.000000, 2931.000000)">
                <path d="M59.1854463,46.0134446 L59.1854463,20.5991657 C61.3982222,19.8778437 62.9993563,17.8043639 62.9993563,15.357003 C62.9993563,12.3099952 60.520347,9.83953153 57.4650993,9.83953153 C55.5372241,9.83953153 53.8421101,10.8230708 52.8515878,12.3134606 L36.876551,7.02753088 C36.8927722,6.85785336 36.9194213,6.69099952 36.9194213,6.51759987 C36.9194213,3.47059201 34.440412,1 31.3845206,1 C28.3274706,1 25.8502636,3.47059201 25.8502636,6.51759987 C25.8502636,6.69677523 25.8605628,6.87299856 25.8770414,7.04678325 L10.1419752,12.3004974 C9.14990804,10.8167816 7.45685385,9.83876143 5.53425699,9.83876143 C2.4779794,9.83876143 0,12.3092251 0,15.356233 C0,18.0051019 1.87277464,20.2148885 4.36942128,20.7488208 L4.36942128,45.8631478 C1.87277464,46.3969517 0,48.6064816 0,51.2557356 C0,54.3024868 2.4779794,56.7734638 5.53425699,56.7734638 C7.83933914,56.7734638 9.81484796,55.3670143 10.6465056,53.3683619 L26.5730076,60.7556233 C26.1128923,61.5596021 25.8501349,62.4901332 25.8501349,63.4825285 C25.8501349,66.5299214 28.3273418,69 31.3843919,69 C34.4402832,69 36.9192925,66.5299214 36.9192925,63.4825285 C36.9192925,62.4950104 36.6488107,61.5757741 36.1917852,60.7737205 L52.3458987,53.3487245 C53.1722781,55.3580298 55.1522928,56.7741056 57.4660005,56.7741056 C60.5220206,56.7741056 63,54.3038986 63,51.256634 C62.9993563,48.807348 61.3982222,46.7355367 59.1854463,46.0134446 Z M7.25576263,46.0134446 L7.25576263,20.5991657 C8.24474007,20.2767528 9.09854095,19.6741537 9.75524154,18.9005936 L25.975141,26.4232633 C25.8946788,26.7976576 25.8503923,27.1852719 25.8503923,27.5831542 C25.8503923,30.2318948 27.723167,32.4418097 30.2198136,32.9756137 L30.2198136,36.6166212 L30.2198136,39.6533611 L8.79844899,46.8044601 C8.33318416,46.4658752 7.81474988,46.1962137 7.25576263,46.0134446 Z M10.6610532,49.21691 L30.2191699,42.6872774 L30.2191699,58.090069 C29.7139958,58.1974972 29.2370157,58.3771859 28.7929929,58.6118081 L10.9961623,50.3574202 C10.9302477,49.9578694 10.8076876,49.5814215 10.6610532,49.21691 Z M33.1057688,58.2398524 L33.1057688,42.8665811 L52.3232406,49.2261511 C52.1823995,49.5792395 52.0754169,49.9508102 52.0104034,50.3359859 L33.9835152,58.6204075 C33.7029917,58.472421 33.4112678,58.3394513 33.1057688,58.2398524 Z M33.1057688,39.8353602 L33.1057688,36.2681534 L33.1057688,32.8253169 C35.3185446,32.1039949 36.9194213,30.0303867 36.9194213,27.5831542 C36.9194213,27.191176 36.876036,26.809209 36.7984061,26.4404621 L53.2206842,18.8918659 C53.9971126,19.817648 55.072088,20.4868603 56.3006498,20.7495909 L56.3006498,45.8641746 C55.5246077,46.0291032 54.8086869,46.3592171 54.1900932,46.8116477 L33.1057688,39.8353602 Z M51.9470635,15.0456281 C51.940884,15.1499759 51.9318722,15.2521418 51.9318722,15.3571314 C51.9318722,15.6722285 51.9601949,15.9797529 52.0105321,16.2807316 L35.4784392,23.8795123 C34.8400196,23.1782127 34.0279304,22.6410717 33.1057688,22.3403498 L33.1057688,11.7605326 C34.2335275,11.3921707 35.1984306,10.6700786 35.8783043,9.7286379 L51.9470635,15.0456281 Z M26.8970451,9.74083106 C27.6854463,10.8278197 28.8583926,11.6196053 30.2190412,11.9107011 L30.2190412,22.1906947 C29.0736452,22.4350714 28.0647131,23.0348468 27.3024461,23.8656506 L10.9863781,16.2970319 C11.0381314,15.9904059 11.0695439,15.6774908 11.0695439,15.356233 C11.0695439,15.2463661 11.0593735,15.1381678 11.0525503,15.0297128 L26.8970451,9.74083106 Z" id="Shape" fill="#333C4E"></path>
                <circle id="Oval" stroke="#333C4E" stroke-width="3" fill="#FFFFFF" cx="6" cy="50" r="6"></circle>
                <circle id="Oval" stroke="#333C4E" stroke-width="3" fill="#FFFFFF" cx="32" cy="63" r="6"></circle>
                <circle id="Oval" stroke="#00D2FF" stroke-width="3" fill="#FFFFFF" cx="58" cy="50" r="6"></circle>
                <circle id="Oval" stroke="#333C4E" stroke-width="3" fill="#FFFFFF" cx="58" cy="16" r="6"></circle>
                <circle id="Oval" stroke="#333C4E" stroke-width="3" fill="#FFFFFF" cx="6" cy="16" r="6"></circle>
                <circle id="Oval" stroke="#333C4E" stroke-width="3" fill="#FFFFFF" cx="32" cy="26" r="6"></circle>
                <circle id="Oval" stroke="#333C4E" stroke-width="3" fill="#FFFFFF" cx="32" cy="6" r="6"></circle>
            </g>
        </g>
    </g>
</svg>