<svg width="147" height="46" viewBox="0 0 147 46" fill="none" xmlns="http://www.w3.org/2000/svg">
<path d="M54.1817 13.0345C54.1817 13.8473 53.941 14.4946 53.4589 14.9775C52.9114 15.5516 52.1977 15.8389 51.3204 15.8389C50.4803 15.8389 49.766 15.5478 49.1785 14.9649C48.59 14.3825 48.2964 13.6602 48.2964 12.7984C48.2964 11.9362 48.59 11.2143 49.1785 10.6315C49.766 10.049 50.4803 9.75757 51.3204 9.75757C51.7373 9.75757 52.1364 9.83906 52.5154 10.0017C52.8943 10.1646 53.1982 10.381 53.4257 10.6519L52.914 11.1639C52.5287 10.7035 51.9981 10.4734 51.3204 10.4734C50.7077 10.4734 50.1779 10.6887 49.7307 11.1196C49.2835 11.5509 49.06 12.1102 49.06 12.7984C49.06 13.4866 49.2835 14.0459 49.7307 14.4772C50.1779 14.9081 50.7077 15.1234 51.3204 15.1234C51.9704 15.1234 52.5124 14.9069 52.9462 14.4735C53.2278 14.1911 53.3907 13.7985 53.4343 13.2944H51.3204V12.5953H54.1411C54.1684 12.7473 54.1817 12.8932 54.1817 13.0345" fill="white"/>
<path d="M54.1816 13.0346H54.0846C54.0838 13.8289 53.8519 14.4458 53.3903 14.9089L53.3892 14.9097L53.3888 14.9105C52.8586 15.4648 52.1772 15.7407 51.3204 15.7419C50.5026 15.7407 49.8182 15.4618 49.2467 14.8964C48.6764 14.3299 48.3944 13.6382 48.3933 12.7985C48.3944 11.9583 48.6764 11.2671 49.2467 10.7009C49.8182 10.1351 50.5026 9.85582 51.3204 9.85466C51.7247 9.85466 52.1098 9.93353 52.477 10.0908C52.8446 10.2492 53.1349 10.4568 53.3513 10.7146L53.4256 10.652L53.357 10.5834L52.8453 11.0958L52.9139 11.164L52.9886 11.1019C52.5853 10.6186 52.0193 10.375 51.3204 10.3765C50.6849 10.3757 50.1259 10.6027 49.6635 11.05C49.1967 11.4987 48.9621 12.0894 48.9629 12.7985C48.9621 13.5076 49.1967 14.0983 49.6635 14.547C50.1259 14.9942 50.6849 15.2212 51.3204 15.2205C51.9919 15.2216 52.5642 14.9938 53.0147 14.5421C53.3157 14.2404 53.4862 13.8225 53.5309 13.3029L53.54 13.1975H51.4174V12.6923H54.1411V12.5953L54.0455 12.6124C54.0721 12.7595 54.0846 12.8993 54.0846 13.0346H54.1816H54.2786C54.2786 12.8871 54.265 12.7356 54.2365 12.578L54.2222 12.4983H51.2233V13.2945V13.3915H53.4342V13.2945L53.3376 13.2862C53.2948 13.7744 53.1394 14.1419 52.8776 14.4049C52.4607 14.8203 51.9491 15.0253 51.3204 15.0264C50.7303 15.0256 50.2297 14.8225 49.7981 14.4076C49.3707 13.9941 49.158 13.4662 49.1569 12.7985C49.158 12.1307 49.3707 11.6029 49.7981 11.1894C50.2297 10.7745 50.7303 10.5713 51.3204 10.5705C51.9764 10.5721 52.4717 10.7888 52.8397 11.2265L52.9079 11.3076L53.4942 10.7206L53.557 10.6577L53.4998 10.5898C53.2614 10.3057 52.9439 10.0801 52.5535 9.91267C52.1625 9.74474 51.7497 9.66063 51.3204 9.66063C50.4579 9.65985 49.7136 9.96302 49.1099 10.563C48.5039 11.1617 48.1985 11.9144 48.1993 12.7985C48.1985 13.6822 48.5039 14.4352 49.1103 15.0344C49.7136 15.6339 50.4579 15.9367 51.3204 15.9359C52.2185 15.9367 52.9636 15.6384 53.529 15.0446L53.4589 14.9775L53.5275 15.0461C54.03 14.544 54.2793 13.8656 54.2786 13.0346H54.1816Z" fill="white"/>
<path d="M58.6533 10.6032H56.0025V12.4488H58.393V13.1483H56.0025V14.9939H58.6533V15.709H55.2552V9.88809H58.6533V10.6032Z" fill="white"/>
<path d="M58.6536 10.6031V10.5061H55.9057V12.5457H58.2963V13.0509L55.9057 13.0512V15.0908H58.5565V15.6119H55.3524V9.98502H58.5565V10.6031H58.6536V10.5061V10.6031H58.7506V9.88801V9.79099H55.1584V15.8059H58.7506V14.9938V14.8968H56.0997V13.2452H58.4903V12.4487V12.3517H56.0997V10.7001H58.7506V10.6031H58.6536" fill="white"/>
<path d="M61.8076 15.709H61.0592V10.6032H59.4334V9.88809H63.4334V10.6032H61.8076V15.709Z" fill="white"/>
<path d="M61.8076 15.7089V15.6119H61.1561V10.5061H59.5303V9.98502H63.3363V10.5061H61.7105V15.7089H61.8076V15.6119V15.7089H61.9046V10.7001H63.5304V9.88801V9.79099H59.3363V10.6031V10.7001H60.9621V15.8059H61.8076H61.9046V15.7089H61.8076" fill="white"/>
<path d="M66.3276 15.709V9.88809H67.0753V15.709H66.3276Z" fill="white"/>
<path d="M66.3275 15.7089H66.4245V9.98502H66.9782V15.6119H66.3275V15.7089H66.4245H66.3275V15.8059H67.0752H67.1722V9.79099H66.3275H66.2305V15.8059H66.3275V15.7089Z" fill="white"/>
<path d="M70.3931 15.709H69.6446V10.6032H68.019V9.88809H72.0189V10.6032H70.3931V15.709Z" fill="white"/>
<path d="M70.393 15.7089V15.6119H69.7416V10.5061H68.1159V9.98502H71.9218V10.5061H70.296V15.7089H70.393V15.6119V15.7089H70.49V10.7001H72.1158V9.88801V9.79099H67.9219V10.6031V10.7001H69.5476V15.8059H70.393H70.49V15.7089H70.393" fill="white"/>
<path d="M75.8752 14.4693C76.306 14.9055 76.8332 15.1234 77.4566 15.1234C78.08 15.1234 78.6075 14.9055 79.0377 14.4693C79.4689 14.0331 79.685 13.4756 79.685 12.7984C79.685 12.1212 79.4689 11.5637 79.0377 11.1275C78.6075 10.6913 78.08 10.4734 77.4566 10.4734C76.8332 10.4734 76.306 10.6913 75.8752 11.1275C75.445 11.5637 75.2291 12.1212 75.2291 12.7984C75.2291 13.4756 75.445 14.0331 75.8752 14.4693ZM79.591 14.9566C79.0187 15.5451 78.307 15.8389 77.4566 15.8389C76.6054 15.8389 75.8941 15.5451 75.3231 14.9566C74.7504 14.3688 74.4655 13.6492 74.4655 12.7984C74.4655 11.9476 74.7504 11.2279 75.3231 10.6402C75.8941 10.0516 76.6054 9.75757 77.4566 9.75757C78.3025 9.75757 79.0123 10.0532 79.5872 10.644C80.1613 11.2348 80.4486 11.9529 80.4486 12.7984C80.4486 13.6492 80.162 14.3688 79.591 14.9566Z" fill="white"/>
<path d="M75.8751 14.4694L75.8061 14.5376C76.253 14.9912 76.8104 15.2216 77.4566 15.2205C78.1023 15.2216 78.6605 14.9912 79.1066 14.5376C79.5564 14.0835 79.7826 13.4961 79.7819 12.7985C79.7826 12.1008 79.5564 11.5134 79.1066 11.0594C78.6605 10.6057 78.1023 10.3753 77.4566 10.3765C76.8104 10.3753 76.253 10.6057 75.8061 11.0594C75.3575 11.5134 75.1308 12.1008 75.132 12.7985C75.1308 13.4961 75.3575 14.0835 75.8061 14.5376L75.8751 14.4694L75.9441 14.4012C75.5326 13.9823 75.3268 13.4556 75.326 12.7985C75.3268 12.1414 75.5326 11.6146 75.9441 11.1958C76.3594 10.7771 76.8555 10.5717 77.4566 10.5705C78.0572 10.5717 78.5544 10.7771 78.9686 11.1958C79.381 11.6146 79.5867 12.1414 79.5875 12.7985C79.5867 13.4556 79.381 13.9823 78.9686 14.4012C78.5544 14.8199 78.0572 15.0253 77.4566 15.0264C76.8555 15.0253 76.3594 14.8199 75.9441 14.4012L75.8751 14.4694ZM79.5909 14.9567L79.5215 14.8892C78.9653 15.4592 78.285 15.7407 77.4566 15.7419C76.6278 15.7407 75.9475 15.4592 75.3923 14.8892L75.3897 14.8862L75.3923 14.8892C74.8372 14.3173 74.5632 13.6277 74.5624 12.7985C74.5632 11.9693 74.8372 11.2796 75.3923 10.7077C75.9475 10.1377 76.6278 9.85582 77.4566 9.85466C78.2796 9.85582 78.9584 10.1389 79.5178 10.7119C80.0748 11.2864 80.3503 11.975 80.3515 12.7985C80.3503 13.6277 80.0756 14.3173 79.5215 14.8892L79.5909 14.9567L79.6607 15.0241C80.2488 14.4201 80.5462 13.6708 80.5455 12.7985C80.5462 11.9311 80.2476 11.1834 79.6568 10.5766C79.0657 9.96758 78.3251 9.65956 77.4566 9.66063C76.5834 9.65956 75.8407 9.96612 75.2533 10.5729V10.5725C74.664 11.1769 74.3676 11.9261 74.3684 12.7985C74.3676 13.6708 74.664 14.4201 75.2533 15.0245L75.2559 15.0272L75.2533 15.0241C75.8407 15.6308 76.5834 15.9367 77.4566 15.9359C78.3293 15.9367 79.0721 15.6308 79.6607 15.0241L79.5909 14.9567" fill="white"/>
<path d="M81.4983 15.709V9.88809H82.4086L85.2375 14.4164H85.2697L85.2375 13.2946V9.88809H85.986V15.709H85.2053L82.2456 10.9613H82.2134L82.2456 12.0834V15.709H81.4983Z" fill="white"/>
<path d="M81.4982 15.7089H81.5952V9.98502H82.3546L85.1836 14.5133H85.2696H85.3693L85.3344 13.293V9.98502H85.8889V15.6119H85.2591L82.2993 10.8642H82.2133H82.1137L82.1485 12.0849V15.6119H81.4982V15.7089H81.5952H81.4982V15.8059H82.2455H82.3425V12.0818L82.3103 10.9586L82.2133 10.9612V11.0582H82.2455V10.9612L82.1632 11.0128L85.1514 15.8059H85.9859H86.0829V9.79099H85.2374H85.1404V13.2957L85.1726 14.4189L85.2696 14.4163V14.3193H85.2374V14.4163L85.3197 14.3648L82.4622 9.79099H81.4982H81.4012V15.8059H81.4982V15.7089Z" fill="white"/>
<path d="M111.923 32.2015H113.733V20.0734H111.923V32.2015ZM128.228 24.4422L126.153 29.7003H126.091L123.937 24.4422H121.987L125.217 31.7914L123.375 35.8793H125.264L130.241 24.4422H128.228ZM117.962 30.8239C117.368 30.8239 116.542 30.5276 116.542 29.7939C116.542 28.8578 117.572 28.499 118.46 28.499C119.257 28.499 119.631 28.6706 120.115 28.9049C119.974 30.0281 119.007 30.8239 117.962 30.8239V30.8239ZM118.18 24.1769C116.869 24.1769 115.512 24.7544 114.95 26.0338L116.557 26.7046C116.9 26.0338 117.54 25.8152 118.211 25.8152C119.147 25.8152 120.099 26.3772 120.115 27.3757V27.5004C119.787 27.3132 119.085 27.0324 118.227 27.0324C116.495 27.0324 114.731 27.9839 114.731 29.7628C114.731 31.3856 116.152 32.4311 117.743 32.4311C118.96 32.4311 119.631 31.885 120.053 31.2454H120.115V32.1814H121.862V27.5315C121.862 25.3786 120.255 24.1769 118.18 24.1769V24.1769ZM106.992 25.9186H104.418V21.7614H106.992C108.346 21.7614 109.114 22.8819 109.114 23.8399C109.114 24.7798 108.346 25.9186 106.992 25.9186ZM106.946 20.0734H102.608V32.2015H104.418V27.6065H106.946C108.952 27.6065 110.924 26.1539 110.924 23.8399C110.924 21.526 108.952 20.0734 106.946 20.0734ZM83.2926 30.8262C82.042 30.8262 80.9949 29.7791 80.9949 28.3409C80.9949 26.8877 82.042 25.8247 83.2926 25.8247C84.5273 25.8247 85.4963 26.8877 85.4963 28.3409C85.4963 29.7791 84.5273 30.8262 83.2926 30.8262V30.8262ZM85.3712 25.1213H85.3086C84.9024 24.6369 84.1206 24.1993 83.1361 24.1993C81.073 24.1993 79.182 26.0122 79.182 28.3409C79.182 30.6542 81.073 32.4516 83.1361 32.4516C84.1206 32.4516 84.9024 32.0138 85.3086 31.514H85.3712V32.1078C85.3712 33.6867 84.5273 34.5306 83.1675 34.5306C82.0579 34.5306 81.3701 33.7332 81.0885 33.0613L79.5102 33.7177C79.9634 34.8117 81.167 36.156 83.1675 36.156C85.2931 36.156 87.0905 34.9054 87.0905 31.8577V24.4494H85.3712V25.1213ZM88.3407 32.2015H90.1538V20.073H88.3407V32.2015ZM92.8265 28.2004C92.7796 26.606 94.0612 25.7935 94.9833 25.7935C95.7027 25.7935 96.312 26.1528 96.5147 26.669L92.8265 28.2004ZM98.4531 26.8251C98.1097 25.9027 97.0619 24.1993 94.9207 24.1993C92.7951 24.1993 91.0291 25.8716 91.0291 28.3254C91.0291 30.6386 92.7796 32.4516 95.1238 32.4516C97.0153 32.4516 98.1097 31.295 98.5627 30.623L97.156 29.6851C96.6874 30.3729 96.0462 30.8262 95.1238 30.8262C94.2018 30.8262 93.5455 30.4041 93.1233 29.5759L98.6403 27.2939L98.4531 26.8251ZM54.4974 25.4653V27.2158H58.686C58.5609 28.2004 58.2327 28.9193 57.7325 29.4195C57.1232 30.0292 56.1697 30.7011 54.4974 30.7011C51.9184 30.7011 49.9024 28.6225 49.9024 26.0436C49.9024 23.4648 51.9184 21.3858 54.4974 21.3858C55.8885 21.3858 56.9041 21.933 57.6544 22.6364L58.8891 21.4018C57.8421 20.4012 56.4509 19.6354 54.4974 19.6354C50.965 19.6354 47.9954 22.5113 47.9954 26.0436C47.9954 29.5759 50.965 32.4516 54.4974 32.4516C56.4043 32.4516 57.8421 31.8267 58.9672 30.6542C60.1239 29.4976 60.4835 27.8722 60.4835 26.5595C60.4835 26.1528 60.4523 25.778 60.3895 25.4653H54.4974ZM65.2456 30.8262C63.9949 30.8262 62.9164 29.7946 62.9164 28.3254C62.9164 26.8406 63.9949 25.8247 65.2456 25.8247C66.4957 25.8247 67.5742 26.8406 67.5742 28.3254C67.5742 29.7946 66.4957 30.8262 65.2456 30.8262V30.8262ZM65.2456 24.1993C62.9634 24.1993 61.1034 25.9341 61.1034 28.3254C61.1034 30.7011 62.9634 32.4516 65.2456 32.4516C67.5273 32.4516 69.3872 30.7011 69.3872 28.3254C69.3872 25.9341 67.5273 24.1993 65.2456 24.1993ZM74.2808 30.8262C73.0306 30.8262 71.952 29.7946 71.952 28.3254C71.952 26.8406 73.0306 25.8247 74.2808 25.8247C75.531 25.8247 76.6095 26.8406 76.6095 28.3254C76.6095 29.7946 75.531 30.8262 74.2808 30.8262ZM74.2808 24.1993C71.9987 24.1993 70.1391 25.9341 70.1391 28.3254C70.1391 30.7011 71.9987 32.4516 74.2808 32.4516C76.5626 32.4516 78.4225 30.7011 78.4225 28.3254C78.4225 25.9341 76.5626 24.1993 74.2808 24.1993Z" fill="white"/>
<path d="M18.3749 34.5195L18.3028 34.4506C18.0205 34.1519 17.8539 33.688 17.8539 33.0874V33.2288V11.7729C17.8539 11.771 17.8539 11.7695 17.8539 11.768C17.8539 11.7698 17.8539 11.7714 17.8539 11.7733V11.9151C17.8539 11.2647 18.0482 10.7748 18.3738 10.481L30.3937 22.5007L18.3749 34.5195ZM17.8539 11.7668C17.8539 11.7134 17.8553 11.6615 17.858 11.6103C17.8553 11.6611 17.8539 11.7134 17.8539 11.7668ZM17.858 11.608C17.858 11.6073 17.858 11.6066 17.8583 11.6058C17.858 11.6066 17.858 11.6073 17.858 11.608ZM17.8583 11.6012C17.8583 11.6008 17.8583 11.6004 17.8583 11.6001C17.8583 11.6004 17.8583 11.6008 17.8583 11.6012Z" fill="white"/>
<path d="M34.3998 26.6507L34.4912 26.5988L39.2381 23.9017C39.6907 23.6444 39.9923 23.3325 40.1427 23.0025C39.9927 23.3325 39.6909 23.6448 39.2381 23.9021L34.4912 26.5992L34.3998 26.6507V26.6507ZM34.401 26.5086L30.3938 22.5007L34.4006 18.4935L39.2381 21.2418C39.8524 21.5908 40.1973 22.0407 40.2549 22.5003C40.2549 22.5007 40.2549 22.5015 40.2549 22.5022C40.1973 22.9608 39.8524 23.411 39.2381 23.76L34.401 26.5086" fill="white"/>
<path d="M19.2318 34.9773C18.896 34.9773 18.6031 34.8682 18.3746 34.662L18.375 34.6617C18.6034 34.8678 18.8968 34.9773 19.2326 34.9773C19.2617 34.9773 19.2913 34.9766 19.3213 34.9751C19.2909 34.9766 19.2609 34.9773 19.2318 34.9773V34.9773ZM19.2322 34.8352C18.8964 34.8356 18.6034 34.7261 18.375 34.5199V34.5196L30.3938 22.5007L34.401 26.5086L20.3191 34.5097C19.9294 34.7306 19.5603 34.8352 19.2322 34.8352V34.8352ZM18.3716 34.6594C18.3503 34.6401 18.3295 34.6197 18.309 34.5984L18.3716 34.6594Z" fill="white"/>
<path d="M30.3936 22.5006L18.3736 10.481C18.6021 10.2752 18.8947 10.166 19.2301 10.166C19.5591 10.166 19.9285 10.271 20.3189 10.4923L34.4004 18.4934L30.3936 22.5006V22.5006ZM34.491 18.4029L20.3189 10.3507C19.9285 10.1293 19.5591 10.0243 19.2301 10.0243C19.2285 10.0243 19.2275 10.0243 19.2259 10.0243C19.2278 10.0243 19.2293 10.0243 19.2316 10.0243C19.5598 10.0243 19.9289 10.1289 20.3189 10.3503L34.491 18.4029V18.4029Z" fill="white"/>
<path d="M19.3211 34.975C19.6261 34.9575 19.9639 34.8526 20.3189 34.6514L34.3997 26.6506L20.3189 34.6514C19.9641 34.853 19.6261 34.9575 19.3211 34.975V34.975ZM18.3745 34.6619L18.3715 34.6593C18.3725 34.6601 18.3737 34.6612 18.3745 34.6619ZM18.3089 34.5983L18.3028 34.5923V34.5919C18.3051 34.5941 18.3069 34.5964 18.3089 34.5983Z" fill="white"/>
<path d="M34.3997 26.6507L34.4911 26.5988L34.3997 26.6507Z" fill="white"/>
<path d="M19.2325 34.9773C18.8967 34.9773 18.6033 34.8678 18.3748 34.6617L18.3745 34.662C18.3737 34.6613 18.3725 34.6602 18.3715 34.6594L18.3089 34.5984C18.3069 34.5965 18.3051 34.5942 18.3028 34.592L18.3748 34.5199C18.6033 34.7261 18.8963 34.8356 19.2321 34.8352C19.5602 34.8352 19.9293 34.7306 20.3189 34.5097L34.4008 26.5086L34.4911 26.5988L34.3997 26.6507L20.3189 34.6515C19.9639 34.8527 19.6261 34.9577 19.3211 34.9751C19.2912 34.9766 19.2616 34.9773 19.2325 34.9773" fill="white"/>
<path d="M18.3028 34.5924C18.0205 34.2937 17.8539 33.8299 17.8539 33.2293V33.2289C17.8539 33.8299 18.0205 34.2933 18.3028 34.592V34.5924" fill="white"/>
<path d="M18.3028 34.592C18.0205 34.2933 17.8539 33.8298 17.8539 33.2288V33.0875C17.8539 33.6881 18.0205 34.1519 18.3028 34.4506L18.3749 34.5196L18.3028 34.592" fill="white"/>
<path d="M18.3028 34.592L18.3748 34.5196V34.5199L18.3028 34.592" fill="white"/>
<path d="M40.1425 23.0024C40.2172 22.8387 40.2547 22.6705 40.2547 22.5021C40.2547 22.5018 40.2547 22.5015 40.2547 22.5015C40.2547 22.6701 40.2172 22.8383 40.1425 23.0024Z" fill="white"/>
<path d="M34.4912 26.5988L34.4009 26.5085L39.238 23.7599C39.8523 23.4109 40.1972 22.9607 40.2548 22.5021C40.2548 22.6704 40.2173 22.8386 40.1427 23.0024C39.9922 23.3325 39.6906 23.6444 39.238 23.9016L34.4912 26.5988Z" fill="white"/>
<path d="M40.2549 22.5006V22.5002C40.2545 21.9927 39.9153 21.4854 39.2381 21.1003L34.4912 18.4032H34.4908L34.4912 18.4029L39.2381 21.0999C39.9161 21.485 40.2557 21.9931 40.2549 22.5006Z" fill="white"/>
<path d="M40.2549 22.5003C40.1973 22.0406 39.8524 21.5908 39.2381 21.2417L34.4006 18.4935L34.4909 18.4033H34.4912L39.2381 21.1004C39.9153 21.4854 40.2545 21.9928 40.2549 22.5003Z" fill="white"/>
<path d="M17.8539 11.768C17.8539 11.7676 17.8539 11.7673 17.8539 11.7669C17.8539 11.7673 17.8539 11.7676 17.8539 11.768ZM17.858 11.6104C17.858 11.6096 17.858 11.6088 17.858 11.6081C17.858 11.6088 17.858 11.6096 17.858 11.6104ZM17.8583 11.6058C17.8583 11.6043 17.8583 11.6028 17.8583 11.6013C17.8583 11.6028 17.8583 11.6043 17.8583 11.6058ZM17.8583 11.6001C17.9145 10.6035 18.4564 10.0278 19.223 10.0244C18.8906 10.0263 18.6012 10.1355 18.3745 10.3397V10.3393L18.3718 10.342C18.3479 10.3635 18.3252 10.3863 18.3028 10.4098C18.0482 10.6792 17.8875 11.0828 17.8583 11.6001Z" fill="white"/>
<path d="M17.8539 11.9151V11.7733C17.8539 11.7714 17.8539 11.7698 17.8539 11.768C17.8539 11.7676 17.8539 11.7672 17.8539 11.7668C17.8539 11.7134 17.8553 11.6611 17.858 11.6103C17.858 11.6096 17.858 11.6088 17.858 11.608C17.858 11.6073 17.858 11.6066 17.8583 11.6058C17.8583 11.6042 17.8583 11.6028 17.8583 11.6012C17.8583 11.6008 17.8583 11.6004 17.8583 11.6001C17.8875 11.0828 18.0482 10.6792 18.3028 10.4098L18.3738 10.481C18.0482 10.7748 17.8539 11.2647 17.8539 11.9151V11.9151ZM18.3718 10.342L18.3745 10.3392C18.3738 10.3404 18.3726 10.3412 18.3718 10.342Z" fill="white"/>
<path d="M34.4005 18.4935L20.3189 10.4924C19.9285 10.2711 19.5591 10.1661 19.2301 10.1661C18.8948 10.1661 18.6022 10.2752 18.3737 10.481L18.3028 10.4098C18.3252 10.3863 18.3479 10.3635 18.3717 10.342C18.3725 10.3412 18.3737 10.3404 18.3745 10.3397C18.6011 10.1354 18.8906 10.0263 19.223 10.0244C19.2237 10.0244 19.2248 10.0244 19.226 10.0244C19.2275 10.0244 19.2286 10.0244 19.2301 10.0244C19.5591 10.0244 19.9285 10.1293 20.3189 10.3507L34.4911 18.403L34.4907 18.4032L34.4005 18.4935Z" fill="white"/>
<rect x="1.36066" y="1.36066" width="144.279" height="43.2787" rx="8.63934" stroke="url(#paint0_linear_1_5)" stroke-width="1.27869"/>
<defs>
<linearGradient id="paint0_linear_1_5" x1="2" y1="44" x2="145" y2="44" gradientUnits="userSpaceOnUse">
<stop stop-color="#A930FA"/>
<stop offset="0.322917" stop-color="#6155DD"/>
<stop offset="0.682292" stop-color="#3B9CE5"/>
<stop offset="1" stop-color="#6FCBD3"/>
</linearGradient>
</defs>
</svg>
