<?xml version="1.0" encoding="UTF-8"?>
<svg width="72px" height="72px" viewBox="0 0 72 72" version="1.1" xmlns="http://www.w3.org/2000/svg" xmlns:xlink="http://www.w3.org/1999/xlink">
    <!-- Generator: Sketch 52.4 (67378) - http://www.bohemiancoding.com/sketch -->
    <title>services-02</title>
    <desc>Created with Sketch.</desc>
    <g id="Home" stroke="none" stroke-width="1" fill="none" fill-rule="evenodd">
        <g id="About-ixo" transform="translate(-527.000000, -2590.000000)">
            <g id="services-02" transform="translate(527.000000, 2590.000000)">
                <path d="M68.6113,10.569 C68.2193,10.178 67.5883,10.178 67.1973,10.569 C66.8053,10.96 66.8053,11.592 67.1973,11.983 C70.9323,15.719 70.9323,21.798 67.1973,25.535 C66.8053,25.926 66.8053,26.558 67.1973,26.949 C67.3913,27.144 67.6483,27.242 67.9043,27.242 C68.1603,27.242 68.4163,27.144 68.6113,26.949 C73.1273,22.434 73.1273,15.085 68.6113,10.569" id="Fill-10" fill="#00D2FF"></path>
                <path d="M64.4004,12.8448 C64.0084,12.4538 63.3774,12.4538 62.9864,12.8448 C62.5944,13.2358 62.5944,13.8678 62.9864,14.2588 C64.2224,15.4958 64.9044,17.1438 64.9044,18.8978 C64.9044,20.6518 64.2224,22.2988 62.9864,23.5358 C62.5944,23.9268 62.5944,24.5588 62.9864,24.9498 C63.1804,25.1448 63.4374,25.2428 63.6934,25.2428 C63.9494,25.2428 64.2054,25.1448 64.4004,24.9498 C66.0144,23.3358 66.9044,21.1858 66.9044,18.8978 C66.9044,16.6098 66.0154,14.4588 64.4004,12.8448" id="Fill-13" fill="#00D2FF"></path>
                <path d="M4.8008,11.983 C5.1918,11.592 5.1918,10.96 4.8008,10.569 C4.4098,10.178 3.7778,10.178 3.3868,10.569 C-1.1292,15.085 -1.1292,22.433 3.3868,26.949 C3.5818,27.144 3.8378,27.242 4.0938,27.242 C4.3498,27.242 4.6058,27.144 4.8008,26.949 C5.1918,26.558 5.1918,25.926 4.8008,25.535 C1.0638,21.799 1.0638,15.72 4.8008,11.983" id="Fill-15" fill="#00D2FF"></path>
                <path d="M9.0122,12.569 C8.6212,12.178 7.9892,12.178 7.5982,12.569 C5.9832,14.183 5.0942,16.333 5.0942,18.621 C5.0942,20.909 5.9832,23.059 7.5982,24.674 C7.7932,24.869 8.0492,24.967 8.3052,24.967 C8.5612,24.967 8.8172,24.869 9.0122,24.674 C9.4032,24.283 9.4032,23.651 9.0122,23.26 C7.7752,22.023 7.0942,20.375 7.0942,18.621 C7.0942,16.867 7.7742,15.22 9.0122,13.983 C9.4022,13.593 9.4022,12.96 9.0122,12.569" id="Fill-18" fill="#00D2FF"></path>
                <g id="Group-13" transform="translate(15.305600, 0.000000)" fill="#333C4E">
                    <path d="M34.5,11 C34.4022,11 34.3032,10.9895025 34.20765,10.9701571 C34.1115,10.9508117 34.01715,10.9220185 33.927,10.8845274 C33.8355,10.8470363 33.7482,10.8008473 33.66735,10.7464102 C33.5847,10.692423 33.50865,10.6297379 33.4395,10.5606044 C33.37035,10.4914708 33.30765,10.4154388 33.252,10.3328085 C33.1992,10.2519777 33.153,10.1646984 33.1155,10.0732201 C33.078,9.98309152 33.048,9.88876392 33.02985,9.79263675 C33.0105,9.69665954 33,9.59753309 33,9.50035617 C33,9.40317924 33.0105,9.30405279 33.02985,9.20627601 C33.048,9.11194841 33.078,9.01762082 33.1155,8.92629251 C33.153,8.83601395 33.1992,8.74873468 33.252,8.66790387 C33.30765,8.5852735 33.37035,8.50924156 33.4395,8.44010797 C33.50865,8.37097439 33.5847,8.30828928 33.66735,8.2526525 C33.7482,8.19866532 33.8355,8.15247629 33.927,8.11498519 C34.01715,8.0774941 34.1115,8.04870093 34.20765,8.02935553 C34.401,7.99021482 34.599,7.99021482 34.79235,8.02935553 C34.8885,8.04870093 34.98285,8.0774941 35.073,8.11498519 C35.1645,8.15247629 35.2512,8.19866532 35.33265,8.2526525 C35.4147,8.30828928 35.49135,8.37097439 35.5605,8.44010797 C35.62965,8.50924156 35.69235,8.5852735 35.74635,8.66790387 C35.8002,8.74873468 35.847,8.83601395 35.8845,8.92629251 C35.922,9.01762082 35.9502,9.11194841 35.97015,9.20627601 C35.9895,9.30405279 36,9.40317924 36,9.50035617 C36,9.59753309 35.9895,9.69665954 35.97015,9.79263675 C35.9502,9.88876392 35.922,9.98309152 35.8845,10.0732201 C35.847,10.1646984 35.8002,10.2519777 35.74635,10.3328085 C35.69235,10.4154388 35.62965,10.4914708 35.5605,10.5606044 C35.49135,10.6297379 35.4147,10.692423 35.33265,10.7464102 C35.2512,10.8008473 35.1645,10.8470363 35.073,10.8845274 C34.98285,10.9220185 34.8885,10.9508117 34.79235,10.9701571 C34.69635,10.9895025 34.5972,11 34.5,11" id="Fill-1"></path>
                    <g id="Group-5">
                        <path d="M40.0961474,66.8242828 C40.0961474,68.1273141 39.0227136,69.1874859 37.7028129,69.1874859 L5.24037583,69.1874859 C3.92118709,69.1874859 2.84775331,68.1273141 2.84775331,66.8242828 L2.84775331,11.8119234 L29.2087467,11.8119234 C29.994707,11.8119234 30.6325877,11.1824859 30.6325877,10.4056734 C30.6325877,9.62956406 29.994707,8.99942344 29.2087467,8.99942344 L2.84775331,8.99942344 L2.84775331,5.17568906 C2.84775331,3.87265781 3.92118709,2.81248594 5.24037583,2.81248594 L37.7028129,2.81248594 C39.0227136,2.81248594 40.0961474,3.87265781 40.0961474,5.17568906 L40.0961474,55.9687359 L10.793356,55.9687359 C10.0069685,55.9687359 9.3695149,56.5981734 9.3695149,57.3749859 C9.3695149,58.1516578 10.0069685,58.7812359 10.793356,58.7812359 L40.0961474,58.7812359 L40.0961474,66.8242828 Z M5.24037583,-1.40625e-05 C2.35097517,-1.40625e-05 7.1192053e-05,2.32198594 7.1192053e-05,5.17568906 L7.1192053e-05,66.8242828 C7.1192053e-05,69.6779859 2.35097517,71.9999859 5.24037583,71.9999859 L37.7028129,71.9999859 C40.5927831,71.9999859 42.9438295,69.6779859 42.9438295,66.8242828 L42.9438295,5.17568906 C42.9438295,2.32198594 40.5927831,-1.40625e-05 37.7028129,-1.40625e-05 L5.24037583,-1.40625e-05 Z" id="Fill-3"></path>
                    </g>
                    <path d="M21.5,62 C20.6732,62 20,62.6732 20,63.5 C20,64.3274 20.6732,65 21.5,65 C22.3274,65 23,64.3274 23,63.5 C23,62.6732 22.3274,62 21.5,62 M21.5,68 C19.01915,68 17,65.98145 17,63.5 C17,61.01915 19.01915,59 21.5,59 C23.98145,59 26,61.01915 26,63.5 C26,65.98145 23.98145,68 21.5,68" id="Fill-6"></path>
                </g>
                <rect id="Rectangle" stroke="#333C4E" stroke-width="3" fill-rule="nonzero" x="22.5" y="18.5" width="28" height="10" rx="2"></rect>
                <rect id="Rectangle" stroke="#333C4E" stroke-width="3" fill-rule="nonzero" x="22.5" y="34.5" width="28" height="10" rx="2"></rect>
            </g>
        </g>
    </g>
</svg>