<?xml version="1.0" encoding="UTF-8"?>
<svg width="58px" height="44px" viewBox="0 0 58 44" version="1.1" xmlns="http://www.w3.org/2000/svg" xmlns:xlink="http://www.w3.org/1999/xlink">
    <!-- Generator: Sketch 52.4 (67378) - http://www.bohemiancoding.com/sketch -->
    <title>services-01</title>
    <desc>Created with Sketch.</desc>
    <g id="Home" stroke="none" stroke-width="1" fill="none" fill-rule="evenodd">
        <g id="About-ixo" transform="translate(-287.000000, -2607.000000)" fill="#333C4E">
            <g id="services-01" transform="translate(287.000000, 2608.000000)">
                <path d="M54.1481481,43 L57.3333333,43 C57.3333333,32.4450926 48.7771296,23.8888889 38.2222222,23.8888889 C27.6673148,23.8888889 19.1111111,32.4450926 19.1111111,43 L22.2962963,43 C22.2962963,34.2184444 29.4406667,27.0740741 38.2222222,27.0740741 C47.0037778,27.0740741 54.1481481,34.2184444 54.1481481,43" id="Fill-5"></path>
                <path d="M37.0277778,2.87946429 C41.3677063,2.87946429 44.8983135,6.41007143 44.8983135,10.75 C44.8983135,15.0899286 41.3677063,18.6205357 37.0277778,18.6205357 C32.6878492,18.6205357 29.1572421,15.0899286 29.1572421,10.75 C29.1572421,6.41007143 32.6878492,2.87946429 37.0277778,2.87946429 Z M37.0277778,21.5 C42.9648492,21.5 47.7777778,16.6870714 47.7777778,10.75 C47.7777778,4.81292857 42.9648492,0 37.0277778,0 C31.0907063,0 26.2777778,4.81292857 26.2777778,10.75 C26.2777778,16.6870714 31.0907063,21.5 37.0277778,21.5 Z" id="Fill-6" stroke="#333C4E" stroke-width="0.3"></path>
                <path d="M3.24307446,43 C3.12525576,42.3373514 3.06022596,41.6567314 3.06022596,40.9608165 C3.06022596,34.5511348 8.27676363,29.3367442 14.6890846,29.3367442 C16.3840673,29.3367442 17.9937461,29.7038202 19.4473534,30.358439 C20.0727871,29.5065168 20.7582777,28.7020087 21.5,27.9521795 C19.4638022,26.8846002 17.1479762,26.2777778 14.6890846,26.2777778 C6.57642558,26.2777778 0,32.8514966 0,40.9608165 C0,41.6529077 0.0516413131,42.3331453 0.144213148,43 L3.24307446,43" id="Fill-7"></path>
                <path d="M14.3333333,8.19030556 C17.7203796,8.19030556 20.4763611,10.946287 20.4763611,14.3333333 C20.4763611,17.7203796 17.7203796,20.4763611 14.3333333,20.4763611 C10.946287,20.4763611 8.19030556,17.7203796 8.19030556,14.3333333 C8.19030556,10.946287 10.946287,8.19030556 14.3333333,8.19030556 Z M14.3333333,23.8888889 C19.610787,23.8888889 23.8888889,19.610787 23.8888889,14.3333333 C23.8888889,9.05587963 19.610787,4.77777778 14.3333333,4.77777778 C9.05587963,4.77777778 4.77777778,9.05587963 4.77777778,14.3333333 C4.77777778,19.610787 9.05587963,23.8888889 14.3333333,23.8888889 Z" id="Fill-8"></path>
            </g>
        </g>
    </g>
</svg>