<?xml version="1.0" encoding="UTF-8"?>
<svg width="76px" height="36px" viewBox="0 0 76 36" version="1.1" xmlns="http://www.w3.org/2000/svg" xmlns:xlink="http://www.w3.org/1999/xlink">
    <!-- Generator: Sketch 52.4 (67378) - http://www.bohemiancoding.com/sketch -->
    <title>services-05</title>
    <desc>Created with Sketch.</desc>
    <g id="Home" stroke="none" stroke-width="1" fill="none" fill-rule="evenodd">
        <g id="Home-" transform="translate(-310.000000, -3644.000000)">
            <g id="Group-19" transform="translate(235.000000, 3591.000000)">
                <g id="services-05" transform="translate(75.000000, 53.000000)">
                    <g id="Group-3">
                        <path d="M67.7980296,12.7794246 C65.1928444,12.7794246 63.0731407,10.6685557 63.0731407,8.0739 C63.0731407,5.4793918 65.1926963,3.36837541 67.7980296,3.36837541 C70.4032148,3.36837541 72.5230667,5.47924426 72.5230667,8.0739 C72.5230667,10.6685557 70.4032148,12.7794246 67.7980296,12.7794246 M47.9590667,32.5370803 C45.3538815,32.5370803 43.2341778,30.4260639 43.2341778,27.8315557 C43.2341778,25.2369 45.3537333,23.1260311 47.9590667,23.1260311 C50.5642519,23.1260311 52.6839556,25.2369 52.6839556,27.8315557 C52.6838074,30.4260639 50.5642519,32.5370803 47.9590667,32.5370803 M27.8926963,12.7794246 C25.2875111,12.7794246 23.1678074,10.6685557 23.1678074,8.0739 C23.1678074,5.4793918 25.287363,3.36837541 27.8926963,3.36837541 C30.4980296,3.36837541 32.6175852,5.47924426 32.6175852,8.0739 C32.6175852,10.6685557 30.4980296,12.7794246 27.8926963,12.7794246 M8.05373333,32.5370803 C5.4484,32.5370803 3.32884444,30.4260639 3.32884444,27.8317033 C3.32884444,25.2370475 5.4484,23.1261787 8.05373333,23.1261787 C10.6590667,23.1261787 12.7786222,25.2370475 12.7786222,27.8317033 C12.7786222,30.4260639 10.6592148,32.5370803 8.05373333,32.5370803 M67.7980296,0.0532770492 C63.3571407,0.0532770492 59.7444,3.65135902 59.7444,8.07404754 C59.7444,9.68711311 60.2266222,11.1892279 61.0526963,12.4481951 L52.351363,21.1137197 C51.0870667,20.2910311 49.5789185,19.8107852 47.9590667,19.8107852 C46.2806963,19.8107852 44.7208444,20.3254082 43.429437,21.2037197 L34.6384741,12.4476049 C35.4644,11.1886377 35.9463259,9.68667049 35.9463259,8.0739 C35.9463259,3.65121148 32.333437,0.0531295082 27.8925481,0.0531295082 C23.4516593,0.0531295082 19.8387704,3.65121148 19.8387704,8.0739 C19.8387704,9.68667049 20.3208444,11.1881951 21.1464741,12.4471623 L12.4449926,21.112982 C11.1809926,20.2907361 9.67299259,19.8107852 8.05373333,19.8107852 C3.61284444,19.8107852 -4.44444444e-05,23.4090148 -4.44444444e-05,27.8317033 C-4.44444444e-05,32.2543918 3.61284444,35.8524738 8.05373333,35.8524738 C12.4946222,35.8524738 16.1075111,32.2543918 16.1075111,27.8317033 C16.1075111,26.2186377 15.6252889,24.716523 14.7992148,23.4574082 L23.5004,14.7918836 C24.7646963,15.6145721 26.2729926,16.094818 27.8926963,16.094818 C29.5122519,16.094818 31.0205481,15.6145721 32.2846963,14.7918836 L41.1241037,23.5960967 C40.3528444,24.826441 39.9055852,26.2776541 39.9055852,27.8315557 C39.9055852,32.2542443 43.5183259,35.8523262 47.9592148,35.8523262 C52.4001037,35.8523262 56.0129926,32.2542443 56.0129926,27.8315557 C56.0129926,26.2187852 55.5309185,24.7171131 54.7052889,23.4582934 L63.4069185,14.7923262 C64.6712148,15.6147197 66.1790667,16.0946705 67.7981778,16.0946705 C72.2392148,16.0946705 75.8519556,12.4965885 75.8519556,8.0739 C75.8519556,3.65106393 72.2390667,0.0532770492 67.7980296,0.0532770492" id="Fill-1" fill="#333C4E"></path>
                        <circle id="Oval" stroke="#00D2FF" stroke-width="3" fill="#FFFFFF" fill-rule="nonzero" cx="47.75" cy="27.75" r="6.75"></circle>
                    </g>
                    <path d="M26.4916202,20.5082738 C25.813935,19.8305754 24.7153991,19.8305754 24.0377138,20.5082738 L20.5081288,24.0379269 C19.830598,24.7153164 19.830598,25.8140279 20.5082833,26.4917262 C20.8471259,26.8307299 21.2911426,27 21.7351592,27 C22.1791759,27 22.623347,26.8305754 22.9620352,26.4917262 L26.4916202,22.9622275 C27.1694599,22.2846836 27.1694599,21.1858177 26.4916202,20.5082738" id="Fill-4" fill="#333C4E"></path>
                    <path d="M55.4918656,9.50813722 C54.8141728,8.83059519 53.7157793,8.83059519 53.0377777,9.50829167 L49.5081537,13.0379351 C48.8306154,13.7154771 48.8306154,14.8141856 49.5081537,15.4918821 C49.8471545,15.8305759 50.2911761,16 50.7351977,16 C51.1793737,16 51.6232408,15.8304214 51.9622416,15.4917276 L55.4917111,11.9620842 C56.1694039,11.2843877 56.1694039,10.1856793 55.4918656,9.50813722" id="Fill-6" fill="#333C4E"></path>
                </g>
            </g>
        </g>
    </g>
</svg>