<?xml version="1.0" encoding="UTF-8"?>
<svg width="55px" height="55px" viewBox="0 0 55 55" version="1.1" xmlns="http://www.w3.org/2000/svg" xmlns:xlink="http://www.w3.org/1999/xlink">
    <!-- Generator: Sketch 52.4 (67378) - http://www.bohemiancoding.com/sketch -->
    <title>Group 6</title>
    <desc>Created with Sketch.</desc>
    <defs>
        <polygon id="path-1" points="0 1.07421875e-05 54.999957 1.07421875e-05 54.999957 55 0 55"></polygon>
    </defs>
    <g id="Home" stroke="none" stroke-width="1" fill="none" fill-rule="evenodd">
        <g id="Home-" transform="translate(-581.000000, -3629.000000)">
            <g id="Group-6" transform="translate(581.000000, 3629.000000)">
                <g id="Group-3">
                    <mask id="mask-2" fill="white">
                        <use xlink:href="#path-1"></use>
                    </mask>
                    <g id="Clip-2"></g>
                    <path d="M38.8212559,27.5000107 C33.7431016,28.8934873 28.5783652,30.2034971 27.499957,30.2034971 C26.0094785,30.2034971 24.796793,28.9908115 24.796793,27.5000107 C24.796793,26.0091025 26.0094785,24.796417 27.499957,24.796417 C28.5783652,24.796417 33.7431016,26.1068564 38.8212559,27.5000107 M11.5189121,45.7595811 L16.4350742,40.8433115 C17.0645664,40.2143564 17.0645664,39.1942783 16.4350742,38.5647861 C13.479791,35.6090732 11.852457,31.6793662 11.852457,27.5000107 C11.852457,23.3202256 13.479791,19.3909482 16.4355039,16.4351279 C19.3908945,13.4797373 23.3206016,11.8520811 27.499957,11.8520811 C31.6794199,11.8520811 35.609127,13.4797373 38.5648398,16.4355576 L38.5656992,16.436417 C40.9998789,18.8710264 42.5319297,21.9664951 42.9968516,25.3183799 C38.4734238,24.0339365 29.541832,21.5737607 27.499957,21.5737607 C24.2323984,21.5737607 21.5741367,24.2324521 21.5741367,27.5000107 C21.5741367,30.7674619 24.2323984,33.4261533 27.499957,33.4261533 C29.541832,33.4261533 38.4729941,30.9659775 42.9968516,29.6815342 C42.5319297,33.0338486 40.9994492,36.1297471 38.5648398,38.5647861 C37.9354551,39.1938486 37.9354551,40.2143564 38.5648398,40.8433115 L43.4811094,45.7595811 C39.2077598,49.5042002 33.614625,51.7773545 27.499957,51.7773545 C21.3853965,51.7773545 15.7922617,49.5042002 11.5189121,45.7595811 M9.24038672,11.5192881 L13.0647129,15.3437217 C10.1937559,18.7413682 8.62980078,23.0004307 8.62980078,27.5000107 C8.62980078,31.9994834 10.1937559,36.2586533 13.0647129,39.6562998 L9.24038672,43.480626 C5.49576758,39.2077061 3.22261328,33.6145713 3.22261328,27.5000107 C3.22261328,21.3853428 5.49576758,15.7923154 9.24038672,11.5192881 M43.4811094,9.24044043 L39.6562461,13.0647666 C36.258707,10.1938096 31.9995371,8.6294248 27.499957,8.6294248 C23.0004844,8.6294248 18.7413145,10.1938096 15.343668,13.0647666 L11.5193418,9.24044043 C15.7922617,5.49571387 21.3853965,3.22266699 27.499957,3.22266699 C33.614625,3.22266699 39.2077598,5.49571387 43.4811094,9.24044043 M45.7596348,43.480626 L41.9352012,39.6562998 C44.8062656,36.2586533 46.370543,31.9994834 46.370543,27.5000107 C46.370543,23.0004307 44.8062656,18.7413682 41.9352012,15.3437217 L45.7596348,11.5192881 C49.5042539,15.7923154 51.7773008,21.3853428 51.7773008,27.5000107 C51.7773008,33.6145713 49.5042539,39.2077061 45.7596348,43.480626 M46.9471836,46.9436924 C52.1402793,41.750167 54.999957,34.8445518 54.999957,27.5000107 C54.999957,20.1554697 52.1398496,13.2502842 46.9467539,8.05622168 C46.9463242,8.05579199 46.9458945,8.05493262 46.9454648,8.05450293 L46.9441758,8.05332129 C41.7502207,2.86011816 34.8449277,1.07421875e-05 27.499957,1.07421875e-05 C20.1545566,1.07421875e-05 13.2485117,2.86054785 8.05455664,8.05450293 C2.86049414,13.2485654 -4.296875e-05,20.1546104 -4.296875e-05,27.5000107 C-4.296875e-05,34.8445518 2.86006445,41.7497373 8.05283789,46.9436924 C8.05369727,46.9445518 8.05369727,46.9449814 8.05455664,46.9454111 L8.0558457,46.9467002 C13.2498008,52.1399033 20.1549863,55.0000107 27.499957,55.0000107 C34.8449277,55.0000107 41.7502207,52.1399033 46.9441758,46.9467002 L46.9454648,46.9454111 C46.9463242,46.9449814 46.9463242,46.9445518 46.9471836,46.9436924" id="Fill-1" fill="#333C4E" mask="url(#mask-2)"></path>
                </g>
                <path d="M32.2910586,38 L24.7089414,38 C23.7650361,38 23,38.6715 23,39.5 C23,40.3285 23.7650361,41 24.7089414,41 L32.2910586,41 C33.2345082,41 34,40.3285 34,39.5 C34,38.6715 33.2345082,38 32.2910586,38" id="Fill-4" fill="#00D2FF"></path>
            </g>
        </g>
    </g>
</svg>