<?xml version="1.0" encoding="UTF-8"?>
<svg width="63px" height="62px" viewBox="0 0 63 62" version="1.1" xmlns="http://www.w3.org/2000/svg" xmlns:xlink="http://www.w3.org/1999/xlink">
    <!-- Generator: Sketch 52.4 (67378) - http://www.bohemiancoding.com/sketch -->
    <title>services-04</title>
    <desc>Created with Sketch.</desc>
    <defs>
        <polygon id="path-1" points="49 38.25 45.75 41.5 49 44.75 49 48 45.75 48 42.5 44.75 39.25 48 36 48 36 44.75 39.25 41.5 36 38.25 36 35 39.25 35 42.5 38.25 45.75 35 49 35"></polygon>
    </defs>
    <g id="Home" stroke="none" stroke-width="1" fill="none" fill-rule="evenodd">
        <g id="About-ixo" transform="translate(-533.000000, -2814.000000)">
            <g id="services-04" transform="translate(533.000000, 2814.000000)">
                <path d="M42.0820721,59.549412 C31.904885,59.549412 23.6250769,51.3044085 23.6250769,41.1700016 C23.6250769,31.0355948 31.904885,22.7905913 42.0820721,22.7905913 C52.2592593,22.7905913 60.5390673,31.0355948 60.5390673,41.1700016 C60.5390673,51.3044085 52.2592593,59.549412 42.0820721,59.549412 Z M12.3046635,52.9327017 C10.5405439,52.9327017 9.10545097,51.5036413 9.10545097,49.7469373 C9.10545097,47.9902332 10.5405439,46.5611728 12.3046635,46.5611728 L21.875969,46.5611728 C22.4968623,48.8663184 23.5054756,51.0146265 24.8282269,52.9327017 L12.3046635,52.9327017 Z M12.3046635,37.7390559 L21.4494894,37.7390559 C21.2628276,38.8556663 21.1641442,40.0014387 21.1641442,41.1700016 C21.1641442,42.1681261 21.2366187,43.1495867 21.3735696,44.1105848 L12.3046635,44.1105848 C10.5405439,44.1105848 9.10545097,42.6815243 9.10545097,40.9248203 C9.10545097,39.1681163 10.5405439,37.7390559 12.3046635,37.7390559 Z M12.3046635,28.9169389 L25.1771872,28.9169389 C23.7803618,30.8226387 22.7003814,32.9720495 22.0145195,35.2884678 L12.3046635,35.2884678 C10.5405439,35.2884678 9.10545097,33.8594074 9.10545097,32.1027034 C9.10545097,30.3461218 10.5405439,28.9169389 12.3046635,28.9169389 Z M12.3046635,20.0948219 L42.451089,20.0948219 C42.9467208,20.0948219 43.4213117,20.2095095 43.847053,20.4148687 C43.2650425,20.3662246 42.6766334,20.3400033 42.0820721,20.3400033 C36.3056478,20.3400033 31.0687831,22.6838682 27.279685,26.4663509 L12.3046635,26.4663509 C10.5406669,26.4663509 9.10545097,25.0371679 9.10545097,23.2805864 C9.10545097,21.5240049 10.5406669,20.0948219 12.3046635,20.0948219 Z M5.6601452,8.82211695 C3.89602559,8.82211695 2.46093269,7.39293401 2.46093269,5.6363525 C2.46093269,3.87977099 3.89602559,2.45058804 5.6601452,2.45058804 L35.8065707,2.45058804 C37.5706903,2.45058804 39.0057832,3.87977099 39.0057832,5.6363525 C39.0057832,7.39293401 37.5706903,8.82211695 35.8065707,8.82211695 L5.6601452,8.82211695 Z M50.3260736,11.272705 C52.0901932,11.272705 53.5252861,12.7018879 53.5252861,14.4584694 C53.5252861,16.215051 52.0901932,17.6442339 50.3260736,17.6442339 L42.451089,17.6442339 L20.1796481,17.6442339 C18.4155285,17.6442339 16.9804356,16.215051 16.9804356,14.4584694 C16.9804356,12.7018879 18.4155285,11.272705 20.1796481,11.272705 L50.3260736,11.272705 Z M47.6693737,21.0956421 C47.5196259,20.7403068 47.3361634,20.405434 47.1226775,20.0948219 L50.3260736,20.0948219 C53.4470284,20.0948219 55.9862188,17.5663052 55.9862188,14.4584694 C55.9862188,11.3506337 53.4470284,8.82211695 50.3260736,8.82211695 L40.4724991,8.82211695 C41.0989295,7.91515432 41.4667159,6.81790352 41.4667159,5.6363525 C41.4667159,2.52851674 38.9275255,0 35.8065707,0 L5.6601452,0 C2.53919035,0 0,2.52851674 0,5.6363525 C0,8.74418825 2.53919035,11.272705 5.6601452,11.272705 L15.5137197,11.272705 C14.8872893,12.1796676 14.5195029,13.2769184 14.5195029,14.4584694 C14.5195029,15.6400205 14.8871662,16.7372713 15.5137197,17.6442339 L12.3046635,17.6442339 C9.18370863,17.6442339 6.64451827,20.1727506 6.64451827,23.2805864 C6.64451827,25.0654722 7.48295804,26.6582319 8.78737542,27.6916449 C7.48295804,28.7250579 6.64451827,30.3179401 6.64451827,32.1027034 C6.64451827,33.8875892 7.48295804,35.4803489 8.78737542,36.5137618 C7.48295804,37.5472973 6.64451827,39.140057 6.64451827,40.9248203 C6.64451827,42.7097061 7.48295804,44.3024658 8.78737542,45.3358788 C7.48295804,46.3694143 6.64451827,47.962174 6.64451827,49.7469373 C6.64451827,52.854773 9.18370863,55.3832898 12.3046635,55.3832898 L26.8057094,55.3832898 C30.6259382,59.4521236 36.0604159,62 42.0820721,62 C53.6162175,62 63,52.6556627 63,41.1700016 C63,31.6106253 56.4994463,23.5358151 47.6693737,21.0956421 Z" id="Fill-1" fill="#333C4E"></path>
                <circle id="Oval" stroke="#00D2FF" stroke-width="2.5" fill="#FAFAFA" fill-rule="nonzero" cx="42.5" cy="41.5" r="13.5"></circle>
                <mask id="mask-2" fill="white">
                    <use xlink:href="#path-1"></use>
                </mask>
                <use id="Mask" stroke="#00D2FF" stroke-width="2.5" xlink:href="#path-1"></use>
            </g>
        </g>
    </g>
</svg>