<svg width="98" height="26" viewBox="0 0 98 26" fill="none" xmlns="http://www.w3.org/2000/svg">
<path d="M15.1258 12.3932C15.1367 11.547 15.3615 10.7172 15.7792 9.98119C16.197 9.24515 16.7941 8.62673 17.5151 8.18348C17.0571 7.52935 16.4529 6.99103 15.7504 6.61128C15.0479 6.23152 14.2666 6.02079 13.4685 5.99582C11.7659 5.8171 10.1153 7.01461 9.2477 7.01461C8.36331 7.01461 7.0275 6.01356 5.58904 6.04315C4.65861 6.07321 3.75184 6.34377 2.95706 6.82848C2.16229 7.31318 1.50663 7.99549 1.05395 8.80893C-0.906878 12.2039 0.555729 17.1933 2.43408 19.9376C3.37386 21.2814 4.47219 22.7824 5.90935 22.7292C7.31569 22.6708 7.84093 21.8324 9.53849 21.8324C11.2203 21.8324 11.7131 22.7292 13.1794 22.6953C14.6885 22.6708 15.6393 21.3456 16.5461 19.9891C17.2213 19.0316 17.7409 17.9734 18.0856 16.8536C17.2089 16.4828 16.4607 15.8621 15.9344 15.0689C15.408 14.2757 15.1268 13.3452 15.1258 12.3932Z" fill="white"/>
<path d="M12.3563 4.19052C13.1791 3.20277 13.5844 1.93318 13.4863 0.651375C12.2292 0.783404 11.068 1.3842 10.2341 2.33405C9.82639 2.79808 9.51411 3.33791 9.31514 3.9227C9.11616 4.50749 9.0344 5.12576 9.07451 5.74216C9.70327 5.74864 10.3253 5.61235 10.8937 5.34358C11.4622 5.07481 11.9623 4.68056 12.3563 4.19052Z" fill="white"/>
<path d="M31.9983 19.4612H27.3832L26.2749 22.7337H24.3202L28.6915 10.6261H30.7224L35.0937 22.7337H33.1057L31.9983 19.4612ZM27.8612 17.951H31.5194L29.716 12.64H29.6655L27.8612 17.951Z" fill="white"/>
<path d="M44.5344 18.3203C44.5344 21.0634 43.0662 22.8258 40.8505 22.8258C40.2892 22.8552 39.7311 22.7259 39.2399 22.4527C38.7487 22.1796 38.3443 21.7737 38.0731 21.2814H38.0312V25.6537H36.2192V13.9061H37.9731V15.3743H38.0064C38.2901 14.8844 38.7013 14.4806 39.1962 14.2058C39.6912 13.931 40.2513 13.7955 40.8172 13.8137C43.0576 13.8137 44.5344 15.5847 44.5344 18.3203ZM42.672 18.3203C42.672 16.5331 41.7484 15.3581 40.3392 15.3581C38.9548 15.3581 38.0236 16.5578 38.0236 18.3203C38.0236 20.0989 38.9548 21.29 40.3392 21.29C41.7484 21.29 42.6719 20.1236 42.6719 18.3203H42.672Z" fill="white"/>
<path d="M54.2505 18.3203C54.2505 21.0634 52.7818 22.8258 50.5662 22.8258C50.0049 22.8552 49.4467 22.7259 48.9555 22.4527C48.4643 22.1796 48.06 21.7737 47.7888 21.2814H47.7468V25.6537H45.9349V13.9061H47.6887V15.3743H47.7221C48.0058 14.8844 48.4169 14.4806 48.9119 14.2058C49.4068 13.931 49.967 13.7955 50.5328 13.8137C52.7732 13.8137 54.2505 15.5847 54.2505 18.3203ZM52.3876 18.3203C52.3876 16.5331 51.464 15.3581 50.0549 15.3581C48.6704 15.3581 47.7392 16.5578 47.7392 18.3203C47.7392 20.0989 48.6704 21.29 50.0549 21.29C51.464 21.29 52.3876 20.1236 52.3876 18.3203Z" fill="white"/>
<path d="M60.6709 19.3603C60.8051 20.5609 61.9715 21.3493 63.5654 21.3493C65.0927 21.3493 66.1914 20.5609 66.1914 19.4783C66.1914 18.5385 65.5287 17.9758 63.9596 17.5902L62.3905 17.2122C60.1672 16.6752 59.1351 15.6354 59.1351 13.9482C59.1351 11.8592 60.9556 10.4243 63.5397 10.4243C66.0991 10.4243 67.8529 11.8592 67.912 13.9482H66.0829C65.9734 12.7399 64.9746 12.0106 63.5149 12.0106C62.0553 12.0106 61.0565 12.7485 61.0565 13.8225C61.0565 14.6785 61.6944 15.1822 63.255 15.5678L64.589 15.8953C67.0731 16.4828 68.1043 17.4807 68.1043 19.2517C68.1043 21.5168 66.3009 22.9355 63.4311 22.9355C60.746 22.9355 58.9332 21.5501 58.816 19.3602L60.6709 19.3603Z" fill="white"/>
<path d="M72.0166 11.818V13.9071H73.6952V15.342H72.0166V20.2084C72.0166 20.9644 72.3527 21.3167 73.0906 21.3167C73.2899 21.3132 73.4888 21.2992 73.6866 21.2748V22.7011C73.3549 22.7631 73.0177 22.7911 72.6802 22.7849C70.893 22.7849 70.1961 22.1136 70.1961 20.4016V15.342H68.9126V13.9071H70.196V11.818H72.0166Z" fill="white"/>
<path d="M74.6664 18.3212C74.6664 15.5438 76.3021 13.7985 78.853 13.7985C81.4123 13.7985 83.0405 15.5438 83.0405 18.3212C83.0405 21.1063 81.4209 22.8439 78.853 22.8439C76.2859 22.8439 74.6664 21.1062 74.6664 18.3212ZM81.1943 18.3212C81.1943 16.416 80.3212 15.2915 78.8529 15.2915C77.3847 15.2915 76.5116 16.4245 76.5116 18.3212C76.5116 20.2341 77.3847 21.35 78.8529 21.35C80.3212 21.35 81.1943 20.2341 81.1943 18.3212H81.1943Z" fill="white"/>
<path d="M84.5347 13.906H86.2628V15.4085H86.3048C86.4217 14.9392 86.6966 14.5245 87.0833 14.2341C87.4699 13.9436 87.9448 13.7952 88.428 13.8136C88.6369 13.8129 88.8451 13.8356 89.0488 13.8812V15.5761C88.7852 15.4955 88.5102 15.4585 88.2347 15.4666C87.9715 15.4559 87.7091 15.5023 87.4655 15.6026C87.2219 15.7029 87.0029 15.8548 86.8235 16.0477C86.6441 16.2407 86.5086 16.4701 86.4263 16.7204C86.344 16.9706 86.3168 17.2357 86.3466 17.4975V22.7334H84.5347L84.5347 13.906Z" fill="white"/>
<path d="M97.4028 20.1417C97.159 21.7442 95.5984 22.8439 93.6018 22.8439C91.0338 22.8439 89.44 21.1234 89.44 18.3631C89.44 15.5943 91.0424 13.7985 93.5256 13.7985C95.9679 13.7985 97.5037 15.4762 97.5037 18.1527V18.7735H91.269V18.883C91.2403 19.2079 91.2809 19.5351 91.3884 19.8431C91.4958 20.151 91.6675 20.4326 91.8921 20.6691C92.1167 20.9056 92.389 21.0915 92.691 21.2147C92.993 21.3378 93.3178 21.3953 93.6437 21.3833C94.0719 21.4234 94.5016 21.3243 94.8689 21.1006C95.2361 20.8769 95.5214 20.5406 95.6822 20.1417L97.4028 20.1417ZM91.2776 17.5071H95.6908C95.7071 17.215 95.6628 16.9227 95.5607 16.6485C95.4587 16.3744 95.301 16.1242 95.0977 15.9139C94.8944 15.7035 94.6498 15.5374 94.3793 15.426C94.1087 15.3147 93.8181 15.2604 93.5256 15.2667C93.2306 15.265 92.9381 15.3217 92.665 15.4335C92.392 15.5454 92.1438 15.7102 91.9348 15.9185C91.7258 16.1268 91.5601 16.3745 91.4473 16.6471C91.3345 16.9198 91.2768 17.2121 91.2776 17.5071V17.5071Z" fill="white"/>
<path d="M27.6343 1.51319C28.0142 1.48593 28.3954 1.54332 28.7504 1.68122C29.1054 1.81912 29.4254 2.03408 29.6873 2.31062C29.9491 2.58715 30.1464 2.91836 30.2647 3.28035C30.3831 3.64234 30.4196 4.02609 30.3717 4.40391C30.3717 6.26251 29.3672 7.33086 27.6343 7.33086H25.5329V1.51319H27.6343ZM26.4365 6.50812H27.5334C27.8048 6.52434 28.0765 6.47984 28.3286 6.37784C28.5806 6.27584 28.8068 6.11891 28.9906 5.91849C29.1744 5.71806 29.3111 5.47918 29.3909 5.21923C29.4708 4.95927 29.4916 4.68479 29.452 4.41577C29.4887 4.14781 29.4658 3.87503 29.3847 3.61698C29.3037 3.35893 29.1666 3.12201 28.9832 2.92317C28.7998 2.72434 28.5748 2.56853 28.3241 2.4669C28.0735 2.36527 27.8034 2.32034 27.5334 2.33532H26.4365V6.50812Z" fill="white"/>
<path d="M31.3923 5.13443C31.3647 4.84591 31.3978 4.5548 31.4892 4.27978C31.5807 4.00477 31.7287 3.75191 31.9236 3.53743C32.1186 3.32294 32.3562 3.15157 32.6213 3.0343C32.8863 2.91703 33.173 2.85646 33.4628 2.85646C33.7526 2.85646 34.0393 2.91703 34.3043 3.0343C34.5694 3.15157 34.807 3.32294 35.0019 3.53743C35.1969 3.75191 35.3448 4.00477 35.4363 4.27978C35.5278 4.5548 35.5608 4.84591 35.5332 5.13443C35.5614 5.42324 35.5288 5.71475 35.4375 5.99021C35.3462 6.26567 35.1984 6.519 35.0034 6.7339C34.8084 6.9488 34.5706 7.12054 34.3053 7.23806C34.0399 7.35558 33.753 7.41629 33.4628 7.41629C33.1726 7.41629 32.8856 7.35558 32.6203 7.23806C32.355 7.12054 32.1172 6.9488 31.9222 6.7339C31.7272 6.519 31.5793 6.26567 31.4881 5.99021C31.3968 5.71475 31.3642 5.42324 31.3923 5.13443ZM34.642 5.13443C34.642 4.18276 34.2145 3.62623 33.4642 3.62623C32.7111 3.62623 32.2874 4.18276 32.2874 5.13444C32.2874 6.09373 32.7111 6.64597 33.4642 6.64597C34.2145 6.64596 34.642 6.08991 34.642 5.13443H34.642Z" fill="white"/>
<path d="M41.0377 7.33079H40.1389L39.2315 4.09729H39.1629L38.2593 7.33079H37.3691L36.1589 2.94043H37.0377L37.8242 6.29053H37.889L38.7916 2.94043H39.6228L40.5255 6.29053H40.594L41.3767 2.94043H42.2431L41.0377 7.33079Z" fill="white"/>
<path d="M43.261 2.94006H44.0951V3.63751H44.1598C44.2697 3.38701 44.4549 3.17702 44.6898 3.03681C44.9246 2.8966 45.1974 2.83316 45.47 2.85532C45.6836 2.83925 45.8981 2.87146 46.0976 2.94956C46.2971 3.02765 46.4764 3.14963 46.6224 3.30645C46.7683 3.46327 46.8771 3.65092 46.9407 3.8555C47.0042 4.06007 47.021 4.27633 46.9896 4.48825V7.33037H46.1232V4.70583C46.1232 4.00029 45.8166 3.64942 45.1758 3.64942C45.0307 3.64266 44.8859 3.66734 44.7513 3.72178C44.6167 3.77621 44.4955 3.85911 44.3959 3.96479C44.2963 4.07046 44.2208 4.19642 44.1745 4.33402C44.1281 4.47162 44.1121 4.61762 44.1274 4.762V7.33042H43.261L43.261 2.94006Z" fill="white"/>
<path d="M48.3701 1.22657H49.2366V7.33079H48.3701V1.22657Z" fill="white"/>
<path d="M50.4412 5.13295C50.4136 4.84441 50.4467 4.55329 50.5382 4.27826C50.6297 4.00323 50.7777 3.75036 50.9727 3.53588C51.1676 3.32139 51.4053 3.15002 51.6703 3.03274C51.9354 2.91547 52.2221 2.8549 52.5119 2.8549C52.8018 2.8549 53.0884 2.91547 53.3535 3.03274C53.6186 3.15002 53.8562 3.32139 54.0512 3.53588C54.2461 3.75036 54.3941 4.00323 54.4856 4.27826C54.5771 4.55329 54.6102 4.84441 54.5826 5.13295C54.6107 5.42178 54.578 5.71329 54.4868 5.98875C54.3955 6.26421 54.2476 6.51752 54.0526 6.73242C53.8576 6.94732 53.6197 7.11904 53.3544 7.23656C53.0891 7.35407 52.8021 7.41478 52.5119 7.41478C52.2217 7.41478 51.9347 7.35407 51.6694 7.23656C51.4041 7.11904 51.1663 6.94732 50.9713 6.73242C50.7762 6.51752 50.6283 6.26421 50.5371 5.98875C50.4458 5.71329 50.4131 5.42178 50.4412 5.13295ZM53.6909 5.13295C53.6909 4.18128 53.2634 3.62475 52.5131 3.62475C51.76 3.62475 51.3363 4.18128 51.3363 5.13296C51.3363 6.09225 51.76 6.64449 52.5131 6.64449C53.2634 6.64448 53.6909 6.08843 53.6909 5.13295H53.6909Z" fill="white"/>
<path d="M55.4947 6.08995C55.4947 5.29966 56.0831 4.84406 57.1276 4.77931L58.3169 4.71076V4.33181C58.3169 3.86811 58.0103 3.60627 57.418 3.60627C56.9343 3.60627 56.5992 3.78385 56.503 4.09425H55.6642C55.7527 3.34014 56.4621 2.85646 57.458 2.85646C58.5587 2.85646 59.1795 3.40441 59.1795 4.33181V7.33155H58.3454V6.71456H58.2769C58.1377 6.93588 57.9423 7.1163 57.7107 7.23741C57.479 7.35851 57.2193 7.41596 56.9581 7.40389C56.7738 7.42306 56.5876 7.40339 56.4113 7.34616C56.2351 7.28893 56.0728 7.1954 55.9349 7.07161C55.797 6.94781 55.6866 6.7965 55.6108 6.62742C55.535 6.45834 55.4954 6.27525 55.4947 6.08995ZM58.3169 5.7148V5.34775L57.2447 5.4163C56.6401 5.45676 56.3659 5.66243 56.3659 6.04948C56.3659 6.44461 56.7087 6.67456 57.18 6.67456C57.3181 6.68854 57.4576 6.67459 57.5902 6.63356C57.7228 6.59252 57.8458 6.52522 57.9519 6.43568C58.058 6.34613 58.1449 6.23617 58.2076 6.11232C58.2703 5.98848 58.3075 5.85329 58.3169 5.7148Z" fill="white"/>
<path d="M60.3182 5.13372C60.3182 3.74644 61.0314 2.86761 62.1406 2.86761C62.415 2.85497 62.6873 2.92068 62.9257 3.05708C63.1641 3.19348 63.3588 3.39492 63.4869 3.63786H63.5517V1.22657H64.4181V7.33079H63.5879V6.63714H63.5193C63.3813 6.87845 63.1798 7.07738 62.9368 7.2124C62.6938 7.34742 62.4184 7.41338 62.1406 7.40314C61.0237 7.40319 60.3182 6.52434 60.3182 5.13372ZM61.2132 5.13372C61.2132 6.06493 61.6522 6.62527 62.3863 6.62527C63.1166 6.62527 63.5679 6.05684 63.5679 5.13753C63.5679 4.22252 63.1118 3.64599 62.3863 3.64599C61.6569 3.64599 61.2132 4.21013 61.2132 5.13372H61.2132Z" fill="white"/>
<path d="M68.0029 5.13443C67.9753 4.84591 68.0083 4.5548 68.0998 4.27978C68.1913 4.00477 68.3393 3.75191 68.5342 3.53743C68.7292 3.32294 68.9668 3.15157 69.2318 3.0343C69.4969 2.91703 69.7835 2.85646 70.0734 2.85646C70.3632 2.85646 70.6499 2.91703 70.9149 3.0343C71.18 3.15157 71.4176 3.32294 71.6125 3.53743C71.8075 3.75191 71.9554 4.00477 72.0469 4.27978C72.1384 4.5548 72.1714 4.84591 72.1438 5.13443C72.1719 5.42324 72.1393 5.71475 72.0481 5.99021C71.9568 6.26567 71.809 6.519 71.614 6.7339C71.419 6.9488 71.1812 7.12054 70.9158 7.23806C70.6505 7.35558 70.3636 7.41629 70.0734 7.41629C69.7832 7.41629 69.4962 7.35558 69.2309 7.23806C68.9656 7.12054 68.7278 6.9488 68.5328 6.7339C68.3378 6.519 68.1899 6.26567 68.0987 5.99021C68.0074 5.71475 67.9748 5.42324 68.0029 5.13443ZM71.2526 5.13443C71.2526 4.18276 70.8251 3.62623 70.0748 3.62623C69.3217 3.62623 68.898 4.18276 68.898 5.13444C68.898 6.09373 69.3217 6.64597 70.0748 6.64597C70.8251 6.64596 71.2526 6.08991 71.2526 5.13443Z" fill="white"/>
<path d="M73.3064 2.94006H74.1405V3.63751H74.2053C74.3151 3.38701 74.5004 3.17702 74.7352 3.03681C74.9701 2.8966 75.2428 2.83316 75.5154 2.85532C75.7291 2.83925 75.9435 2.87146 76.143 2.94956C76.3425 3.02765 76.5219 3.14963 76.6678 3.30645C76.8138 3.46327 76.9225 3.65092 76.9861 3.8555C77.0497 4.06007 77.0664 4.27633 77.0351 4.48825V7.33037H76.1686V4.70583C76.1686 4.00029 75.862 3.64942 75.2212 3.64942C75.0762 3.64266 74.9314 3.66734 74.7968 3.72178C74.6622 3.77621 74.5409 3.85911 74.4414 3.96479C74.3418 4.07046 74.2662 4.19642 74.2199 4.33402C74.1736 4.47162 74.1575 4.61762 74.1729 4.762V7.33042H73.3064V2.94006Z" fill="white"/>
<path d="M81.9311 1.84734V2.9604H82.8823V3.69022H81.9311V5.94777C81.9311 6.40765 82.1206 6.60903 82.5519 6.60903C82.6623 6.60868 82.7726 6.602 82.8823 6.58903V7.31076C82.7267 7.33859 82.569 7.3534 82.411 7.35503C81.4474 7.35503 81.0637 7.01606 81.0637 6.16961V3.69018H80.3667V2.96036H81.0637V1.84734H81.9311Z" fill="white"/>
<path d="M84.0657 1.22657H84.9246V3.64598H84.9931C85.1083 3.39314 85.2986 3.18197 85.5382 3.04123C85.7777 2.90049 86.0548 2.83703 86.3318 2.85951C86.5443 2.84794 86.7567 2.88342 86.954 2.96341C87.1512 3.0434 87.3283 3.16593 87.4727 3.32226C87.6171 3.47859 87.7253 3.66487 87.7894 3.8678C87.8536 4.07073 87.8721 4.28532 87.8438 4.49625V7.3308H86.9765V4.71C86.9765 4.00874 86.6498 3.65358 86.0377 3.65358C85.8887 3.64137 85.7389 3.66184 85.5988 3.71357C85.4586 3.7653 85.3314 3.84703 85.2261 3.95305C85.1208 4.05907 85.0399 4.18681 84.9892 4.32735C84.9384 4.46788 84.919 4.61781 84.9322 4.76664V7.33078H84.0657L84.0657 1.22657Z" fill="white"/>
<path d="M92.8962 6.14464C92.7784 6.54589 92.5234 6.89297 92.1756 7.12517C91.8278 7.35737 91.4095 7.45989 90.9938 7.4148C90.7045 7.42244 90.4171 7.36704 90.1514 7.25245C89.8857 7.13786 89.6481 6.96682 89.4551 6.75121C89.2622 6.5356 89.1185 6.28058 89.0339 6.00386C88.9494 5.72713 88.9261 5.43533 88.9657 5.1487C88.9272 4.86118 88.9509 4.56875 89.0352 4.29119C89.1195 4.01364 89.2625 3.75744 89.4544 3.53994C89.6464 3.32245 89.8828 3.14873 90.1477 3.03055C90.4127 2.91237 90.6999 2.8525 90.9899 2.85497C92.2115 2.85497 92.9485 3.68957 92.9485 5.06822V5.37056H89.8483V5.41911C89.8347 5.58023 89.855 5.7424 89.9078 5.89523C89.9605 6.04806 90.0447 6.18818 90.1547 6.3066C90.2648 6.42502 90.3985 6.51912 90.547 6.58289C90.6956 6.64665 90.8559 6.67866 91.0176 6.67686C91.2248 6.70174 91.4348 6.66442 91.6208 6.56965C91.8068 6.47487 91.9604 6.32692 92.0621 6.14461L92.8962 6.14464ZM89.8483 4.72975H92.0658C92.0768 4.5824 92.0567 4.43439 92.0071 4.29524C91.9574 4.15609 91.8791 4.02888 91.7774 3.92177C91.6756 3.81465 91.5525 3.73002 91.4161 3.6733C91.2797 3.61658 91.1329 3.58902 90.9852 3.59241C90.8353 3.59053 90.6866 3.61866 90.5478 3.67516C90.409 3.73166 90.2829 3.81537 90.1769 3.92137C90.071 4.02736 89.9873 4.15349 89.9309 4.29233C89.8744 4.43116 89.8464 4.57989 89.8483 4.72975H89.8483Z" fill="white"/>
</svg>
