<svg width="114" height="28" viewBox="0 0 114 28" fill="none" xmlns="http://www.w3.org/2000/svg">
<path d="M37.1817 4.03454C37.1817 4.84733 36.941 5.49461 36.4589 5.97746C35.9114 6.55159 35.1977 6.83885 34.3204 6.83885C33.4803 6.83885 32.766 6.54781 32.1785 5.96494C31.59 5.38246 31.2964 4.66019 31.2964 3.7984C31.2964 2.93623 31.59 2.21434 32.1785 1.63148C32.766 1.049 33.4803 0.757568 34.3204 0.757568C34.7373 0.757568 35.1364 0.839059 35.5154 1.00166C35.8943 1.16464 36.1982 1.38099 36.4257 1.65195L35.914 2.1639C35.5287 1.70346 34.9981 1.47344 34.3204 1.47344C33.7077 1.47344 33.1779 1.68872 32.7307 2.11956C32.2835 2.55089 32.06 3.11018 32.06 3.7984C32.06 4.48663 32.2835 5.04592 32.7307 5.47725C33.1779 5.90809 33.7077 6.12337 34.3204 6.12337C34.9704 6.12337 35.5124 5.90693 35.9462 5.47346C36.2278 5.19105 36.3907 4.79853 36.4343 4.29444H34.3204V3.59526H37.1411C37.1684 3.74728 37.1817 3.89319 37.1817 4.03454Z" fill="white"/>
<path d="M37.1816 4.03461H37.0846C37.0838 4.82887 36.8519 5.44579 36.3903 5.90894L36.3892 5.90971L36.3888 5.91049C35.8586 6.46483 35.1772 6.74074 34.3204 6.74191C33.5026 6.74074 32.8182 6.46183 32.2467 5.89642C31.6764 5.32986 31.3944 4.63824 31.3933 3.79848C31.3944 2.95833 31.6764 2.2671 32.2467 1.70092C32.8182 1.13513 33.5026 0.855821 34.3204 0.854657C34.7247 0.854657 35.1098 0.933529 35.477 1.09079C35.8446 1.24922 36.1349 1.45683 36.3513 1.71459L36.4256 1.65202L36.357 1.58343L35.8453 2.09577L35.9139 2.16397L35.9886 2.10188C35.5853 1.61865 35.0193 1.37504 34.3204 1.3765C33.6849 1.37572 33.1259 1.60274 32.6635 2.04998C32.1967 2.49867 31.9621 3.08939 31.9629 3.79848C31.9621 4.50756 32.1967 5.09828 32.6635 5.54698C33.1259 5.99422 33.6849 6.22123 34.3204 6.22045C34.9919 6.22162 35.5642 5.99383 36.0147 5.54212C36.3157 5.24041 36.4862 4.82247 36.5309 4.30286L36.54 4.1975H34.4174V3.69234H37.1411V3.59533L37.0455 3.6124C37.0721 3.75948 37.0846 3.89927 37.0846 4.03461H37.1816H37.2786C37.2786 3.88715 37.265 3.73561 37.2365 3.57796L37.2222 3.49831H34.2233V4.29451V4.39153H36.4342V4.29451L36.3376 4.28617C36.2948 4.77435 36.1394 5.14194 35.8776 5.40495C35.4607 5.82027 34.9491 6.02526 34.3204 6.02642C33.7303 6.02565 33.2297 5.8225 32.7981 5.40757C32.3707 4.99409 32.158 4.46623 32.1569 3.79848C32.158 3.13072 32.3707 2.60286 32.7981 2.18939C33.2297 1.77445 33.7303 1.57131 34.3204 1.57053C34.9764 1.57208 35.4717 1.78881 35.8397 2.22654L35.9079 2.30765L36.4942 1.72061L36.557 1.65774L36.4998 1.58984C36.2614 1.30568 35.9439 1.08012 35.5535 0.912671C35.1625 0.744738 34.7497 0.660627 34.3204 0.660627C33.4579 0.659851 32.7136 0.963022 32.1099 1.56296C31.5039 2.16174 31.1985 2.91438 31.1993 3.79848C31.1985 4.68219 31.5039 5.43521 32.1103 6.03438C32.7136 6.63393 33.4579 6.93671 34.3204 6.93594C35.2185 6.93671 35.9636 6.63839 36.529 6.04457L36.4589 5.97753L36.5275 6.04612C37.03 5.54397 37.2793 4.86564 37.2786 4.03461H37.1816Z" fill="white"/>
<path d="M41.6533 1.60318H39.0025V3.4488H41.393V4.14828H39.0025V5.99389H41.6533V6.70898H38.2552V0.888087H41.6533V1.60318Z" fill="white"/>
<path d="M41.6536 1.6031V1.50609H38.9057V3.54573H41.2963V4.05089L38.9057 4.05118V6.09082H41.5565V6.61189H38.3524V0.985021H41.5565V1.6031H41.6536V1.50609V1.6031H41.7506V0.888006V0.790991H38.1584V6.80592H41.7506V5.9938V5.89679H39.0997V4.24521H41.4903V3.44871V3.3517H39.0997V1.70012H41.7506V1.6031H41.6536Z" fill="white"/>
<path d="M44.8076 6.70898H44.0592V1.60318H42.4334V0.888087H46.4334V1.60318H44.8076V6.70898Z" fill="white"/>
<path d="M44.8076 6.7089V6.61189H44.1561V1.50609H42.5303V0.985021H46.3363V1.50609H44.7105V6.7089H44.8076V6.61189V6.7089H44.9046V1.70012H46.5304V0.888006V0.790991H42.3363V1.6031V1.70012H43.9621V6.80592H44.8076H44.9046V6.7089H44.8076Z" fill="white"/>
<path d="M49.3276 6.70898V0.888087H50.0753V6.70898H49.3276Z" fill="white"/>
<path d="M49.3275 6.7089H49.4245V0.985021H49.9782V6.61189H49.3275V6.7089H49.4245H49.3275V6.80592H50.0752H50.1722V0.790991H49.3275H49.2305V6.80592H49.3275V6.7089Z" fill="white"/>
<path d="M53.3931 6.70898H52.6446V1.60318H51.019V0.888087H55.0189V1.60318H53.3931V6.70898Z" fill="white"/>
<path d="M53.393 6.7089V6.61189H52.7416V1.50609H51.1159V0.985021H54.9218V1.50609H53.296V6.7089H53.393V6.61189V6.7089H53.49V1.70012H55.1158V0.888006V0.790991H50.9219V1.6031V1.70012H52.5476V6.80592H53.393H53.49V6.7089H53.393Z" fill="white"/>
<path d="M58.8752 5.46929C59.306 5.90547 59.8332 6.12337 60.4566 6.12337C61.08 6.12337 61.6075 5.90547 62.0377 5.46929C62.4689 5.03311 62.685 4.47557 62.685 3.7984C62.685 3.12124 62.4689 2.5637 62.0377 2.12752C61.6075 1.69134 61.08 1.47344 60.4566 1.47344C59.8332 1.47344 59.306 1.69134 58.8752 2.12752C58.445 2.5637 58.2291 3.12124 58.2291 3.7984C58.2291 4.47557 58.445 5.03311 58.8752 5.46929ZM62.591 5.9566C62.0187 6.54509 61.307 6.83885 60.4566 6.83885C59.6054 6.83885 58.8941 6.54509 58.3231 5.9566C57.7504 5.36879 57.4655 4.64922 57.4655 3.7984C57.4655 2.94758 57.7504 2.22793 58.3231 1.64021C58.8941 1.05162 59.6054 0.757568 60.4566 0.757568C61.3025 0.757568 62.0123 1.05317 62.5872 1.64399C63.1613 2.23481 63.4486 2.95292 63.4486 3.7984C63.4486 4.64922 63.162 5.36879 62.591 5.9566Z" fill="white"/>
<path d="M58.8751 5.46936L58.8061 5.53756C59.253 5.99121 59.8104 6.22162 60.4566 6.22045C61.1023 6.22162 61.6605 5.99121 62.1066 5.53756C62.5564 5.08354 62.7826 4.49611 62.7819 3.79848C62.7826 3.10084 62.5564 2.51342 62.1066 2.05939C61.6605 1.60574 61.1023 1.37533 60.4566 1.3765C59.8104 1.37533 59.253 1.60574 58.8061 2.05939C58.3575 2.51342 58.1308 3.10084 58.132 3.79848C58.1308 4.49611 58.3575 5.08354 58.8061 5.53756L58.8751 5.46936L58.9441 5.40116C58.5326 4.98235 58.3268 4.45556 58.326 3.79848C58.3268 3.14139 58.5326 2.6146 58.9441 2.19579C59.3594 1.77707 59.8555 1.57169 60.4566 1.57053C61.0572 1.57169 61.5544 1.77707 61.9686 2.19579C62.381 2.6146 62.5867 3.14139 62.5875 3.79848C62.5867 4.45556 62.381 4.98235 61.9686 5.40116C61.5544 5.81988 61.0572 6.02526 60.4566 6.02642C59.8555 6.02526 59.3594 5.81988 58.9441 5.40116L58.8751 5.46936ZM62.5909 5.95667L62.5215 5.88924C61.9653 6.45921 61.285 6.74074 60.4566 6.74191C59.6278 6.74074 58.9475 6.45921 58.3923 5.88924L58.3897 5.88624L58.3923 5.88924C57.8372 5.31734 57.5632 4.62766 57.5624 3.79848C57.5632 2.96929 57.8372 2.27961 58.3923 1.70771C58.9475 1.13774 59.6278 0.85582 60.4566 0.854656C61.2796 0.85582 61.9584 1.13891 62.5178 1.71188C63.0748 2.2864 63.3503 2.97501 63.3515 3.79848C63.3503 4.62766 63.0756 5.31734 62.5215 5.88924L62.5909 5.95667L62.6607 6.0241C63.2488 5.42008 63.5462 4.67083 63.5455 3.79848C63.5462 2.93107 63.2476 2.18337 62.6568 1.57664C62.0657 0.96758 61.3251 0.659559 60.4566 0.660626C59.5834 0.659559 58.8407 0.966124 58.2533 1.57286V1.57247C57.664 2.17687 57.3676 2.92612 57.3684 3.79848C57.3676 4.67083 57.664 5.42008 58.2533 6.02448L58.2559 6.0272L58.2533 6.0241C58.8407 6.63083 59.5834 6.93671 60.4566 6.93594C61.3293 6.93671 62.0721 6.63083 62.6607 6.0241L62.5909 5.95667Z" fill="white"/>
<path d="M64.4983 6.70898V0.888087H65.4086L68.2375 5.41636H68.2697L68.2375 4.29457V0.888087H68.986V6.70898H68.2053L65.2456 1.96127H65.2134L65.2456 3.08344V6.70898H64.4983Z" fill="white"/>
<path d="M64.4982 6.7089H64.5952V0.985021H65.3546L68.1836 5.51329H68.2696H68.3693L68.3344 4.29303V0.985021H68.8889V6.61189H68.2591L65.2993 1.86417H65.2133H65.1137L65.1485 3.08491V6.61189H64.4982V6.7089H64.5952H64.4982V6.80592H65.2455H65.3425V3.0818L65.3103 1.95857L65.2133 1.96119V2.0582H65.2455V1.96119L65.1632 2.0128L68.1514 6.80592H68.9859H69.0829V0.790991H68.2374H68.1404V4.29565L68.1726 5.41889L68.2696 5.41627V5.31926H68.2374V5.41627L68.3197 5.36476L65.4622 0.790991H64.4982H64.4012V6.80592H64.4982V6.7089Z" fill="white"/>
<path d="M94.9227 23.2015H96.733V11.0734H94.9227V23.2015ZM111.228 15.4422L109.153 20.7003H109.091L106.937 15.4422H104.987L108.217 22.7914L106.375 26.8793H108.264L113.241 15.4422H111.228ZM100.962 21.8239C100.368 21.8239 99.5415 21.5276 99.5415 20.7939C99.5415 19.8578 100.572 19.499 101.46 19.499C102.257 19.499 102.631 19.6706 103.115 19.9049C102.974 21.0281 102.007 21.8239 100.962 21.8239ZM101.18 15.1769C99.8695 15.1769 98.5122 15.7544 97.9505 17.0338L99.5571 17.7046C99.9005 17.0338 100.54 16.8152 101.211 16.8152C102.147 16.8152 103.099 17.3772 103.115 18.3757V18.5004C102.787 18.3132 102.085 18.0324 101.227 18.0324C99.495 18.0324 97.7312 18.9839 97.7312 20.7628C97.7312 22.3856 99.1515 23.4311 100.743 23.4311C101.96 23.4311 102.631 22.885 103.053 22.2454H103.115V23.1814H104.862V18.5315C104.862 16.3786 103.255 15.1769 101.18 15.1769ZM89.9924 16.9186H87.4176V12.7614H89.9924C91.3457 12.7614 92.1141 13.8819 92.1141 14.8399C92.1141 15.7798 91.3457 16.9186 89.9924 16.9186ZM89.9458 11.0734H85.6083V23.2015H87.4176V18.6065H89.9458C91.9521 18.6065 93.9244 17.1539 93.9244 14.8399C93.9244 12.526 91.9521 11.0734 89.9458 11.0734ZM66.2926 21.8262C65.042 21.8262 63.9949 20.7791 63.9949 19.3409C63.9949 17.8877 65.042 16.8247 66.2926 16.8247C67.5273 16.8247 68.4963 17.8877 68.4963 19.3409C68.4963 20.7791 67.5273 21.8262 66.2926 21.8262ZM68.3712 16.1213H68.3086C67.9024 15.6369 67.1206 15.1993 66.1361 15.1993C64.073 15.1993 62.182 17.0122 62.182 19.3409C62.182 21.6542 64.073 23.4516 66.1361 23.4516C67.1206 23.4516 67.9024 23.0138 68.3086 22.514H68.3712V23.1078C68.3712 24.6867 67.5273 25.5306 66.1675 25.5306C65.0579 25.5306 64.3701 24.7332 64.0885 24.0613L62.5102 24.7177C62.9634 25.8117 64.167 27.156 66.1675 27.156C68.2931 27.156 70.0905 25.9054 70.0905 22.8577V15.4494H68.3712V16.1213ZM71.3407 23.2015H73.1538V11.073H71.3407V23.2015ZM75.8265 19.2004C75.7796 17.606 77.0612 16.7935 77.9833 16.7935C78.7027 16.7935 79.312 17.1528 79.5147 17.669L75.8265 19.2004ZM81.4531 17.8251C81.1097 16.9027 80.0619 15.1993 77.9207 15.1993C75.7951 15.1993 74.0291 16.8716 74.0291 19.3254C74.0291 21.6386 75.7796 23.4516 78.1238 23.4516C80.0153 23.4516 81.1097 22.295 81.5627 21.623L80.156 20.6851C79.6874 21.3729 79.0462 21.8262 78.1238 21.8262C77.2018 21.8262 76.5455 21.4041 76.1233 20.5759L81.6403 18.2939L81.4531 17.8251ZM37.4974 16.4653V18.2158H41.686C41.5609 19.2004 41.2327 19.9193 40.7325 20.4195C40.1232 21.0292 39.1697 21.7011 37.4974 21.7011C34.9184 21.7011 32.9024 19.6225 32.9024 17.0436C32.9024 14.4648 34.9184 12.3858 37.4974 12.3858C38.8885 12.3858 39.9041 12.933 40.6544 13.6364L41.8891 12.4018C40.8421 11.4012 39.4509 10.6354 37.4974 10.6354C33.965 10.6354 30.9954 13.5113 30.9954 17.0436C30.9954 20.5759 33.965 23.4516 37.4974 23.4516C39.4043 23.4516 40.8421 22.8267 41.9672 21.6542C43.1239 20.4976 43.4835 18.8722 43.4835 17.5595C43.4835 17.1528 43.4523 16.778 43.3895 16.4653H37.4974ZM48.2456 21.8262C46.9949 21.8262 45.9164 20.7946 45.9164 19.3254C45.9164 17.8406 46.9949 16.8247 48.2456 16.8247C49.4957 16.8247 50.5742 17.8406 50.5742 19.3254C50.5742 20.7946 49.4957 21.8262 48.2456 21.8262ZM48.2456 15.1993C45.9634 15.1993 44.1034 16.9341 44.1034 19.3254C44.1034 21.7011 45.9634 23.4516 48.2456 23.4516C50.5273 23.4516 52.3872 21.7011 52.3872 19.3254C52.3872 16.9341 50.5273 15.1993 48.2456 15.1993ZM57.2808 21.8262C56.0306 21.8262 54.952 20.7946 54.952 19.3254C54.952 17.8406 56.0306 16.8247 57.2808 16.8247C58.531 16.8247 59.6095 17.8406 59.6095 19.3254C59.6095 20.7946 58.531 21.8262 57.2808 21.8262ZM57.2808 15.1993C54.9987 15.1993 53.1391 16.9341 53.1391 19.3254C53.1391 21.7011 54.9987 23.4516 57.2808 23.4516C59.5626 23.4516 61.4225 21.7011 61.4225 19.3254C61.4225 16.9341 59.5626 15.1993 57.2808 15.1993Z" fill="white"/>
<path d="M1.37492 25.5195L1.30284 25.4506C1.02052 25.1519 0.853851 24.688 0.853851 24.0874V24.2288V2.77294C0.853851 2.771 0.853851 2.76954 0.853851 2.76799C0.853851 2.76983 0.853851 2.77138 0.853851 2.77332V2.91506C0.853851 2.26468 1.04817 1.77475 1.37375 1.48099L13.3937 13.5007L1.37492 25.5195ZM0.853851 2.76682C0.853851 2.71337 0.855306 2.66147 0.858023 2.61034C0.855306 2.66108 0.853851 2.71337 0.853851 2.76682ZM0.858023 2.60801C0.858023 2.60733 0.858022 2.60656 0.858313 2.60578C0.858022 2.60656 0.858023 2.60733 0.858023 2.60801ZM0.858313 2.60122C0.858313 2.60083 0.858313 2.60044 0.858313 2.60006C0.858313 2.60044 0.858313 2.60083 0.858313 2.60122Z" fill="white"/>
<path d="M17.3998 17.6507L17.4912 17.5988L22.2381 14.9017C22.6907 14.6444 22.9923 14.3325 23.1427 14.0025C22.9927 14.3325 22.6909 14.6448 22.2381 14.9021L17.4912 17.5992L17.3998 17.6507ZM17.401 17.5086L13.3938 13.5007L17.4006 9.49352L22.2381 12.2418C22.8524 12.5908 23.1973 13.0407 23.2549 13.5003C23.2549 13.5007 23.2549 13.5015 23.2549 13.5022C23.1973 13.9608 22.8524 14.411 22.2381 14.76L17.401 17.5086Z" fill="white"/>
<path d="M2.23181 25.9773C1.89604 25.9773 1.60306 25.8682 1.37459 25.662L1.37498 25.6617C1.60345 25.8678 1.89682 25.9773 2.23259 25.9773C2.26169 25.9773 2.29128 25.9766 2.32126 25.9751C2.29089 25.9766 2.26092 25.9773 2.23181 25.9773ZM2.2322 25.8352C1.89643 25.8356 1.60345 25.7261 1.37498 25.5199V25.5196L13.3938 13.5007L17.401 17.5086L3.31906 25.5097C2.92945 25.7306 2.5603 25.8352 2.2322 25.8352ZM1.37158 25.6594C1.35033 25.6401 1.32948 25.6197 1.30901 25.5984L1.37158 25.6594Z" fill="white"/>
<path d="M13.3936 13.5006L1.37363 1.48095C1.6021 1.27518 1.89469 1.16604 2.23007 1.16604C2.55905 1.16604 2.92848 1.27101 3.31887 1.4923L17.4004 9.49341L13.3936 13.5006ZM17.491 9.4029L3.31887 1.35066C2.92848 1.12927 2.55905 1.0243 2.23007 1.0243C2.22852 1.0243 2.22746 1.0243 2.2259 1.0243C2.22784 1.0243 2.2293 1.0243 2.23163 1.0243C2.55983 1.0243 2.92887 1.12888 3.31887 1.35027L17.491 9.4029Z" fill="white"/>
<path d="M2.32113 25.975C2.62615 25.9575 2.96385 25.8526 3.31893 25.6514L17.3997 17.6506L3.31893 25.6514C2.96415 25.853 2.62615 25.9575 2.32113 25.975ZM1.37446 25.6619L1.37145 25.6593C1.37252 25.6601 1.37368 25.6612 1.37446 25.6619ZM1.30888 25.5983L1.30276 25.5923V25.5919C1.30509 25.5941 1.30694 25.5964 1.30888 25.5983Z" fill="white"/>
<path d="M17.3997 17.6507L17.4911 17.5988L17.3997 17.6507Z" fill="white"/>
<path d="M2.23246 25.9773C1.89669 25.9773 1.60332 25.8678 1.37485 25.6617L1.37446 25.662C1.37368 25.6613 1.37252 25.6602 1.37145 25.6594L1.30888 25.5984C1.30694 25.5965 1.30509 25.5942 1.30276 25.592L1.37485 25.5199C1.60332 25.7261 1.8963 25.8356 2.23207 25.8352C2.56018 25.8352 2.92932 25.7306 3.31893 25.5097L17.4008 17.5086L17.4911 17.5988L17.3997 17.6507L3.31893 25.6515C2.96385 25.8527 2.62615 25.9577 2.32113 25.9751C2.29115 25.9766 2.26156 25.9773 2.23246 25.9773Z" fill="white"/>
<path d="M1.30284 25.5924C1.02052 25.2937 0.853851 24.8299 0.853851 24.2293V24.2289C0.853851 24.8299 1.02052 25.2933 1.30284 25.592V25.5924Z" fill="white"/>
<path d="M1.30284 25.592C1.02052 25.2933 0.853851 24.8298 0.853851 24.2288V24.0875C0.853851 24.6881 1.02052 25.1519 1.30284 25.4506L1.37492 25.5196L1.30284 25.592Z" fill="white"/>
<path d="M1.30276 25.592L1.37485 25.5196V25.5199L1.30276 25.592Z" fill="white"/>
<path d="M23.1425 14.0024C23.2172 13.8387 23.2547 13.6705 23.2547 13.5021C23.2547 13.5018 23.2547 13.5015 23.2547 13.5015C23.2547 13.6701 23.2172 13.8383 23.1425 14.0024Z" fill="white"/>
<path d="M17.4912 17.5988L17.4009 17.5085L22.238 14.7599C22.8523 14.4109 23.1972 13.9607 23.2548 13.5021C23.2548 13.6704 23.2173 13.8386 23.1427 14.0024C22.9922 14.3325 22.6906 14.6444 22.238 14.9016L17.4912 17.5988Z" fill="white"/>
<path d="M23.2549 13.5006V13.5002C23.2545 12.9927 22.9153 12.4854 22.2381 12.1003L17.4912 9.40319H17.4908L17.4912 9.4029L22.2381 12.0999C22.9161 12.485 23.2557 12.9931 23.2549 13.5006Z" fill="white"/>
<path d="M23.2549 13.5003C23.1973 13.0406 22.8524 12.5908 22.2381 12.2417L17.4006 9.49349L17.4909 9.40327H17.4912L22.2381 12.1004C22.9153 12.4854 23.2545 12.9928 23.2549 13.5003Z" fill="white"/>
<path d="M0.853851 2.76803C0.853851 2.76764 0.853851 2.76725 0.853851 2.76686C0.853851 2.76725 0.853851 2.76764 0.853851 2.76803ZM0.858023 2.61038C0.858023 2.6096 0.858023 2.60883 0.858023 2.60805C0.858023 2.60883 0.858023 2.6096 0.858023 2.61038ZM0.858313 2.60582C0.858313 2.60427 0.858313 2.60281 0.858313 2.60126C0.858313 2.60281 0.858313 2.60427 0.858313 2.60582ZM0.858313 2.60009C0.914485 1.60346 1.45641 1.02777 2.22302 1.02438C1.89065 1.02632 1.60116 1.13546 1.37453 1.33968V1.33929L1.37181 1.342C1.34795 1.36354 1.32525 1.38634 1.30284 1.40982C1.04817 1.67923 0.887515 2.08281 0.858313 2.60009Z" fill="white"/>
<path d="M0.853851 2.91506V2.77332C0.853851 2.77138 0.853851 2.76983 0.853851 2.76799C0.853851 2.7676 0.853851 2.76721 0.853851 2.76683C0.853851 2.71337 0.855306 2.66108 0.858023 2.61034C0.858023 2.60956 0.858023 2.60879 0.858023 2.60801C0.858023 2.60733 0.858022 2.60656 0.858313 2.60578C0.858313 2.60423 0.858313 2.60277 0.858313 2.60122C0.858313 2.60083 0.858313 2.60045 0.858313 2.60006C0.887515 2.08277 1.04817 1.67919 1.30284 1.40978L1.37376 1.48099C1.04817 1.77475 0.853851 2.26467 0.853851 2.91506ZM1.37181 1.34196L1.37453 1.33925C1.37375 1.34041 1.37259 1.34119 1.37181 1.34196Z" fill="white"/>
<path d="M17.4005 9.49347L3.31893 1.49236C2.92854 1.27107 2.55911 1.1661 2.23013 1.1661C1.89475 1.1661 1.60215 1.27524 1.37368 1.48101L1.30276 1.4098C1.32518 1.38632 1.34788 1.36352 1.37174 1.34199C1.37252 1.34121 1.37368 1.34044 1.37446 1.33966C1.60109 1.13544 1.89058 1.0263 2.22295 1.02436C2.22373 1.02436 2.2248 1.02436 2.22596 1.02436C2.22751 1.02436 2.22858 1.02436 2.23013 1.02436C2.55911 1.02436 2.92854 1.12933 3.31893 1.35072L17.4911 9.40296L17.4907 9.40325L17.4005 9.49347Z" fill="white"/>
</svg>
